<svg width="17" height="17" viewBox="0 0 17 17" fill="none" xmlns="http://www.w3.org/2000/svg">
<path d="M3.92194 5.82846L5.81356 3.93548C7.10676 2.64031 7.75303 1.99401 8.4478 2.14713C9.14192 2.30025 9.45645 3.15966 10.0861 4.87782L10.5123 6.04092C10.6801 6.49901 10.7643 6.72806 10.9155 6.90543C10.9833 6.98502 11.0604 7.05614 11.1452 7.11725C11.334 7.25314 11.5688 7.31758 12.0384 7.4471C13.0974 7.73931 13.6276 7.88541 13.8273 8.23185C13.9137 8.38178 13.9586 8.55201 13.9574 8.72504C13.9549 9.12507 13.5663 9.51362 12.7899 10.2914L11.8865 11.1948L14.7421 14.0531C14.8292 14.1453 14.8768 14.2679 14.8749 14.3947C14.8731 14.5215 14.8219 14.6426 14.7322 14.7322C14.6426 14.8219 14.5215 14.8731 14.3947 14.8749C14.2679 14.8768 14.1454 14.8292 14.0531 14.7421L11.1981 11.8838L10.2629 12.8204C9.48069 13.6026 9.08961 13.9944 8.68704 13.9944C8.51798 13.9944 8.35146 13.951 8.20409 13.8668C7.85447 13.6671 7.70774 13.1337 7.41363 12.0663C7.28475 11.5974 7.22032 11.3632 7.08507 11.1737C7.02573 11.0914 6.95683 11.0161 6.87963 10.9491C6.70419 10.7973 6.47643 10.7118 6.02155 10.5408L4.84511 10.0987C3.14552 9.46067 2.29573 9.14102 2.14644 8.44878C1.99651 7.7559 2.63768 7.11342 3.92194 5.82846Z" fill="black" fill-opacity="0.64"/>
</svg>
