<svg width="20" height="20" viewBox="0 0 20 20" fill="none" xmlns="http://www.w3.org/2000/svg">
<path d="M4.61405 6.85701L6.83949 4.62998C8.36089 3.10625 9.12122 2.34589 9.93858 2.52604C10.7552 2.70618 11.1252 3.71724 11.866 5.73862L12.3674 7.10696C12.5648 7.6459 12.6639 7.91536 12.8418 8.12403C12.9215 8.21767 13.0122 8.30134 13.112 8.37323C13.3342 8.53311 13.6104 8.60892 14.1628 8.76129C15.4087 9.10507 16.0324 9.27696 16.2674 9.68453C16.369 9.86092 16.4218 10.0612 16.4205 10.2648C16.4175 10.7354 15.9604 11.1925 15.047 12.1075L13.9841 13.1703L17.3437 16.533C17.4461 16.6416 17.5021 16.7857 17.4999 16.9349C17.4978 17.0841 17.4375 17.2265 17.332 17.332C17.2266 17.4375 17.0841 17.4978 16.9349 17.4999C16.7858 17.5021 16.6416 17.4461 16.5331 17.3437L13.1743 13.981L12.074 15.0829C11.1538 16.0031 10.6937 16.464 10.22 16.464C10.0211 16.464 9.82525 16.4129 9.65187 16.3139C9.24056 16.0789 9.06793 15.4514 8.72191 14.1957C8.5703 13.644 8.49449 13.3685 8.33537 13.1456C8.26557 13.0487 8.18451 12.9602 8.09369 12.8814C7.88728 12.7027 7.61933 12.6021 7.08417 12.401L5.70013 11.8808C3.70061 11.1302 2.70085 10.7541 2.52522 9.93974C2.34884 9.12458 3.10316 8.36873 4.61405 6.85701Z" fill="black" fill-opacity="0.34"/>
</svg>
