<svg width="17" height="17" viewBox="0 0 17 17" fill="none" xmlns="http://www.w3.org/2000/svg">
<path d="M14.875 8.5C14.875 10.1908 14.2034 11.8123 13.0078 13.0078C11.8123 14.2034 10.1908 14.875 8.5 14.875C6.80924 14.875 5.18774 14.2034 3.99219 13.0078C2.79665 11.8123 2.125 10.1908 2.125 8.5C2.125 6.80924 2.79665 5.18774 3.99219 3.99219C5.18774 2.79665 6.80924 2.125 8.5 2.125C10.1908 2.125 11.8123 2.79665 13.0078 3.99219C14.2034 5.18774 14.875 6.80924 14.875 8.5ZM8.5 4.91406C8.5 4.80839 8.45802 4.70705 8.3833 4.63232C8.30858 4.5576 8.20723 4.51562 8.10156 4.51562C7.99589 4.51562 7.89455 4.5576 7.81982 4.63232C7.7451 4.70705 7.70312 4.80839 7.70312 4.91406V9.29688C7.70315 9.36711 7.72173 9.43608 7.757 9.49682C7.79226 9.55755 7.84296 9.60788 7.90394 9.64272L10.693 11.2365C10.7845 11.2859 10.8918 11.2976 10.9918 11.2691C11.0919 11.2405 11.1768 11.174 11.2284 11.0836C11.28 10.9933 11.2942 10.8864 11.2681 10.7857C11.2419 10.685 11.1773 10.5985 11.0883 10.5448L8.5 9.06578V4.91406Z" fill="black" fill-opacity="0.64"/>
</svg>
