<svg width="20" height="20" viewBox="0 0 20 20" fill="none" xmlns="http://www.w3.org/2000/svg">
<path d="M17.5 10C17.5 11.9891 16.7098 13.8968 15.3033 15.3033C13.8968 16.7098 11.9891 17.5 10 17.5C8.01088 17.5 6.10322 16.7098 4.6967 15.3033C3.29018 13.8968 2.5 11.9891 2.5 10C2.5 8.01088 3.29018 6.10322 4.6967 4.6967C6.10322 3.29018 8.01088 2.5 10 2.5C11.9891 2.5 13.8968 3.29018 15.3033 4.6967C16.7098 6.10322 17.5 8.01088 17.5 10ZM10 5.78125C10 5.65693 9.95061 5.5377 9.86271 5.44979C9.7748 5.36189 9.65557 5.3125 9.53125 5.3125C9.40693 5.3125 9.2877 5.36189 9.19979 5.44979C9.11189 5.5377 9.0625 5.65693 9.0625 5.78125V10.9375C9.06253 11.0201 9.08439 11.1013 9.12588 11.1727C9.16737 11.2442 9.22701 11.3034 9.29875 11.3444L12.58 13.2194C12.6877 13.2776 12.8139 13.2913 12.9315 13.2577C13.0492 13.2241 13.1491 13.1458 13.2099 13.0396C13.2706 12.9333 13.2873 12.8075 13.2565 12.689C13.2257 12.5706 13.1498 12.4689 13.045 12.4056L10 10.6656V5.78125Z" fill="black" fill-opacity="0.34"/>
</svg>
