<svg width="20" height="20" viewBox="0 0 20 20" fill="none" xmlns="http://www.w3.org/2000/svg">
<path d="M10 2.5C8.51664 2.5 7.06659 2.93987 5.83323 3.76398C4.59986 4.58809 3.63856 5.75943 3.07091 7.12987C2.50325 8.50032 2.35472 10.0083 2.64411 11.4632C2.9335 12.918 3.64781 14.2544 4.6967 15.3033C5.7456 16.3522 7.08197 17.0665 8.53682 17.3559C9.99168 17.6453 11.4997 17.4968 12.8701 16.9291C14.2406 16.3614 15.4119 15.4001 16.236 14.1668C17.0601 12.9334 17.5 11.4834 17.5 10C17.5 8.01087 16.7098 6.10322 15.3033 4.6967C13.8968 3.29018 11.9891 2.5 10 2.5ZM13.7828 6.20781L10.8156 10.9375H11.875C11.9993 10.9375 12.1186 10.9869 12.2065 11.0748C12.2944 11.1627 12.3438 11.2819 12.3438 11.4062C12.3438 11.5306 12.2944 11.6498 12.2065 11.7377C12.1186 11.8256 11.9993 11.875 11.875 11.875H10.5859V12.8125H11.875C11.9993 12.8125 12.1186 12.8619 12.2065 12.9498C12.2944 13.0377 12.3438 13.1569 12.3438 13.2812C12.3438 13.4056 12.2944 13.5248 12.2065 13.6127C12.1186 13.7006 11.9993 13.75 11.875 13.75H10.5859V15.0391C10.5859 15.1945 10.5242 15.3435 10.4143 15.4534C10.3044 15.5633 10.1554 15.625 10 15.625C9.8446 15.625 9.69557 15.5633 9.58568 15.4534C9.4758 15.3435 9.41406 15.1945 9.41406 15.0391V13.75H8.125C8.00068 13.75 7.88145 13.7006 7.79355 13.6127C7.70564 13.5248 7.65625 13.4056 7.65625 13.2812C7.65625 13.1569 7.70564 13.0377 7.79355 12.9498C7.88145 12.8619 8.00068 12.8125 8.125 12.8125H9.41406V11.875H8.125C8.00068 11.875 7.88145 11.8256 7.79355 11.7377C7.70564 11.6498 7.65625 11.5306 7.65625 11.4062C7.65625 11.2819 7.70564 11.1627 7.79355 11.0748C7.88145 10.9869 8.00068 10.9375 8.125 10.9375H9.18438L6.21719 6.20781C6.17625 6.14256 6.14857 6.06989 6.13572 5.99394C6.12287 5.91799 6.12511 5.84025 6.1423 5.76517C6.1595 5.69008 6.19131 5.61912 6.23593 5.55633C6.28055 5.49354 6.3371 5.44015 6.40235 5.39922C6.4676 5.35828 6.54027 5.3306 6.61622 5.31775C6.69217 5.3049 6.76991 5.30714 6.84499 5.32433C6.92007 5.34152 6.99104 5.37334 7.05383 5.41796C7.11662 5.46257 7.17 5.51912 7.21094 5.58437L10 10.0375L12.7891 5.58906C12.83 5.52381 12.8834 5.46726 12.9462 5.42264C13.009 5.37803 13.0799 5.34621 13.155 5.32902C13.2301 5.31183 13.3078 5.30959 13.3838 5.32244C13.4597 5.33529 13.5324 5.36297 13.5977 5.40391C13.6629 5.44484 13.7195 5.49823 13.7641 5.56102C13.8087 5.62381 13.8405 5.69477 13.8577 5.76986C13.8749 5.84494 13.8771 5.92268 13.8643 5.99863C13.8514 6.07457 13.8237 6.14725 13.7828 6.2125V6.20781Z" fill="black" fill-opacity="0.34"/>
</svg>
