<svg width="17" height="17" viewBox="0 0 17 17" fill="none" xmlns="http://www.w3.org/2000/svg">
<path d="M8.5 2.125C7.23915 2.125 6.00661 2.49889 4.95824 3.19938C3.90988 3.89987 3.09278 4.89551 2.61027 6.06039C2.12776 7.22527 2.00152 8.50707 2.2475 9.7437C2.49348 10.9803 3.10064 12.1162 3.9922 13.0078C4.88376 13.8994 6.01967 14.5065 7.2563 14.7525C8.49293 14.9985 9.77473 14.8722 10.9396 14.3897C12.1045 13.9072 13.1001 13.0901 13.8006 12.0418C14.5011 10.9934 14.875 9.76085 14.875 8.5C14.875 6.80924 14.2034 5.18774 13.0078 3.99219C11.8123 2.79665 10.1908 2.125 8.5 2.125ZM11.7154 5.27664L9.19328 9.29687H10.0938C10.1994 9.29687 10.3008 9.33885 10.3755 9.41357C10.4502 9.48829 10.4922 9.58964 10.4922 9.69531C10.4922 9.80098 10.4502 9.90233 10.3755 9.97705C10.3008 10.0518 10.1994 10.0937 10.0938 10.0937H8.99805V10.8906H10.0938C10.1994 10.8906 10.3008 10.9326 10.3755 11.0073C10.4502 11.082 10.4922 11.1834 10.4922 11.2891C10.4922 11.3947 10.4502 11.4961 10.3755 11.5708C10.3008 11.6455 10.1994 11.6875 10.0938 11.6875H8.99805V12.7832C8.99805 12.9153 8.94558 13.042 8.85217 13.1354C8.75877 13.2288 8.63209 13.2812 8.5 13.2812C8.36791 13.2812 8.24123 13.2288 8.14783 13.1354C8.05443 13.042 8.00196 12.9153 8.00196 12.7832V11.6875H6.90625C6.80058 11.6875 6.69924 11.6455 6.62451 11.5708C6.54979 11.4961 6.50781 11.3947 6.50781 11.2891C6.50781 11.1834 6.54979 11.082 6.62451 11.0073C6.69924 10.9326 6.80058 10.8906 6.90625 10.8906H8.00196V10.0937H6.90625C6.80058 10.0937 6.69924 10.0518 6.62451 9.97705C6.54979 9.90233 6.50781 9.80098 6.50781 9.69531C6.50781 9.58964 6.54979 9.48829 6.62451 9.41357C6.69924 9.33885 6.80058 9.29687 6.90625 9.29687H7.80672L5.28461 5.27664C5.24982 5.22118 5.22629 5.1594 5.21536 5.09485C5.20444 5.03029 5.20634 4.96421 5.22096 4.90039C5.23557 4.83657 5.26261 4.77625 5.30054 4.72288C5.33846 4.66951 5.38653 4.62413 5.44199 4.58934C5.49746 4.55454 5.55923 4.53101 5.62379 4.52009C5.68834 4.50917 5.75442 4.51107 5.81824 4.52568C5.88206 4.5403 5.94238 4.56734 5.99575 4.60526C6.04912 4.64319 6.0945 4.69126 6.1293 4.74672L8.5 8.53187L10.8707 4.7507C10.9055 4.69524 10.9509 4.64717 11.0042 4.60925C11.0576 4.57132 11.1179 4.54428 11.1818 4.52967C11.2456 4.51505 11.3117 4.51315 11.3762 4.52407C11.4408 4.53499 11.5025 4.55852 11.558 4.59332C11.6135 4.62811 11.6615 4.67349 11.6995 4.72687C11.7374 4.78024 11.7644 4.84055 11.779 4.90438C11.7937 4.9682 11.7956 5.03427 11.7846 5.09883C11.7737 5.16339 11.7502 5.22516 11.7154 5.28062V5.27664Z" fill="black" fill-opacity="0.64"/>
</svg>
