<svg width="96" height="96" viewBox="0 0 96 96" fill="none" xmlns="http://www.w3.org/2000/svg">
<circle cx="48" cy="48" r="48" fill="#FBCD6D"/>
<path d="M53.1434 81.1527C53.5935 82.1387 54.7142 82.6103 55.7216 82.2734C55.9451 83.091 56.6524 83.7248 57.5496 83.8106C58.3856 83.8902 59.1541 83.4676 59.5583 82.7879C60.4402 83.1492 61.4874 82.8736 62.0661 82.0622C62.7397 81.116 62.5193 79.8024 61.5731 79.1288L59.7512 77.8304C59.6195 77.7355 59.4787 77.662 59.3378 77.6039C58.9551 77.4018 58.4744 77.2609 57.9477 77.2089C57.4823 77.166 57.0413 77.1997 56.6586 77.2915C56.631 77.2977 56.6035 77.3038 56.5759 77.3099C56.5667 77.313 56.5575 77.316 56.5483 77.316C56.4871 77.3313 56.4289 77.3497 56.3707 77.3711C56.3646 77.3742 56.3585 77.3773 56.3493 77.3803C56.3064 77.3956 56.2636 77.411 56.2207 77.4324L56.2115 77.4354C56.1931 77.4446 56.1748 77.4538 56.1564 77.4599L54.1875 78.3602C53.125 78.8501 52.6596 80.0963 53.1434 81.1527Z" fill="#B59F43"/>
<path d="M61.5671 78.5158L59.7452 77.2175C59.6656 77.1593 59.5799 77.1103 59.4941 77.0675L59.3502 73.2491C59.3961 72.6367 58.9399 72.1009 58.3275 72.0549C57.7151 72.009 57.1792 72.4653 57.1333 73.0777L56.4137 76.7429C56.3984 76.749 56.38 76.7521 56.3647 76.7582C56.3586 76.7613 56.3525 76.7643 56.3433 76.7674C56.3004 76.7827 56.2576 76.798 56.2147 76.8195L56.2055 76.8225C56.1871 76.8317 56.1688 76.8409 56.1504 76.847L54.1815 77.7472C53.1251 78.231 52.6597 79.4773 53.1435 80.5337C53.5936 81.5197 54.7143 81.9912 55.7217 81.6544C55.9452 82.472 56.6526 83.1058 57.5497 83.1915C58.3857 83.2711 59.1542 82.8486 59.5584 82.1688C60.4403 82.5301 61.4875 82.2545 62.0662 81.4431C62.7368 80.5031 62.5133 79.1895 61.5671 78.5158Z" fill="#FFDF57"/>
<path d="M45.3442 81.1518C44.894 82.1377 43.7733 82.6093 42.7659 82.2725C42.5424 83.09 41.8351 83.7239 40.9379 83.8096C40.102 83.8892 39.3334 83.4667 38.9292 82.7869C38.0474 83.1482 37.0001 82.8726 36.4214 82.0612C35.7478 81.115 35.9682 79.8014 36.9144 79.1278L38.7363 77.8295C38.868 77.7346 39.0088 77.6611 39.1497 77.6029C39.5324 77.4008 40.0132 77.2599 40.5398 77.2079C41.0053 77.165 41.4462 77.1987 41.829 77.2906C41.8565 77.2967 41.8841 77.3028 41.9116 77.3089C41.9208 77.312 41.93 77.3151 41.9392 77.3151C42.0004 77.3304 42.0586 77.3487 42.1168 77.3702C42.1229 77.3732 42.129 77.3763 42.1382 77.3794C42.1811 77.3947 42.224 77.41 42.2668 77.4314L42.276 77.4345C42.2944 77.4437 42.3128 77.4528 42.3311 77.459L44.3 78.3592C45.3595 78.8491 45.8249 80.0954 45.3442 81.1518Z" fill="#B59F43"/>
<path d="M44.3039 77.7535L42.335 76.8533C42.3167 76.8441 42.2983 76.8349 42.2799 76.8288L42.2707 76.8257C42.2279 76.8073 42.185 76.792 42.1421 76.7737C42.136 76.7706 42.1299 76.7675 42.1207 76.7645C42.1054 76.7583 42.087 76.7553 42.0717 76.7492L41.3521 73.0839C41.3062 72.4715 40.7703 72.0122 40.1579 72.0612C39.5455 72.1071 39.0862 72.643 39.1352 73.2554L38.9913 77.0707C38.9056 77.1135 38.8198 77.1625 38.7402 77.2207L36.9183 78.519C35.9722 79.1926 35.7517 80.5063 36.4253 81.4524C37.0041 82.2639 38.0482 82.5394 38.9331 82.1781C39.3343 82.8579 40.1028 83.2805 40.9418 83.2008C41.8359 83.1151 42.5432 82.4813 42.7698 81.6637C43.7772 82.0005 44.8949 81.529 45.3481 80.543C45.8257 79.4835 45.3603 78.2373 44.3039 77.7535Z" fill="#FFDF57"/>
<path d="M72.6576 42.1819C68.5484 42.7545 60.4647 34.9494 59.099 39.8639C57.7333 44.7785 62.5897 52.3815 72.8077 59.0659C80.5913 64.1611 86.449 48.3855 86.1152 39.475C86.0877 38.7493 86.1275 38.0481 85.7019 37.3776C85.316 36.6702 85.2242 38.8443 84.8966 38.3666C84.6332 37.9808 85.0833 35.4577 84.128 34.8055C83.5554 34.4166 83.5646 36.1252 83.0808 36.1099C82.4837 36.0915 83.3502 33.1826 81.7763 32.1721C80.6495 31.4495 75.9156 41.7287 72.6576 42.1819Z" fill="#FFEEC0"/>
<path d="M26.1118 42.1819C30.221 42.7545 38.3048 34.9494 39.6704 39.8639C41.0361 44.7785 36.1797 52.3815 25.9618 59.0659C18.1781 64.1611 12.3204 48.3855 12.6542 39.475C12.6818 38.7493 12.642 38.0481 13.0676 37.3776C13.4534 36.6702 13.5453 38.8443 13.8729 38.3666C14.1362 37.9808 13.6861 35.4577 14.6415 34.8055C15.2141 34.4166 15.2049 36.1252 15.6887 36.1099C16.2858 36.0915 15.4192 33.1826 16.9931 32.1721C18.1199 31.4495 22.8538 41.7287 26.1118 42.1819Z" fill="#FFEEC0"/>
<path d="M73.6622 48.5142C72.8171 34.5881 62.1153 17.7715 49.0344 17.7715C35.9534 17.7715 25.2516 34.5881 24.4065 48.5142C22.949 51.3496 22.1406 54.2739 22.1406 56.996C22.1406 67.5018 34.1836 76.0173 49.0374 76.0173C63.8913 76.0173 75.9342 67.5018 75.9342 56.996C75.9312 54.2739 75.1197 51.3496 73.6622 48.5142Z" fill="#FFF8DC"/>
<path d="M55.0668 45.3239C56.4315 45.3239 57.5378 44.2176 57.5378 42.8529C57.5378 41.4882 56.4315 40.3818 55.0668 40.3818C53.702 40.3818 52.5957 41.4882 52.5957 42.8529C52.5957 44.2176 53.702 45.3239 55.0668 45.3239Z" fill="#443E3E"/>
<path d="M45.473 45.3239C46.8377 45.3239 47.9441 44.2176 47.9441 42.8529C47.9441 41.4882 46.8377 40.3818 45.473 40.3818C44.1083 40.3818 43.002 41.4882 43.002 42.8529C43.002 44.2176 44.1083 45.3239 45.473 45.3239Z" fill="#443E3E"/>
<path d="M49.7015 17.7716C49.7015 19.6578 47.702 21.1857 49.5882 21.1857C50.6936 21.1857 51.7163 19.6578 51.7163 17.7716C51.7163 15.8854 50.7151 14.3574 49.5882 14.3574C47.702 14.3574 49.7015 15.8854 49.7015 17.7716Z" fill="#F7D857"/>
<path d="M55.2839 47.5989C53.808 47.1304 51.8851 46.0557 50.054 46.0557C48.2229 46.0557 46.2999 47.1335 44.824 47.5989C41.8386 48.5451 40.0381 47.4489 40.0381 48.6033C40.0381 49.7607 42.1203 51.0131 44.7842 51.9746C46.3826 52.5533 47.981 53.3555 50.054 53.3555C52.127 53.3555 53.7253 52.5533 55.3237 51.9746C57.9877 51.0131 60.0698 49.7607 60.0698 48.6033C60.0668 47.4489 58.2663 48.5451 55.2839 47.5989Z" fill="#FFB808"/>
<path d="M55.2839 46.9865C53.808 46.518 51.8851 46.0557 50.054 46.0557C48.2229 46.0557 46.2999 46.5211 44.824 46.9865C41.8386 47.9327 40.0381 47.4489 40.0381 48.6033C40.0381 49.7607 42.1203 50.2139 44.7842 51.1754C46.3826 51.7541 47.981 52.5563 50.054 52.5563C52.127 52.5563 53.7253 51.7541 55.3237 51.1754C57.9877 50.2139 60.0698 49.7576 60.0698 48.6033C60.0668 47.4489 58.2663 47.9327 55.2839 46.9865Z" fill="#FFCF06"/>
<path d="M48.1859 16.4335C48.1859 19.128 51.0428 21.3113 48.3482 21.3113C46.7713 21.3113 45.3076 19.128 45.3076 16.4335C45.3076 13.7389 46.7376 11.5557 48.3482 11.5557C51.0428 11.5557 48.1859 13.7389 48.1859 16.4335Z" fill="#FFDF57"/>
<path d="M28.4084 24.5781C28.093 24.3729 27.6704 24.4617 27.4653 24.7771L24.9361 28.672L25.1596 28.3137C24.9851 28.5954 24.6115 28.6812 24.3298 28.5036C24.0542 28.3321 23.9685 27.9708 24.1307 27.6921L26.2007 24.5199C26.5314 24.0116 26.3875 23.3318 25.8792 22.9981C25.3709 22.6674 24.6911 22.8113 24.3573 23.3196L22.2721 26.5133C22.0976 26.795 21.724 26.8807 21.4454 26.7031C21.1636 26.5286 21.0779 26.1581 21.2524 25.8764L23.5459 22.3612C23.7511 22.0458 23.6623 21.6232 23.3469 21.4181C23.0315 21.2129 22.6089 21.3017 22.4038 21.6171L19.9358 25.414L19.9143 25.4017L19.204 26.5408L19.0202 26.8256C19.0019 26.8531 18.9866 26.8838 18.9712 26.9144L18.9253 26.9879L18.9406 26.9971C18.3313 28.2127 18.4599 29.6335 19.1978 30.7082C19.1366 30.7725 19.0815 30.843 19.0355 30.9195L10.8508 44.0342C10.4527 44.6711 10.6487 45.5131 11.2856 45.9112C11.9225 46.3092 12.7645 46.1133 13.1626 45.4764L21.3443 32.3617C21.3749 32.3127 21.4025 32.2607 21.4239 32.2086C22.7865 32.5087 24.2471 32.0065 25.1228 30.8552L25.1382 30.8644L25.2545 30.6807L28.6105 25.5212C28.8126 25.2027 28.7238 24.7832 28.4084 24.5781Z" fill="#FFCF06"/>
<path d="M72.7338 26.6697C72.8134 26.8443 72.8961 27.0096 72.9788 27.1719C73.0124 27.2944 73.0553 27.4169 73.1104 27.5363L74.5955 30.7759C75.1314 31.9456 76.4572 32.5029 77.6514 32.1109L83.0283 43.8415C83.3498 44.5397 84.1735 44.8459 84.8747 44.5274C85.5729 44.2059 85.8791 43.3822 85.5606 42.681L80.3919 31.4097L79.1457 28.6907L78.9742 28.3202C78.5608 27.4169 78.1015 26.4156 77.6575 25.451C77.5228 25.1601 77.3911 24.8723 77.2625 24.5906C75.8907 21.6021 74.1362 17.7715 74.1362 17.7715C74.1362 17.7715 69.8524 20.3895 72.7338 26.6697Z" fill="#FFCF06"/>
</svg>
