<svg width="96" height="96" viewBox="0 0 96 96" fill="none" xmlns="http://www.w3.org/2000/svg">
<circle cx="48" cy="48" r="48" fill="#FBCD6D"/>
<path d="M51.8793 85.1429C52.3582 86.192 53.5507 86.6937 54.6226 86.3353C54.8605 87.2053 55.6131 87.8797 56.5677 87.9709C57.4572 88.0556 58.275 87.606 58.7051 86.8827C59.6434 87.2672 60.7577 86.9739 61.3735 86.1105C62.0903 85.1038 61.8557 83.706 60.8489 82.9892L58.9103 81.6078C58.7702 81.5068 58.6204 81.4286 58.4705 81.3667C58.0632 81.1516 57.5517 81.0018 56.9913 80.9464C56.496 80.9008 56.0269 80.9366 55.6196 81.0343C55.5903 81.0409 55.561 81.0474 55.5316 81.0539C55.5219 81.0571 55.5121 81.0604 55.5023 81.0604C55.4371 81.0767 55.3752 81.0962 55.3133 81.1191C55.3068 81.1223 55.3003 81.1256 55.2905 81.1288C55.2449 81.1451 55.1993 81.1614 55.1537 81.1842L55.1439 81.1875C55.1244 81.1972 55.1048 81.207 55.0853 81.2135L52.9903 82.1714C51.8597 82.6895 51.3645 84.0188 51.8793 85.1429Z" fill="#B59F43"/>
<path d="M60.8425 82.338L58.9039 80.9566C58.8192 80.8947 58.728 80.8425 58.6368 80.7969L58.4836 76.734C58.5325 76.0824 58.047 75.5122 57.3954 75.4633C56.7438 75.4145 56.1736 75.8999 56.1247 76.5516L55.3591 80.4516C55.3428 80.4581 55.3232 80.4613 55.3069 80.4679C55.3004 80.4711 55.2939 80.4744 55.2841 80.4776C55.2385 80.4939 55.1929 80.5102 55.1473 80.533L55.1375 80.5363C55.118 80.5461 55.0984 80.5558 55.0789 80.5623L52.9839 81.5202C51.8598 82.035 51.3646 83.3611 51.8794 84.4851C52.3583 85.5343 53.5508 86.036 54.6227 85.6776C54.8606 86.5476 55.6132 87.222 56.5678 87.3132C57.4573 87.3979 58.2751 86.9483 58.7052 86.225C59.6435 86.6095 60.7578 86.3162 61.3736 85.4528C62.0839 84.4526 61.8493 83.0548 60.8425 82.338Z" fill="#FFDF57"/>
<path d="M43.5774 85.1429C43.0984 86.192 41.9059 86.6937 40.834 86.3353C40.5962 87.2053 39.8435 87.8797 38.8889 87.9709C37.9994 88.0556 37.1816 87.606 36.7516 86.8827C35.8132 87.2672 34.6989 86.9739 34.0831 86.1105C33.3663 85.1038 33.6009 83.706 34.6077 82.9892L36.5463 81.6078C36.6864 81.5068 36.8363 81.4286 36.9861 81.3667C37.3934 81.1516 37.9049 81.0018 38.4653 80.9464C38.9606 80.9008 39.4298 80.9366 39.837 81.0343C39.8663 81.0409 39.8957 81.0474 39.925 81.0539C39.9348 81.0571 39.9445 81.0604 39.9543 81.0604C40.0195 81.0767 40.0814 81.0962 40.1433 81.1191C40.1498 81.1223 40.1563 81.1256 40.1661 81.1288C40.2117 81.1451 40.2573 81.1614 40.3029 81.1842L40.3127 81.1875C40.3323 81.1972 40.3518 81.207 40.3714 81.2135L42.4663 82.1714C43.5969 82.6895 44.0922 84.0188 43.5774 85.1429Z" fill="#B59F43"/>
<path d="M42.4722 81.5265L40.3772 80.5686C40.3577 80.5589 40.3381 80.5491 40.3186 80.5426L40.3088 80.5393C40.2632 80.5198 40.2176 80.5035 40.172 80.4839C40.1654 80.4807 40.1589 80.4774 40.1491 80.4741C40.1329 80.4676 40.1133 80.4644 40.097 80.4579L39.3313 76.5579C39.2825 75.9062 38.7123 75.4175 38.0607 75.4696C37.409 75.5185 36.9203 76.0887 36.9725 76.7403L36.8193 80.8032C36.7281 80.8488 36.6369 80.901 36.5522 80.9629L34.6136 82.3443C33.6068 83.0611 33.3722 84.4589 34.089 85.4656C34.7048 86.329 35.8158 86.6223 36.7574 86.2378C37.1842 86.9611 38.002 87.4107 38.8948 87.326C39.8461 87.2348 40.5988 86.5604 40.8399 85.6904C41.9118 86.0488 43.101 85.5471 43.5832 84.498C44.0915 83.3674 43.5963 82.0381 42.4722 81.5265Z" fill="#FFDF57"/>
<path d="M73.7122 50.4149C72.8129 35.5969 61.4257 17.7031 47.5069 17.7031C33.5881 17.7031 22.2009 35.5969 21.3017 50.4149C19.7508 53.4319 18.8906 56.5435 18.8906 59.44C18.8906 70.6186 31.7049 79.6795 47.5102 79.6795C63.3154 79.6795 76.1297 70.6186 76.1297 59.44C76.1232 56.5435 75.263 53.4319 73.7122 50.4149Z" fill="#FFF8DC"/>
<path d="M53.9262 47.0194C55.3783 47.0194 56.5555 45.8422 56.5555 44.3901C56.5555 42.9379 55.3783 41.7607 53.9262 41.7607C52.4741 41.7607 51.2969 42.9379 51.2969 44.3901C51.2969 45.8422 52.4741 47.0194 53.9262 47.0194Z" fill="#443E3E"/>
<path d="M43.7172 47.0194C45.1693 47.0194 46.3465 45.8422 46.3465 44.3901C46.3465 42.9379 45.1693 41.7607 43.7172 41.7607C42.2651 41.7607 41.0879 42.9379 41.0879 44.3901C41.0879 45.8422 42.2651 47.0194 43.7172 47.0194Z" fill="#443E3E"/>
<path d="M48.2148 17.7031C48.2148 19.7102 46.0872 21.336 48.0942 21.336C49.2704 21.336 50.3586 19.7102 50.3586 17.7031C50.3586 15.6961 49.2932 14.0703 48.0942 14.0703C46.0872 14.0703 48.2148 15.6961 48.2148 17.7031Z" fill="#F7D857"/>
<path d="M54.1539 49.4409C52.5835 48.9424 50.5374 47.7988 48.589 47.7988C46.6407 47.7988 44.5945 48.9457 43.0241 49.4409C39.8474 50.4477 37.9316 49.2813 37.9316 50.5096C37.9316 51.7412 40.1472 53.0738 42.9818 54.0968C44.6825 54.7126 46.3833 55.5662 48.589 55.5662C50.7948 55.5662 52.4955 54.7126 54.1963 54.0968C57.0309 53.0738 59.2464 51.7412 59.2464 50.5096C59.2464 49.2813 57.3306 50.4477 54.1539 49.4409Z" fill="#FFB808"/>
<path d="M54.1539 48.7893C52.5835 48.2908 50.5374 47.7988 48.589 47.7988C46.6407 47.7988 44.5945 48.2941 43.0241 48.7893C39.8474 49.7961 37.9316 49.2813 37.9316 50.5096C37.9316 51.7412 40.1472 52.2234 42.9818 53.2464C44.6825 53.8622 46.3833 54.7159 48.589 54.7159C50.7948 54.7159 52.4955 53.8622 54.1963 53.2464C57.0309 52.2234 59.2464 51.7379 59.2464 50.5096C59.2464 49.2813 57.3306 49.7961 54.1539 48.7893Z" fill="#FFCF06"/>
<path d="M46.6037 16.2791C46.6037 19.1463 49.6435 21.4693 46.7764 21.4693C45.0984 21.4693 43.541 19.1463 43.541 16.2791C43.541 13.4119 45.0626 11.0889 46.7764 11.0889C49.6435 11.0889 46.6037 13.4119 46.6037 16.2791Z" fill="#FFDF57"/>
<path d="M75.7311 46.0158L75.428 46.0972C72.9649 46.7586 70.4333 45.2957 69.7719 42.8326L67.993 36.1925C67.3316 33.7293 68.7945 31.1977 71.2576 30.5363L71.5606 30.4549C74.0238 29.7935 76.5554 31.2564 77.2168 33.7195L78.9957 40.3596C79.6571 42.826 78.1942 45.3576 75.7311 46.0158Z" fill="#FFE5A4"/>
<path d="M74.0801 48.4692L72.4542 48.9058C71.3497 49.2023 70.2126 48.5474 69.9162 47.4397L65.8174 32.1329C65.5209 31.0284 66.1758 29.8913 67.2836 29.5948L68.9094 29.1582C70.0139 28.8617 71.151 29.5166 71.4475 30.6244L75.5495 45.9312C75.8427 47.0357 75.1846 48.1728 74.0801 48.4692Z" fill="#FFE5A4"/>
<path d="M19.5447 45.423L19.8477 45.5044C22.3109 46.1659 24.8425 44.7029 25.5039 42.2398L27.2828 35.5997C27.9442 33.1365 26.4813 30.605 24.0182 29.9436L23.7152 29.8621C21.252 29.2007 18.7204 30.6636 18.059 33.1268L16.2801 39.7669C15.6187 42.23 17.0816 44.7616 19.5447 45.423Z" fill="#FFE5A4"/>
<path d="M21.1974 47.8735L22.8232 48.3101C23.9277 48.6066 25.0648 47.9517 25.3613 46.844L29.4633 31.5372C29.7598 30.4327 29.1049 29.2956 27.9972 28.9991L26.3714 28.5625C25.2668 28.266 24.1297 28.9209 23.8333 30.0287L19.7313 45.3354C19.4348 46.4432 20.0929 47.5771 21.1974 47.8735Z" fill="#FFE5A4"/>
<path d="M58.0431 79.6755H39.2111C38.5464 79.6755 37.6993 79.2389 37.5755 78.584L34.8191 66.9785C34.7116 66.4084 35.1482 65.8838 35.7281 65.8838H61.4512C62.0311 65.8838 62.4677 66.4116 62.3602 66.9785L59.6233 78.4537C59.4963 79.1086 58.7078 79.6755 58.0431 79.6755Z" fill="#EADAB2"/>
<path d="M58.2444 79.6758H38.9302C38.1645 79.6758 37.5454 79.0567 37.5454 78.2911L36.2422 64.8154C36.2422 64.0497 36.8612 63.4307 37.6269 63.4307H59.5477C60.3134 63.4307 60.9324 64.0497 60.9324 64.8154L59.6291 78.2911C59.6291 79.0567 59.0101 79.6758 58.2444 79.6758Z" fill="#FFEEC0"/>
<path d="M51.6572 71.8984C51.6572 71.465 51.3575 69.8164 49.7089 69.8164C49.2788 69.8164 48.8845 69.9793 48.5652 70.2465C48.246 69.9826 47.8517 69.8164 47.4216 69.8164C46.3693 69.8164 45.5156 70.7547 45.5156 71.9114C45.5156 72.2046 45.571 72.4848 45.672 72.7357C45.9131 73.6284 47.1154 74.3094 48.562 74.3094C50.0021 74.3094 51.0284 73.648 51.3216 73.2049C51.6572 72.7096 51.6572 72.3317 51.6572 71.8984Z" fill="white"/>
<path d="M48.6361 71.387C48.509 71.5466 48.3428 71.4945 48.2321 71.387C48.118 71.2794 48.421 70.4193 48.3493 69.9273C48.3396 69.4516 47.6195 69.0281 47.6684 68.9043C47.7173 68.7804 48.0268 68.7283 48.3005 68.9043C48.5742 69.0802 48.8804 69.3246 48.8804 69.8882C48.8804 70.4519 48.7631 71.2273 48.6361 71.387Z" fill="white"/>
<path d="M69.317 59.4849C65.0098 64.2548 59.725 66.0729 59.2461 68.409C59.3275 69.4776 62.3641 69.1421 62.6248 69.331C63.1559 69.709 60.924 69.9012 61.2433 70.3313C61.5626 70.7614 63.423 71.0448 63.7814 71.299C64.3907 71.7355 63.1591 71.6899 63.5599 71.9604C64.003 72.2601 71.1807 72.7749 75.4717 70.3606C81.2614 67.0992 83.591 64.7827 83.2554 59.3969C83.0338 55.8521 74.82 48.5538 71.298 50.5739C67.7727 52.5907 71.2067 57.3899 69.317 59.4849Z" fill="#FFEEC0"/>
<path d="M28.0721 59.4852C32.3794 64.2552 37.6641 66.0732 38.143 68.4093C38.0616 69.478 35.025 69.1424 34.7643 69.3314C34.2332 69.7093 36.4651 69.9015 36.1458 70.3316C35.8265 70.7617 33.9661 71.0451 33.6077 71.2993C32.9984 71.7359 34.23 71.6903 33.8292 71.9607C33.3861 72.2604 26.2084 72.7752 21.9175 70.3609C16.1277 67.0963 13.8014 64.7797 14.137 59.394C14.3586 55.8492 22.5723 48.5509 26.0944 50.571C29.6132 52.591 26.1791 57.3903 28.0721 59.4852Z" fill="#FFEEC0"/>
</svg>
