<svg width="96" height="96" viewBox="0 0 96 96" fill="none" xmlns="http://www.w3.org/2000/svg">
<circle cx="48" cy="48" r="48" fill="#FBCD6D"/>
<path d="M35.5289 79.4041L36.9813 75.5199C35.8821 75.1084 35.3232 73.8833 35.7347 72.7841L19.1784 66.5908C18.767 67.6901 17.5418 68.2489 16.4426 67.8375L14.9902 71.7217C16.0895 72.1331 16.6483 73.3582 16.2369 74.4575L32.7931 80.6507C33.2046 79.5515 34.4297 78.9926 35.5289 79.4041Z" fill="#D6D6D6"/>
<path d="M33.6198 78.2465L34.7835 75.1391C33.9023 74.8106 33.4571 73.8311 33.7856 72.9498L20.5425 67.9971C20.2139 68.8783 19.2344 69.3235 18.3532 68.995L17.1895 72.1024C18.0707 72.4309 18.5159 73.4104 18.1874 74.2916L31.4305 79.2444C31.7621 78.3631 32.7416 77.9179 33.6198 78.2465Z" fill="#B2B2B2"/>
<path d="M25.9865 75.8577C27.2227 75.8577 28.2249 74.8555 28.2249 73.6193C28.2249 72.383 27.2227 71.3809 25.9865 71.3809C24.7502 71.3809 23.748 72.383 23.748 73.6193C23.748 74.8555 24.7502 75.8577 25.9865 75.8577Z" fill="white"/>
<path d="M23.7411 71.045L20.7617 69.9307L20.4874 70.664L23.4668 71.7783L23.7411 71.045Z" fill="white"/>
<path d="M22.872 73.3702L19.8926 72.2559L19.6183 72.9892L22.5977 74.1035L22.872 73.3702Z" fill="white"/>
<path d="M32.3876 74.2784L29.4082 73.1641L29.1339 73.8974L32.1133 75.0117L32.3876 74.2784Z" fill="white"/>
<path d="M31.5184 76.6036L28.5391 75.4893L28.2648 76.2226L31.2442 77.3369L31.5184 76.6036Z" fill="white"/>
<path d="M54.2738 81.6091C54.7251 82.5978 55.849 83.0706 56.8592 82.7329C57.0833 83.5527 57.7926 84.1883 58.6923 84.2743C59.5305 84.3541 60.3012 83.9304 60.7065 83.2487C61.5908 83.611 62.641 83.3347 63.2213 82.521C63.8968 81.5722 63.6757 80.255 62.7269 79.5794L60.9 78.2775C60.7679 78.1824 60.6267 78.1087 60.4854 78.0503C60.1016 77.8477 59.6196 77.7064 59.0914 77.6542C58.6247 77.6112 58.1826 77.645 57.7987 77.7371C57.7711 77.7433 57.7435 77.7494 57.7158 77.7555C57.7066 77.7586 57.6974 77.7617 57.6882 77.7617C57.6268 77.777 57.5685 77.7955 57.5101 77.817C57.504 77.82 57.4978 77.8231 57.4886 77.8262C57.4456 77.8415 57.4026 77.8569 57.3597 77.8784L57.3504 77.8814C57.332 77.8907 57.3136 77.8999 57.2952 77.906L55.3208 78.8087C54.2554 79.3 53.7886 80.5497 54.2738 81.6091Z" fill="#B59F43"/>
<path d="M62.7209 78.9654L60.8939 77.6635C60.8141 77.6051 60.7281 77.556 60.6422 77.513L60.4978 73.6841C60.5439 73.07 60.0864 72.5326 59.4723 72.4866C58.8582 72.4405 58.3209 72.898 58.2748 73.5121L57.5532 77.1876C57.5379 77.1937 57.5194 77.1968 57.5041 77.2029C57.4979 77.206 57.4918 77.2091 57.4826 77.2121C57.4396 77.2275 57.3966 77.2428 57.3536 77.2643L57.3444 77.2674C57.326 77.2766 57.3076 77.2858 57.2892 77.292L55.3148 78.1947C54.2555 78.6798 53.7888 79.9295 54.2739 80.9889C54.7253 81.9776 55.8491 82.4504 56.8593 82.1127C57.0834 82.9325 57.7927 83.5681 58.6924 83.6541C59.5306 83.7339 60.3013 83.3102 60.7066 82.6285C61.591 82.9908 62.6411 82.7145 63.2214 81.9008C63.8908 80.9582 63.6697 79.6409 62.7209 78.9654Z" fill="#FFDF57"/>
<path d="M46.4501 81.6091C45.9987 82.5978 44.8749 83.0706 43.8647 82.7329C43.6406 83.5527 42.9313 84.1883 42.0316 84.2743C41.1934 84.3541 40.4227 83.9304 40.0173 83.2487C39.133 83.611 38.0829 83.3347 37.5026 82.521C36.8271 81.5722 37.0481 80.255 37.9969 79.5794L39.8239 78.2775C39.9559 78.1824 40.0972 78.1087 40.2384 78.0503C40.6222 77.8477 41.1043 77.7064 41.6324 77.6542C42.0992 77.6112 42.5413 77.645 42.9251 77.7371C42.9528 77.7433 42.9804 77.7494 43.008 77.7555C43.0172 77.7586 43.0265 77.7617 43.0357 77.7617C43.0971 77.777 43.1554 77.7955 43.2138 77.817C43.2199 77.82 43.226 77.8231 43.2352 77.8262C43.2782 77.8415 43.3212 77.8569 43.3642 77.8784L43.3734 77.8814C43.3918 77.8907 43.4103 77.8999 43.4287 77.906L45.403 78.8087C46.4685 79.3 46.9352 80.5497 46.4501 81.6091Z" fill="#B59F43"/>
<path d="M45.4089 78.201L43.4345 77.2982C43.4161 77.289 43.3977 77.2798 43.3793 77.2737L43.3701 77.2706C43.3271 77.2522 43.2841 77.2368 43.2411 77.2184C43.235 77.2153 43.2288 77.2122 43.2196 77.2092C43.2043 77.203 43.1858 77.2 43.1705 77.1938L42.4489 73.5184C42.4029 72.9043 41.8655 72.4437 41.2514 72.4929C40.6373 72.5389 40.1767 73.0763 40.2259 73.6904L40.0815 77.5193C39.9956 77.5623 39.9096 77.6114 39.8298 77.6697L38.0028 78.9716C37.054 79.6472 36.8329 80.9644 37.5084 81.9132C38.0888 82.7269 39.1358 83.0032 40.0232 82.6409C40.4254 83.3226 41.1961 83.7463 42.0375 83.6665C42.9341 83.5805 43.6433 82.9449 43.8706 82.1251C44.8808 82.4628 46.0015 81.99 46.4559 81.0013C46.9349 79.9358 46.4682 78.6861 45.4089 78.201Z" fill="#FFDF57"/>
<path d="M39.8071 58.1597C32.3181 67.0857 29.1186 76.5583 25.2006 73.2728C21.2826 69.9843 17.3155 61.9365 21.9674 50.6093C26.4626 39.6598 32.4962 35.097 36.7703 35.1738C41.4437 35.2567 47.2992 49.2337 39.8071 58.1597Z" fill="#FFEEC0"/>
<path d="M74.8501 48.8808C74.0027 34.916 63.2712 18.0527 50.1539 18.0527C37.0367 18.0527 26.3052 34.916 25.4577 48.8808C23.9962 51.7241 23.1855 54.6564 23.1855 57.3861C23.1855 67.9211 35.2619 76.4602 50.157 76.4602C65.0521 76.4602 77.1284 67.9211 77.1284 57.3861C77.1223 54.6564 76.3117 51.7241 74.8501 48.8808Z" fill="#FFF8DC"/>
<path d="M56.2025 45.6814C57.571 45.6814 58.6804 44.572 58.6804 43.2035C58.6804 41.835 57.571 40.7256 56.2025 40.7256C54.834 40.7256 53.7246 41.835 53.7246 43.2035C53.7246 44.572 54.834 45.6814 56.2025 45.6814Z" fill="#443E3E"/>
<path d="M46.5834 45.6814C47.9519 45.6814 49.0613 44.572 49.0613 43.2035C49.0613 41.835 47.9519 40.7256 46.5834 40.7256C45.2149 40.7256 44.1055 41.835 44.1055 43.2035C44.1055 44.572 45.2149 45.6814 46.5834 45.6814Z" fill="#443E3E"/>
<path d="M50.8203 18.0525C50.8203 19.944 48.8153 21.4762 50.7067 21.4762C51.8152 21.4762 52.8407 19.944 52.8407 18.0525C52.8407 16.1611 51.8366 14.6289 50.7067 14.6289C48.8153 14.6289 50.8203 16.1611 50.8203 18.0525Z" fill="#F7D857"/>
<path d="M56.417 47.9626C54.937 47.4928 53.0087 46.415 51.1726 46.415C49.3364 46.415 47.4081 47.4959 45.9281 47.9626C42.9344 48.9114 41.1289 47.8121 41.1289 48.9697C41.1289 50.1304 43.2169 51.3862 45.8882 52.3504C47.491 52.9307 49.0938 53.7352 51.1726 53.7352C53.2513 53.7352 54.8541 52.9307 56.4569 52.3504C59.1283 51.3862 61.2162 50.1304 61.2162 48.9697C61.2162 47.8121 59.4108 48.9114 56.417 47.9626Z" fill="#FFB808"/>
<path d="M56.417 47.3485C54.937 46.8787 53.0087 46.415 51.1726 46.415C49.3364 46.415 47.4081 46.8818 45.9281 47.3485C42.9344 48.2973 41.1289 47.8121 41.1289 48.9697C41.1289 50.1304 43.2169 50.5848 45.8882 51.5489C47.491 52.1293 49.0938 52.9338 51.1726 52.9338C53.2513 52.9338 54.8541 52.1293 56.4569 51.5489C59.1283 50.5848 61.2162 50.1273 61.2162 48.9697C61.2162 47.8121 59.4108 48.2973 56.417 47.3485Z" fill="#FFCF06"/>
<path d="M49.3043 16.7107C49.3043 19.4127 52.1691 21.602 49.467 21.602C47.8857 21.602 46.418 19.4127 46.418 16.7107C46.418 14.0086 47.8519 11.8193 49.467 11.8193C52.1691 11.8193 49.3043 14.0086 49.3043 16.7107Z" fill="#FFDF57"/>
<path d="M66.3307 59.2464C67.1854 59.2464 67.8783 58.5536 67.8783 57.6989C67.8783 56.8442 67.1854 56.1514 66.3307 56.1514C65.4761 56.1514 64.7832 56.8442 64.7832 57.6989C64.7832 58.5536 65.4761 59.2464 66.3307 59.2464Z" fill="#E5BB0A"/>
<path d="M62.8952 57.0023C63.7499 57.0023 64.4427 56.3095 64.4427 55.4548C64.4427 54.6001 63.7499 53.9072 62.8952 53.9072C62.0405 53.9072 61.3477 54.6001 61.3477 55.4548C61.3477 56.3095 62.0405 57.0023 62.8952 57.0023Z" fill="#EFC90A"/>
<path d="M60.3132 59.5082C61.1678 59.5082 61.8607 58.8153 61.8607 57.9606C61.8607 57.1059 61.1678 56.4131 60.3132 56.4131C59.4585 56.4131 58.7656 57.1059 58.7656 57.9606C58.7656 58.8153 59.4585 59.5082 60.3132 59.5082Z" fill="#EFC90A"/>
<path d="M59.1096 56.9223C59.7116 56.9223 60.1996 56.4342 60.1996 55.8322C60.1996 55.2302 59.7116 54.7422 59.1096 54.7422C58.5076 54.7422 58.0195 55.2302 58.0195 55.8322C58.0195 56.4342 58.5076 56.9223 59.1096 56.9223Z" fill="#E5BB0A"/>
<path d="M62.5295 58.6976C63.1315 58.6976 63.6195 58.2096 63.6195 57.6076C63.6195 57.0056 63.1315 56.5176 62.5295 56.5176C61.9275 56.5176 61.4395 57.0056 61.4395 57.6076C61.4395 58.2096 61.9275 58.6976 62.5295 58.6976Z" fill="#EFC90A"/>
<path d="M65.0666 56.7748C65.6686 56.7748 66.1566 56.2868 66.1566 55.6848C66.1566 55.0828 65.6686 54.5947 65.0666 54.5947C64.4646 54.5947 63.9766 55.0828 63.9766 55.6848C63.9766 56.2868 64.4646 56.7748 65.0666 56.7748Z" fill="#E5BB0A"/>
<path d="M63.9748 59.3695C64.5768 59.3695 65.0648 58.8815 65.0648 58.2795C65.0648 57.6775 64.5768 57.1895 63.9748 57.1895C63.3728 57.1895 62.8848 57.6775 62.8848 58.2795C62.8848 58.8815 63.3728 59.3695 63.9748 59.3695Z" fill="#EFC90A"/>
<path d="M61.0271 55.682C61.3645 55.682 61.6381 55.4085 61.6381 55.071C61.6381 54.7335 61.3645 54.46 61.0271 54.46C60.6896 54.46 60.416 54.7335 60.416 55.071C60.416 55.4085 60.6896 55.682 61.0271 55.682Z" fill="#E5BB0A"/>
<path d="M60.7668 56.9253C61.2518 56.9253 61.645 56.5321 61.645 56.0471C61.645 55.5621 61.2518 55.1689 60.7668 55.1689C60.2818 55.1689 59.8887 55.5621 59.8887 56.0471C59.8887 56.5321 60.2818 56.9253 60.7668 56.9253Z" fill="#EFC90A"/>
<path d="M61.7473 57.8804C62.2323 57.8804 62.6255 57.4872 62.6255 57.0022C62.6255 56.5172 62.2323 56.124 61.7473 56.124C61.2623 56.124 60.8691 56.5172 60.8691 57.0022C60.8691 57.4872 61.2623 57.8804 61.7473 57.8804Z" fill="#E5BB0A"/>
<path d="M64.4426 57.9077C64.9276 57.9077 65.3208 57.5145 65.3208 57.0295C65.3208 56.5445 64.9276 56.1514 64.4426 56.1514C63.9576 56.1514 63.5645 56.5445 63.5645 57.0295C63.5645 57.5145 63.9576 57.9077 64.4426 57.9077Z" fill="#E5BB0A"/>
<path d="M63.2668 58.2739C63.7518 58.2739 64.145 57.8807 64.145 57.3957C64.145 56.9107 63.7518 56.5176 63.2668 56.5176C62.7818 56.5176 62.3887 56.9107 62.3887 57.3957C62.3887 57.8807 62.7818 58.2739 63.2668 58.2739Z" fill="#EFC90A"/>
<path d="M63.343 58.2739C63.828 58.2739 64.2212 57.8807 64.2212 57.3957C64.2212 56.9107 63.828 56.5176 63.343 56.5176C62.858 56.5176 62.4648 56.9107 62.4648 57.3957C62.4648 57.8807 62.858 58.2739 63.343 58.2739Z" fill="#EFC90A"/>
<path d="M58.6243 58.0679C59.1093 58.0679 59.5024 57.6747 59.5024 57.1897C59.5024 56.7047 59.1093 56.3115 58.6243 56.3115C58.1393 56.3115 57.7461 56.7047 57.7461 57.1897C57.7461 57.6747 58.1393 58.0679 58.6243 58.0679Z" fill="#EFC90A"/>
<path d="M58.0188 59.1518C58.5038 59.1518 58.897 58.7587 58.897 58.2737C58.897 57.7887 58.5038 57.3955 58.0188 57.3955C57.5338 57.3955 57.1406 57.7887 57.1406 58.2737C57.1406 58.7587 57.5338 59.1518 58.0188 59.1518Z" fill="#E5BB0A"/>
<path d="M66.3734 69.3243H58.648C58.5098 69.3243 58.3931 69.2199 58.3777 69.0848L57.1895 58.6973H67.8349L66.6467 69.0848C66.6282 69.223 66.5116 69.3243 66.3734 69.3243Z" fill="white"/>
<path d="M59.6305 69.3243H58.648C58.5098 69.3243 58.3931 69.2199 58.3777 69.0848L57.1895 58.6973H59.6305V69.3243Z" fill="#EA3939"/>
<path d="M62.7528 58.6973H60.7324V69.3243H62.7528V58.6973Z" fill="#EA3939"/>
<path d="M65.7919 58.6973H63.7715V69.3243H65.7919V58.6973Z" fill="#EA3939"/>
<path d="M67.3249 63.125L66.9688 66.1955V58.6973H67.8316L67.3249 63.125Z" fill="#EA3939"/>
<path d="M68.0771 58.6976H56.9434C56.882 58.6976 56.8359 58.6485 56.8359 58.5902V58.2647C56.8359 58.2033 56.8851 58.1572 56.9434 58.1572H68.0771C68.1385 58.1572 68.1846 58.2064 68.1846 58.2647V58.5902C68.1846 58.6485 68.1385 58.6976 68.0771 58.6976Z" fill="black"/>
<path d="M70.0945 57.315C66.0353 61.8103 61.0549 63.5236 60.6035 65.7252C60.6803 66.7323 63.542 66.4161 63.7876 66.5942C64.2881 66.9503 62.1848 67.1315 62.4857 67.5368C62.7867 67.9421 64.5399 68.2093 64.8777 68.4488C65.4519 68.8602 64.2912 68.8172 64.6689 69.0721C65.0865 69.3546 71.8508 69.8397 75.8947 67.5644C81.351 64.4909 83.5464 62.3077 83.2302 57.2321C83.0214 53.8914 75.2806 47.0135 71.9614 48.9172C68.6421 50.8178 71.8785 55.3407 70.0945 57.315Z" fill="#FFEEC0"/>
</svg>
