<svg width="96" height="96" viewBox="0 0 96 96" fill="none" xmlns="http://www.w3.org/2000/svg">
<circle cx="48" cy="48" r="48" fill="#FBCD6D"/>
<path d="M58.6302 56.9271C58.6302 67.4653 55.3376 75.8897 59.9633 75.8897C64.589 75.8897 72.0197 72.6187 75.3802 62.065C78.6297 51.8663 77.1022 45.1977 74.0965 42.7661C70.8101 40.106 58.6302 46.3889 58.6302 56.9271Z" fill="#FFEEC0"/>
<path d="M39.4762 56.9271C39.4762 67.4653 42.7688 75.8897 38.1431 75.8897C33.5174 75.8897 26.0866 72.6187 22.7261 62.065C19.4767 51.8663 21.0042 45.1977 24.0098 42.7661C27.2932 40.106 39.4762 46.3889 39.4762 56.9271Z" fill="#FFEEC0"/>
<path d="M53.0658 81.6934C53.5194 82.687 54.6488 83.1622 55.6641 82.8228C55.8893 83.6467 56.6022 84.2855 57.5063 84.3719C58.3487 84.4521 59.1233 84.0263 59.5306 83.3412C60.4194 83.7053 61.4747 83.4276 62.058 82.6099C62.7368 81.6563 62.5147 80.3325 61.5611 79.6536L59.725 78.3452C59.5924 78.2495 59.4504 78.1755 59.3085 78.1168C58.9227 77.9132 58.4382 77.7712 57.9075 77.7188C57.4384 77.6756 56.9941 77.7095 56.6083 77.8021C56.5806 77.8083 56.5528 77.8144 56.525 77.8206C56.5157 77.8237 56.5065 77.8268 56.4972 77.8268C56.4355 77.8422 56.3769 77.8607 56.3183 77.8823C56.3121 77.8854 56.3059 77.8885 56.2967 77.8916C56.2535 77.907 56.2102 77.9224 56.167 77.944L56.1578 77.9471C56.1393 77.9564 56.1208 77.9656 56.1022 77.9718L54.118 78.8791C53.0472 79.3728 52.5782 80.6287 53.0658 81.6934Z" fill="#B59F43"/>
<path d="M61.5551 79.0368L59.719 77.7284C59.6388 77.6698 59.5524 77.6204 59.4659 77.5772L59.3209 73.7292C59.3672 73.112 58.9074 72.572 58.2902 72.5257C57.6731 72.4794 57.133 72.9392 57.0868 73.5563L56.3616 77.2501C56.3461 77.2563 56.3276 77.2594 56.3122 77.2656C56.306 77.2686 56.2999 77.2717 56.2906 77.2748C56.2474 77.2902 56.2042 77.3057 56.161 77.3273L56.1517 77.3304C56.1332 77.3396 56.1147 77.3489 56.0962 77.355L54.112 78.2623C53.0474 78.7499 52.5783 80.0058 53.0659 81.0704C53.5195 82.0641 54.6489 82.5393 55.6642 82.1998C55.8894 83.0238 56.6023 83.6625 57.5064 83.7489C58.3489 83.8292 59.1234 83.4033 59.5308 82.7183C60.4195 83.0824 61.4748 82.8047 62.0581 81.9869C62.7308 81.0396 62.5086 79.7157 61.5551 79.0368Z" fill="#FFDF57"/>
<path d="M45.2038 81.6934C44.7501 82.687 43.6207 83.1622 42.6055 82.8228C42.3802 83.6467 41.6674 84.2855 40.7632 84.3719C39.9208 84.4521 39.1462 84.0263 38.7389 83.3412C37.8502 83.7053 36.7948 83.4276 36.2116 82.6099C35.5327 81.6563 35.7549 80.3325 36.7084 79.6536L38.5445 78.3452C38.6772 78.2495 38.8191 78.1755 38.9611 78.1168C39.3468 77.9132 39.8313 77.7712 40.3621 77.7188C40.8311 77.6756 41.2755 77.7095 41.6612 77.8021C41.689 77.8083 41.7167 77.8144 41.7445 77.8206C41.7538 77.8237 41.763 77.8268 41.7723 77.8268C41.834 77.8422 41.8926 77.8607 41.9513 77.8823C41.9574 77.8854 41.9636 77.8885 41.9729 77.8916C42.0161 77.907 42.0593 77.9224 42.1025 77.944L42.1117 77.9471C42.1303 77.9564 42.1488 77.9656 42.1673 77.9718L44.1515 78.8791C45.2223 79.3728 45.6913 80.6287 45.2038 81.6934Z" fill="#B59F43"/>
<path d="M44.1573 78.2685L42.1731 77.3613C42.1546 77.352 42.1361 77.3428 42.1176 77.3366L42.1083 77.3335C42.0651 77.315 42.0219 77.2996 41.9787 77.2811C41.9726 77.278 41.9664 77.2749 41.9571 77.2718C41.9417 77.2656 41.9232 77.2626 41.9078 77.2564L41.1826 73.5626C41.1363 72.9454 40.5963 72.4826 39.9791 72.5319C39.3619 72.5782 38.899 73.1182 38.9484 73.7354L38.8034 77.5835C38.717 77.6267 38.6306 77.6761 38.5503 77.7347L36.7143 79.0431C35.7607 79.722 35.5385 81.0458 36.2174 81.9994C36.8007 82.8171 37.8529 83.0948 38.7448 82.7307C39.149 83.4158 39.9235 83.8416 40.7691 83.7614C41.6701 83.675 42.383 83.0362 42.6113 82.2123C43.6266 82.5517 44.7529 82.0765 45.2096 81.0829C45.691 80.0121 45.222 78.7561 44.1573 78.2685Z" fill="#FFDF57"/>
<path d="M73.7449 48.8024C72.8933 34.7679 62.1082 17.8203 48.9254 17.8203C35.7426 17.8203 24.9575 34.7679 24.1058 48.8024C22.6369 51.6599 21.8223 54.6069 21.8223 57.3502C21.8223 67.9378 33.959 76.5196 48.9285 76.5196C63.898 76.5196 76.0347 67.9378 76.0347 57.3502C76.0285 54.6069 75.2138 51.6599 73.7449 48.8024Z" fill="#FFF8DC"/>
<path d="M55.004 45.586C56.3793 45.586 57.4943 44.4711 57.4943 43.0958C57.4943 41.7204 56.3793 40.6055 55.004 40.6055C53.6286 40.6055 52.5137 41.7204 52.5137 43.0958C52.5137 44.4711 53.6286 45.586 55.004 45.586Z" fill="#443E3E"/>
<path d="M45.336 45.586C46.7113 45.586 47.8263 44.4711 47.8263 43.0958C47.8263 41.7204 46.7113 40.6055 45.336 40.6055C43.9606 40.6055 42.8457 41.7204 42.8457 43.0958C42.8457 44.4711 43.9606 45.586 45.336 45.586Z" fill="#443E3E"/>
<path d="M49.5945 17.8196C49.5945 19.7205 47.5794 21.2604 49.4803 21.2604C50.5943 21.2604 51.625 19.7205 51.625 17.8196C51.625 15.9188 50.6159 14.3789 49.4803 14.3789C47.5794 14.3789 49.5945 15.9188 49.5945 17.8196Z" fill="#F7D857"/>
<path d="M55.22 47.8824C53.7326 47.4103 51.7947 46.3271 49.9493 46.3271C48.104 46.3271 46.1661 47.4134 44.6787 47.8824C41.67 48.836 39.8555 47.7312 39.8555 48.8946C39.8555 50.061 41.9539 51.3232 44.6386 52.2921C46.2494 52.8753 47.8602 53.6838 49.9493 53.6838C52.0384 53.6838 53.6493 52.8753 55.2601 52.2921C57.9448 51.3232 60.0432 50.061 60.0432 48.8946C60.0432 47.7281 58.2287 48.8329 55.22 47.8824Z" fill="#FFB808"/>
<path d="M55.22 47.2652C53.7326 46.7931 51.7947 46.3271 49.9493 46.3271C48.104 46.3271 46.1661 46.7962 44.6787 47.2652C41.67 48.2188 39.8555 47.7312 39.8555 48.8946C39.8555 50.061 41.9539 50.5177 44.6386 51.4867C46.2494 52.0699 47.8602 52.8784 49.9493 52.8784C52.0384 52.8784 53.6493 52.0699 55.2601 51.4867C57.9448 50.5177 60.0432 50.058 60.0432 48.8946C60.0432 47.7281 58.2287 48.2157 55.22 47.2652Z" fill="#FFCF06"/>
<path d="M48.0706 16.4714C48.0706 19.187 50.9497 21.3872 48.2342 21.3872C46.645 21.3872 45.1699 19.187 45.1699 16.4714C45.1699 13.7559 46.611 11.5557 48.2342 11.5557C50.9497 11.5557 48.0706 13.7559 48.0706 16.4714Z" fill="#FFDF57"/>
<path d="M75.6572 44.6396L75.3702 44.7168C73.0373 45.3432 70.6396 43.9576 70.0132 41.6247L68.3283 35.3357C67.7019 33.0028 69.0874 30.6051 71.4203 29.9787L71.7073 29.9015C74.0402 29.2751 76.4379 30.6607 77.0644 32.9936L78.7493 39.2826C79.3726 41.6155 77.9901 44.0132 75.6572 44.6396Z" fill="#FFE5A4"/>
<path d="M74.0936 46.96L72.5538 47.3735C71.5077 47.6543 70.4307 47.034 70.1499 45.9848L66.2648 31.4875C65.984 30.4414 66.6043 29.3644 67.6534 29.0836L69.1933 28.6701C70.2394 28.3893 71.3164 29.0095 71.5972 30.0587L75.4823 44.5561C75.7631 45.6022 75.1397 46.6792 74.0936 46.96Z" fill="#FFE5A4"/>
<path d="M22.4418 44.0752L22.7288 44.1523C25.0617 44.7787 27.4594 43.3932 28.0859 41.0603L29.7707 34.7713C30.3972 32.4384 29.0116 30.0407 26.6787 29.4142L26.3917 29.3371C24.0588 28.7107 21.6611 30.0962 21.0347 32.4291L19.3498 38.7181C18.7234 41.051 20.1089 43.4518 22.4418 44.0752Z" fill="#FFE5A4"/>
<path d="M24.007 46.3985L25.5468 46.812C26.5929 47.0928 27.6699 46.4725 27.9507 45.4233L31.8358 30.9259C32.1166 29.8798 31.4963 28.8029 30.4472 28.5221L28.9073 28.1086C27.8612 27.8277 26.7842 28.448 26.5034 29.4972L22.6183 43.9946C22.3375 45.0407 22.9578 46.1176 24.007 46.3985Z" fill="#FFE5A4"/>
<path d="M26.8439 24.6624C27.675 24.3357 28.1622 23.5963 27.932 23.0111C27.7019 22.4259 26.8417 22.2163 26.0106 22.5431C25.1796 22.8699 24.6924 23.6092 24.9225 24.1944C25.1526 24.7797 26.0129 24.9892 26.8439 24.6624Z" fill="#FFA300"/>
<path d="M32.2033 23.7855C33.0344 23.4587 33.5215 22.7194 33.2914 22.1342C33.0613 21.5489 32.2011 21.3394 31.37 21.6662C30.5389 21.9929 30.0518 22.7322 30.2819 23.3175C30.512 23.9027 31.3722 24.1122 32.2033 23.7855Z" fill="#FFA300"/>
<path d="M27.9131 23.3771H27.2559V16.0112L27.9131 15.9062V17.6251V23.3771Z" fill="#FFA300"/>
<path d="M33.3467 22.3403H32.6895V14.9127L33.3467 14.709V17.3844V22.3403Z" fill="#FFA300"/>
<path d="M27.9137 15.9058L32.6906 14.9121V16.6618L27.5156 17.7634L27.5866 15.9582L27.9137 15.9058Z" fill="#FFA300"/>
<path d="M27.9137 18.1558L32.6906 17.1621V17.5756L27.5156 18.6742L27.5866 18.2082L27.9137 18.1558Z" fill="#FFA300"/>
<path d="M82.4948 49.9161C81.8036 49.2094 81.4271 48.3423 81.4271 48.3423H81.424C81.3808 48.1387 81.1802 48.009 80.9766 48.0522C80.7729 48.0955 80.6433 48.296 80.6865 48.4997H80.6834L82.356 56.3162C81.9023 56.2545 81.3592 56.3841 80.8655 56.7112C80.0045 57.2821 79.6311 58.2387 80.0323 58.8435C80.4335 59.4514 81.458 59.4792 82.322 58.9052C83.0132 58.4485 83.3866 57.7449 83.3033 57.171L83.3157 57.1679L82.3158 52.5021L82.2912 52.3848C82.248 52.1256 82.2109 51.5208 82.8435 51.4837C83.6489 51.4344 84.3124 52.9032 84.5747 53.3445C84.837 53.7858 85.0561 55.5169 85.016 55.7885C84.9759 56.0601 85.2814 56.0601 85.3338 55.9088C85.3863 55.7546 85.5683 55.1898 85.2505 53.6963C84.7722 51.6812 83.183 50.6228 82.4948 49.9161Z" fill="#FF7300"/>
</svg>
