<svg width="96" height="96" viewBox="0 0 96 96" fill="none" xmlns="http://www.w3.org/2000/svg">
<circle cx="48" cy="48" r="48" fill="#FBCD6D"/>
<path d="M31.1085 45.6161C25.5058 39.4461 20.5313 31.5681 19.3632 31.3852C18.1951 31.2052 17.6674 34.9658 16.7647 35.7862C16.3194 36.1888 16.237 33.8861 15.3586 34.5174C14.4803 35.1488 14.2515 37.4057 13.7208 39.0527C13.3762 40.1232 12.2599 37.7351 12.2569 41.5933C12.2538 44.631 12.4887 49.3065 14.3949 53.4789C19.0887 63.7419 25.0056 67.8654 29.0742 67.6305C33.521 67.3774 38.5778 53.8418 31.1085 45.6161Z" fill="#FFEEC0"/>
<path d="M71.4557 40.0231C67.3627 40.5934 59.3109 32.8191 57.9507 37.7143C56.5904 42.6094 61.4276 50.1824 71.6052 56.8404C79.3581 61.9155 85.1926 46.2022 84.8602 37.3269C84.8327 36.6041 84.8724 35.9056 84.4485 35.2377C84.0642 34.5332 83.9727 36.6986 83.6463 36.2228C83.384 35.8385 83.8324 33.3254 82.8808 32.6758C82.3105 32.2884 82.3196 33.9903 81.8377 33.975C81.243 33.9567 82.1061 31.0593 80.5384 30.0528C79.4161 29.333 74.7009 39.5717 71.4557 40.0231Z" fill="#FFEEC0"/>
<path d="M56.1758 24.6545C56.1758 24.6545 61.3607 20.592 67.9272 27.3415C74.4937 34.091 81.658 47.529 81.9599 55.3673C83.0701 66.5331 76.1315 71.6052 71.215 72.3036C66.2985 72.999 77.3576 68.5369 76.4883 67.7958C75.6191 67.0547 73.0785 70.1168 69.3484 71.7333C65.6184 73.3497 62.5135 71.9132 61.6657 70.4767C61.6657 70.4767 65.1182 69.0768 66.695 65.67C68.2718 62.2602 66.9786 43.6861 63.7335 39.2942C60.4884 34.9023 56.1758 24.6545 56.1758 24.6545Z" fill="url(#paint0_linear_300_7736)"/>
<path d="M51.6348 82.0697C52.0831 83.0518 53.1994 83.5215 54.2028 83.186C54.4255 84.0003 55.13 84.6317 56.0237 84.7171C56.8563 84.7964 57.6218 84.3755 58.0244 83.6984C58.9028 84.0583 59.9459 83.7838 60.5223 82.9755C61.1933 82.0331 60.9737 80.7247 60.0313 80.0537L58.2166 78.7605C58.0854 78.666 57.9451 78.5928 57.8048 78.5348C57.4236 78.3336 56.9447 78.1933 56.4201 78.1414C55.9566 78.0987 55.5174 78.1323 55.1361 78.2238C55.1087 78.2299 55.0812 78.236 55.0538 78.2421C55.0446 78.2451 55.0355 78.2482 55.0263 78.2482C54.9653 78.2634 54.9074 78.2817 54.8494 78.303C54.8433 78.3061 54.8372 78.3091 54.8281 78.3122C54.7854 78.3274 54.7427 78.3427 54.7 78.364L54.6908 78.3671C54.6725 78.3763 54.6542 78.3854 54.6359 78.3915L52.6748 79.2882C51.6165 79.7762 51.1529 81.0175 51.6348 82.0697Z" fill="#B59F43"/>
<path d="M60.0253 79.4463L58.2106 78.1532C58.1313 78.0952 58.0459 78.0464 57.9605 78.0037L57.8171 74.2005C57.8629 73.5905 57.4084 73.0567 56.7985 73.011C56.1885 72.9652 55.6547 73.4197 55.609 74.0297L54.8922 77.6804C54.877 77.6865 54.8587 77.6896 54.8434 77.6957C54.8373 77.6987 54.8313 77.7018 54.8221 77.7048C54.7794 77.7201 54.7367 77.7353 54.694 77.7567L54.6849 77.7597C54.6666 77.7689 54.6483 77.778 54.63 77.7841L52.6688 78.6808C51.6166 79.1627 51.153 80.404 51.6349 81.4562C52.0833 82.4383 53.1995 82.908 54.203 82.5725C54.4256 83.3868 55.1301 84.0182 56.0238 84.1036C56.8564 84.1829 57.6219 83.762 58.0245 83.0849C58.9029 83.4448 59.946 83.1703 60.5224 82.3621C61.1904 81.4227 60.9677 80.1173 60.0253 79.4463Z" fill="#FFDF57"/>
<path d="M43.866 82.0687C43.4176 83.0508 42.3014 83.5205 41.2979 83.185C41.0753 83.9993 40.3708 84.6307 39.4771 84.7161C38.6445 84.7954 37.879 84.3745 37.4764 83.6974C36.598 84.0573 35.5549 83.7828 34.9785 82.9746C34.3075 82.0321 34.5271 80.7237 35.4695 80.0527L37.2842 78.7596C37.4154 78.665 37.5557 78.5918 37.696 78.5339C38.0772 78.3326 38.556 78.1923 39.0806 78.1404C39.5442 78.0977 39.9834 78.1313 40.3647 78.2228C40.3921 78.2289 40.4196 78.235 40.447 78.2411C40.4562 78.2441 40.4653 78.2472 40.4745 78.2472C40.5355 78.2624 40.5934 78.2807 40.6513 78.3021C40.6574 78.3051 40.6635 78.3082 40.6727 78.3112C40.7154 78.3265 40.7581 78.3417 40.8008 78.3631L40.8099 78.3661C40.8282 78.3753 40.8465 78.3844 40.8648 78.3905L42.8259 79.2872C43.8812 79.7752 44.3448 81.0165 43.866 82.0687Z" fill="#B59F43"/>
<path d="M42.8299 78.6832L40.8688 77.7865C40.8505 77.7773 40.8322 77.7682 40.8139 77.7621L40.8047 77.759C40.762 77.7407 40.7193 77.7255 40.6766 77.7072C40.6705 77.7041 40.6644 77.7011 40.6553 77.698C40.64 77.6919 40.6217 77.6889 40.6065 77.6828L39.8897 74.032C39.844 73.422 39.3102 72.9645 38.7003 73.0133C38.0903 73.0591 37.6328 73.5928 37.6816 74.2028L37.5382 78.0061C37.4528 78.0488 37.3674 78.0976 37.2881 78.1555L35.4734 79.4487C34.531 80.1197 34.3114 81.4281 34.9824 82.3705C35.5588 83.1788 36.5988 83.4532 37.4803 83.0934C37.8798 83.7704 38.6454 84.1913 39.481 84.112C40.3716 84.0266 41.0761 83.3953 41.3018 82.581C42.3053 82.9165 43.4185 82.4468 43.8699 81.4647C44.3457 80.4064 43.8821 79.165 42.8299 78.6832Z" fill="#FFDF57"/>
<path d="M72.072 49.5598C71.2303 35.6887 60.5708 18.9385 47.5414 18.9385C34.5121 18.9385 23.8526 35.6887 23.0109 49.5598C21.5591 52.384 20.7539 55.2967 20.7539 58.0081C20.7539 68.4724 32.7493 76.9543 47.5445 76.9543C62.3397 76.9543 74.3351 68.4724 74.3351 58.0081C74.332 55.2967 73.5238 52.3871 72.072 49.5598Z" fill="#FFF8DC"/>
<path d="M53.5502 46.3816C54.9095 46.3816 56.0115 45.2796 56.0115 43.9203C56.0115 42.5609 54.9095 41.459 53.5502 41.459C52.1908 41.459 51.0889 42.5609 51.0889 43.9203C51.0889 45.2796 52.1908 46.3816 53.5502 46.3816Z" fill="#443E3E"/>
<path d="M43.9945 46.3816C45.3538 46.3816 46.4558 45.2796 46.4558 43.9203C46.4558 42.5609 45.3538 41.459 43.9945 41.459C42.6352 41.459 41.5332 42.5609 41.5332 43.9203C41.5332 45.2796 42.6352 46.3816 43.9945 46.3816Z" fill="#443E3E"/>
<path d="M53.7667 48.6504C52.2966 48.1838 50.3812 47.1133 48.5574 47.1133C46.7335 47.1133 44.8182 48.1869 43.3481 48.6504C40.3744 49.5929 38.5811 48.501 38.5811 49.6508C38.5811 50.8037 40.655 52.0511 43.3084 53.0088C44.9005 53.5852 46.4926 54.3843 48.5574 54.3843C50.6222 54.3843 52.2142 53.5852 53.8063 53.0088C56.4598 52.0511 58.5337 50.8037 58.5337 49.6508C58.5307 48.4979 56.7373 49.5898 53.7667 48.6504Z" fill="#FFB808"/>
<path d="M53.7667 48.0405C52.2966 47.5738 50.3812 47.1133 48.5574 47.1133C46.7335 47.1133 44.8182 47.5769 43.3481 48.0405C40.3744 48.9829 38.5811 48.501 38.5811 49.6508C38.5811 50.8037 40.655 51.2551 43.3084 52.2128C44.9005 52.7892 46.4926 53.5883 48.5574 53.5883C50.6222 53.5883 52.2142 52.7892 53.8063 52.2128C56.4598 51.2551 58.5337 50.8006 58.5337 49.6508C58.5307 48.4979 56.7373 48.9798 53.7667 48.0405Z" fill="#FFCF06"/>
<path d="M25.5814 51.5507C24.4804 51.5507 23.5898 50.6571 23.5898 49.5591V44.6762C23.5898 43.5751 24.4835 42.6846 25.5814 42.6846C26.6825 42.6846 27.5731 43.5782 27.5731 44.6762V49.5591C27.5731 50.6571 26.6825 51.5507 25.5814 51.5507Z" fill="#2B2B2B"/>
<path d="M22.6262 51.5511H20.6376C20.1069 51.5511 19.6738 51.1211 19.6738 50.5873V40.6171C19.6738 40.0864 20.1039 39.6533 20.6376 39.6533H22.6262C23.1568 39.6533 23.5899 40.0834 23.5899 40.6171V50.5873C23.5869 51.118 23.1568 51.5511 22.6262 51.5511Z" fill="#2B2B2B"/>
<path d="M20.5641 50.1814C20.5641 50.1814 20.3415 54.4513 22.1836 56.5893C23.6079 58.1509 26.1851 59.3983 30.7814 59.3983C43.0451 59.3983 42.6121 59.3983 42.6121 59.3983V58.3156C42.6121 58.3156 34.7829 58.3156 30.638 58.3156C26.4932 58.3156 24.0502 56.6869 23.3426 56.0434C22.4673 55.2504 21.7566 53.2283 21.8451 50.7762C21.9366 48.3271 20.5641 50.1814 20.5641 50.1814Z" fill="#2B2B2B"/>
<path d="M49.8375 61.0488H42.6152V56.9375H49.8375C49.8375 56.9375 52.3079 56.9375 52.3079 58.9932C52.3079 61.0488 49.8375 61.0488 49.8375 61.0488Z" fill="#2B2B2B"/>
<path d="M44.7227 59.9326L43.7803 58.9902L44.7227 58.0508L45.6651 58.9902L44.7227 59.9326Z" fill="url(#paint1_radial_300_7736)"/>
<path d="M46.6475 59.8043V58.1787H48.2761V59.8043H46.6475Z" fill="url(#paint2_radial_300_7736)"/>
<path d="M50.2001 59.9326L49.2607 58.9902L50.2001 58.0508L51.1425 58.9902L50.2001 59.9326Z" fill="url(#paint3_radial_300_7736)"/>
<path d="M36.3996 26.713C36.3996 26.713 31.7088 23.0927 25.8408 29.2108C19.9727 35.329 13.2964 44.7899 13.0768 51.8474C12.1527 61.9031 18.4325 66.4231 22.861 67.0178C27.2895 67.6125 17.3071 63.669 18.0848 62.998C18.8625 62.324 21.1683 65.0628 24.5384 66.4932C27.9086 67.9236 30.6902 66.6091 31.4435 65.3098C31.4435 65.3098 28.3265 64.0716 26.8869 61.0155C25.4473 57.9595 26.8076 43.9115 29.6989 39.9375C32.5903 35.9634 36.3996 26.713 36.3996 26.713Z" fill="url(#paint4_linear_300_7736)"/>
<path d="M48.0081 19.3441C47.6116 19.2831 47.5811 18.5908 47.5079 18.2309C47.4012 17.7063 47.3127 17.1848 47.3127 16.648C47.3158 15.7178 47.7184 14.8729 48.5449 14.5069C49.2281 14.205 50.323 14.2995 50.6097 15.1047C50.7317 15.4494 50.6707 15.7513 50.3718 16.0227C50.2071 16.1722 49.9753 16.3399 49.7618 16.407C49.4934 16.4924 49.7954 16.3613 49.7832 16.6114C49.8015 16.1996 49.4202 15.8489 49.0207 15.8489C48.5937 15.8489 48.2765 16.1996 48.2582 16.6114C48.2247 17.4105 48.9749 18.0022 49.7374 17.9503C50.3993 17.9076 51.1099 17.4745 51.5552 16.9957C52.5586 15.9099 52.2902 14.2507 51.1373 13.3907C50.0882 12.6099 48.5846 12.6648 47.4988 13.348C46.3154 14.0921 45.7664 15.3884 45.7908 16.7578C45.803 17.5355 45.9586 18.3163 46.1324 19.0727C46.3093 19.8413 46.7393 20.68 47.6055 20.8142C48.0112 20.8782 48.426 20.7105 48.5449 20.2805C48.6395 19.9206 48.4168 19.4082 48.0081 19.3441Z" fill="url(#paint5_linear_300_7736)"/>
<path d="M42.1373 19.3044C37.0836 21.2472 30.1572 23.7848 25.1187 39.6017C23.6395 44.8873 27.0463 36.9056 28.617 37.1892C30.1877 37.4729 27.6959 43.7557 28.617 44.7287C29.5381 45.7016 30.1847 42.1362 31.4168 42.3955C32.649 42.6547 32.1305 46.092 32.7131 46.3817C33.2956 46.6715 37.1812 38.8331 36.9891 35.5301C36.7969 32.227 40.832 28.988 41.5335 26.5907C42.2349 24.1935 40.5758 33.3494 41.567 36.6738C42.5582 39.9982 45.1903 40.6783 45.4709 40.1934C45.6387 39.7085 45.0165 38.0219 45.1995 37.296C45.3825 36.567 46.0199 38.4366 46.6573 38.7843C47.2948 39.132 53.9619 37.0184 51.6775 27.158C52.8914 26.2339 54.7183 28.6159 55.6119 31.9189C56.5086 35.222 56.4629 38.1225 58.5307 40.0653C60.5986 42.0081 62.09 43.3379 62.8982 43.1732C63.7065 43.0115 58.9455 38.3482 59.2048 37.6681C59.464 36.9879 65.4236 42.6882 64.6458 44.2742C63.8681 45.8602 70.8006 42.2003 65.942 36.0485C61.0835 29.8968 70.3797 40.8308 70.3797 40.8308C70.3797 40.8308 66.5368 25.5049 57.4236 20.988C51.9825 18.2919 47.1911 17.3616 42.1373 19.3044Z" fill="url(#paint6_linear_300_7736)"/>
<defs>
<linearGradient id="paint0_linear_300_7736" x1="66.127" y1="22.5304" x2="73.1419" y2="72.0345" gradientUnits="userSpaceOnUse">
<stop stop-color="#55FFFA"/>
<stop offset="1" stop-color="#219DA3"/>
</linearGradient>
<radialGradient id="paint1_radial_300_7736" cx="0" cy="0" r="1" gradientUnits="userSpaceOnUse" gradientTransform="translate(44.7224 58.9917) scale(0.941361)">
<stop stop-color="#55FFFA"/>
<stop offset="1" stop-color="#21E1A3"/>
</radialGradient>
<radialGradient id="paint2_radial_300_7736" cx="0" cy="0" r="1" gradientUnits="userSpaceOnUse" gradientTransform="translate(47.4639 58.9897) rotate(45) scale(1.15052)">
<stop stop-color="#55FFFA"/>
<stop offset="1" stop-color="#21E1A3"/>
</radialGradient>
<radialGradient id="paint3_radial_300_7736" cx="0" cy="0" r="1" gradientUnits="userSpaceOnUse" gradientTransform="translate(50.2016 58.9917) scale(0.941361)">
<stop stop-color="#55FFFA"/>
<stop offset="1" stop-color="#21E1A3"/>
</radialGradient>
<linearGradient id="paint4_linear_300_7736" x1="26.7654" y1="24.7737" x2="21.1281" y2="66.7822" gradientUnits="userSpaceOnUse">
<stop stop-color="#55FFFA"/>
<stop offset="1" stop-color="#219DA3"/>
</linearGradient>
<linearGradient id="paint5_linear_300_7736" x1="48.9812" y1="13.4273" x2="48.9812" y2="20.2328" gradientUnits="userSpaceOnUse">
<stop stop-color="#55FFFA"/>
<stop offset="0.4516" stop-color="#54FDF8"/>
<stop offset="0.6142" stop-color="#50F6F2"/>
<stop offset="0.7302" stop-color="#4AEBE8"/>
<stop offset="0.8239" stop-color="#41DAD9"/>
<stop offset="0.9042" stop-color="#35C4C5"/>
<stop offset="0.974" stop-color="#27A9AE"/>
<stop offset="1" stop-color="#219DA3"/>
</linearGradient>
<linearGradient id="paint6_linear_300_7736" x1="47.5674" y1="18.2714" x2="47.5674" y2="46.3909" gradientUnits="userSpaceOnUse">
<stop stop-color="#55FFFA"/>
<stop offset="0.2399" stop-color="#53FCF7"/>
<stop offset="0.434" stop-color="#4EF2EE"/>
<stop offset="0.6121" stop-color="#45E1DF"/>
<stop offset="0.7807" stop-color="#38C9CA"/>
<stop offset="0.941" stop-color="#28AAAF"/>
<stop offset="1" stop-color="#219DA3"/>
</linearGradient>
</defs>
</svg>
