<svg width="24" height="24" viewBox="0 0 24 24" fill="none" xmlns="http://www.w3.org/2000/svg">
<path d="M21 21L15.3333 15.3333M4 10.6111C4 11.4793 4.171 12.339 4.50324 13.1411C4.83548 13.9432 5.32245 14.672 5.93635 15.2859C6.55025 15.8998 7.27905 16.3867 8.08115 16.719C8.88325 17.0512 9.74293 17.2222 10.6111 17.2222C11.4793 17.2222 12.339 17.0512 13.1411 16.719C13.9432 16.3867 14.672 15.8998 15.2859 15.2859C15.8998 14.672 16.3867 13.9432 16.719 13.1411C17.0512 12.339 17.2222 11.4793 17.2222 10.6111C17.2222 9.74293 17.0512 8.88325 16.719 8.08115C16.3867 7.27905 15.8998 6.55025 15.2859 5.93635C14.672 5.32245 13.9432 4.83548 13.1411 4.50324C12.339 4.171 11.4793 4 10.6111 4C9.74293 4 8.88325 4.171 8.08115 4.50324C7.27905 4.83548 6.55025 5.32245 5.93635 5.93635C5.32245 6.55025 4.83548 7.27905 4.50324 8.08115C4.171 8.88325 4 9.74293 4 10.6111Z" stroke="black" stroke-opacity="0.87" stroke-width="1.5" stroke-linecap="round" stroke-linejoin="round"/>
</svg>
