<svg width="24" height="24" viewBox="0 0 24 24" fill="none" xmlns="http://www.w3.org/2000/svg">
<path d="M14.0938 17.8125C14.0938 18.2352 13.9258 18.6406 13.627 18.9395C13.3281 19.2383 12.9227 19.4062 12.5 19.4062C12.0773 19.4062 11.6719 19.2383 11.373 18.9395C11.0742 18.6406 10.9062 18.2352 10.9062 17.8125C10.9062 17.3898 11.0742 16.9844 11.373 16.6855C11.6719 16.3867 12.0773 16.2188 12.5 16.2188C12.9227 16.2188 13.3281 16.3867 13.627 16.6855C13.9258 16.9844 14.0938 17.3898 14.0938 17.8125ZM14.0938 12.5C14.0938 12.9227 13.9258 13.3281 13.627 13.627C13.3281 13.9258 12.9227 14.0938 12.5 14.0938C12.0773 14.0938 11.6719 13.9258 11.373 13.627C11.0742 13.3281 10.9062 12.9227 10.9062 12.5C10.9062 12.0773 11.0742 11.6719 11.373 11.373C11.6719 11.0742 12.0773 10.9062 12.5 10.9062C12.9227 10.9062 13.3281 11.0742 13.627 11.373C13.9258 11.6719 14.0938 12.0773 14.0938 12.5ZM14.0938 7.1875C14.0938 7.61019 13.9258 8.01557 13.627 8.31445C13.3281 8.61334 12.9227 8.78125 12.5 8.78125C12.0773 8.78125 11.6719 8.61334 11.373 8.31445C11.0742 8.01557 10.9062 7.61019 10.9062 7.1875C10.9062 6.76481 11.0742 6.35943 11.373 6.06055C11.6719 5.76166 12.0773 5.59375 12.5 5.59375C12.9227 5.59375 13.3281 5.76166 13.627 6.06055C13.9258 6.35943 14.0938 6.76481 14.0938 7.1875Z" fill="black"/>
</svg>
