<svg width="28" height="28" viewBox="0 0 28 28" fill="none" xmlns="http://www.w3.org/2000/svg">
<path fill-rule="evenodd" clip-rule="evenodd" d="M18.2 4.55C18.2 3.9701 18.6701 3.5 19.25 3.5C19.8299 3.5 20.3 3.9701 20.3 4.55L20.3 6.65C22.2803 6.65 23.2694 6.65 23.8847 7.2653C24.5 7.8806 24.5 8.8697 24.5 10.85C24.5 11.3445 24.5 11.5924 24.3467 11.7467C24.1923 11.9 23.9435 11.9 23.45 11.9H4.55C4.05545 11.9 3.80765 11.9 3.6533 11.7467C3.5 11.5924 3.5 11.3435 3.5 10.85C3.5 8.8697 3.5 7.8806 4.1153 7.2653C4.7306 6.65 5.7197 6.65 7.7 6.65V4.55C7.7 3.9701 8.1701 3.5 8.75 3.5C9.3299 3.5 9.8 3.9701 9.8 4.55V6.65H18.2V4.55ZM4.1153 23.8847C3.5 23.2694 3.5 22.2803 3.5 20.3V15.05C3.5 14.5565 3.5 14.3076 3.6533 14.1533C3.80765 14 4.05545 14 4.55 14H23.45C23.9435 14 24.1923 14 24.3467 14.1533C24.5 14.3076 24.5 14.5555 24.5 15.05V20.3C24.5 22.2803 24.5 23.2694 23.8847 23.8847C23.2694 24.5 22.2803 24.5 20.3 24.5H7.7C5.7197 24.5 4.7306 24.5 4.1153 23.8847ZM8.9033 16.2533C8.75 16.4076 8.75 16.6554 8.75 17.15C8.75 17.6435 8.75 17.8924 8.9033 18.0467C9.05765 18.2 9.30545 18.2 9.8 18.2H11.9C12.3935 18.2 12.6423 18.2 12.7967 18.0467C12.95 17.8924 12.95 17.6445 12.95 17.15C12.95 16.6554 12.95 16.4076 12.7967 16.2533C12.6424 16.1 12.3946 16.1 11.9 16.1H11.9H9.8H9.79999C9.3065 16.1 9.05765 16.1 8.9033 16.2533ZM8.75 21.35C8.75 20.8565 8.75 20.6076 8.9033 20.4533C9.05765 20.3 9.30545 20.3 9.8 20.3H11.9C12.3935 20.3 12.6423 20.3 12.7967 20.4533C12.95 20.6076 12.95 20.8565 12.95 21.35C12.95 21.8435 12.95 22.0924 12.7967 22.2467C12.6423 22.4 12.3945 22.4 11.9 22.4H9.8C9.3065 22.4 9.05765 22.4 8.9033 22.2467C8.75 22.0924 8.75 21.8435 8.75 21.35ZM15.2033 16.2533C15.05 16.4076 15.05 16.6554 15.05 17.15C15.05 17.6435 15.05 17.8924 15.2033 18.0467C15.3576 18.2 15.6054 18.2 16.1 18.2H18.2C18.6935 18.2 18.9423 18.2 19.0967 18.0467C19.25 17.8924 19.25 17.6445 19.25 17.15C19.25 16.6554 19.25 16.4076 19.0967 16.2533C18.9424 16.1 18.6946 16.1 18.2 16.1H18.2H16.1H16.1C15.6065 16.1 15.3576 16.1 15.2033 16.2533ZM15.05 21.35C15.05 20.8565 15.05 20.6076 15.2033 20.4533C15.3576 20.3 15.6054 20.3 16.1 20.3H18.2C18.6935 20.3 18.9423 20.3 19.0967 20.4533C19.25 20.6076 19.25 20.8565 19.25 21.35C19.25 21.8435 19.25 22.0924 19.0967 22.2467C18.9423 22.4 18.6945 22.4 18.2 22.4H16.1C15.6054 22.4 15.3576 22.4 15.2033 22.2467C15.05 22.0924 15.05 21.8435 15.05 21.35Z" fill="black" fill-opacity="0.87"/>
</svg>
