<svg width="24" height="24" viewBox="0 0 24 24" fill="none" xmlns="http://www.w3.org/2000/svg">
<path d="M22.0003 4.26669L19.5337 1.80003C19.3216 1.59788 19.0399 1.48511 18.747 1.48511C18.454 1.48511 18.1723 1.59788 17.9603 1.80003L15.767 4.00003H4.00033C3.6467 4.00003 3.30756 4.1405 3.05752 4.39055C2.80747 4.6406 2.66699 4.97974 2.66699 5.33336V20C2.66699 20.3536 2.80747 20.6928 3.05752 20.9428C3.30756 21.1929 3.6467 21.3334 4.00033 21.3334H18.667C19.0206 21.3334 19.3598 21.1929 19.6098 20.9428C19.8598 20.6928 20.0003 20.3536 20.0003 20V7.84003L22.0003 5.84003C22.2088 5.63128 22.3258 5.34835 22.3258 5.05336C22.3258 4.75837 22.2088 4.47544 22.0003 4.26669ZM12.5537 13.42L9.76033 14.04L10.427 11.2734L16.7937 4.89336L18.947 7.04669L12.5537 13.42ZM19.667 6.28669L17.5137 4.13336L18.747 2.90003L20.9003 5.05336L19.667 6.28669Z" fill="black"/>
</svg>
