<svg width="90" height="90" viewBox="0 0 90 90" fill="none" xmlns="http://www.w3.org/2000/svg">
<rect width="90" height="90" rx="8" fill="#F8AC0B"/>
<path d="M48.5627 74.9128C48.9631 75.7899 49.9601 76.2094 50.8563 75.9098C51.0551 76.637 51.6843 77.2009 52.4825 77.2772C53.2261 77.348 53.9098 76.9721 54.2694 76.3674C55.0539 76.6888 55.9855 76.4436 56.5003 75.7218C57.0996 74.8801 56.9034 73.7115 56.0617 73.1123L54.441 71.9573C54.3238 71.8729 54.1985 71.8075 54.0732 71.7557C53.7328 71.5759 53.3051 71.4506 52.8366 71.4043C52.4225 71.3662 52.0303 71.3962 51.6898 71.4779C51.6653 71.4833 51.6408 71.4888 51.6162 71.4942C51.6081 71.4969 51.5999 71.4997 51.5917 71.4997C51.5372 71.5133 51.4855 71.5296 51.4337 71.5487C51.4283 71.5514 51.4228 71.5542 51.4147 71.5569C51.3765 71.5705 51.3384 71.5841 51.3003 71.6032L51.2921 71.6059C51.2757 71.6141 51.2594 71.6223 51.2431 71.6277L49.4916 72.4285C48.5463 72.8644 48.1323 73.973 48.5627 74.9128Z" fill="#B59F43"/>
<path d="M56.0593 72.5674L54.4386 71.4124C54.3677 71.3606 54.2915 71.3171 54.2152 71.2789L54.0872 67.8849C54.128 67.3401 53.7222 66.8634 53.1774 66.8225C52.6326 66.7817 52.1559 67.1875 52.115 67.7323L51.4749 70.9929C51.4613 70.9984 51.4449 71.0011 51.4313 71.0065C51.4259 71.0093 51.4204 71.012 51.4123 71.0147C51.3741 71.0283 51.336 71.0419 51.2978 71.061L51.2897 71.0637C51.2733 71.0719 51.257 71.0801 51.2406 71.0855L49.4891 71.8864C48.5494 72.3167 48.1353 73.4254 48.5657 74.3652C48.9661 75.2423 49.9631 75.6618 50.8593 75.3621C51.0581 76.0894 51.6874 76.6533 52.4855 76.7295C53.2291 76.8004 53.9128 76.4245 54.2724 75.8197C55.0569 76.1412 55.9885 75.896 56.5033 75.1742C57.0971 74.3352 56.901 73.1666 56.0593 72.5674Z" fill="#FFDF57"/>
<path d="M41.6245 74.9128C41.2241 75.7899 40.2272 76.2094 39.331 75.9098C39.1321 76.637 38.5029 77.2009 37.7048 77.2772C36.9611 77.348 36.2774 76.9721 35.9179 76.3674C35.1334 76.6888 34.2018 76.4436 33.6869 75.7218C33.0877 74.8801 33.2838 73.7115 34.1255 73.1123L35.7462 71.9573C35.8634 71.8729 35.9887 71.8075 36.114 71.7557C36.4545 71.5759 36.8821 71.4506 37.3507 71.4043C37.7647 71.3662 38.1569 71.3962 38.4974 71.4779C38.522 71.4833 38.5465 71.4888 38.571 71.4942C38.5792 71.4969 38.5873 71.4997 38.5955 71.4997C38.65 71.5133 38.7017 71.5296 38.7535 71.5487C38.7589 71.5514 38.7644 71.5542 38.7726 71.5569C38.8107 71.5705 38.8488 71.5841 38.887 71.6032L38.8951 71.6059C38.9115 71.6141 38.9278 71.6223 38.9442 71.6277L40.6957 72.4285C41.6409 72.8644 42.0522 73.973 41.6245 74.9128Z" fill="#B59F43"/>
<path d="M40.7015 71.8892L38.95 71.0883C38.9337 71.0801 38.9173 71.072 38.901 71.0665L38.8928 71.0638C38.8547 71.0475 38.8166 71.0338 38.7784 71.0175C38.773 71.0148 38.7675 71.012 38.7594 71.0093C38.7457 71.0039 38.7294 71.0011 38.7158 70.9957L38.0756 67.7351C38.0348 67.1903 37.5581 66.7817 37.0133 66.8253C36.4685 66.8662 36.0599 67.3429 36.1035 67.8877L35.9755 71.2844C35.8992 71.3226 35.8229 71.3662 35.7521 71.4179L34.1314 72.5729C33.2897 73.1721 33.0935 74.3407 33.6928 75.1824C34.2076 75.9043 35.1365 76.1494 35.9237 75.828C36.2806 76.4327 36.9643 76.8086 37.7106 76.7378C38.506 76.6615 39.1353 76.0977 39.3368 75.3704C40.233 75.67 41.2273 75.2505 41.6304 74.3734C42.0526 73.4282 41.6413 72.3195 40.7015 71.8892Z" fill="#FFDF57"/>
<path d="M37.6724 48.139C38.5741 58.4355 42.5102 66.3867 37.9884 66.7817C33.4667 67.1767 25.9295 64.6162 21.7428 54.592C17.695 44.9057 18.6184 38.2592 21.3478 35.6251C24.3305 32.7487 36.7708 37.8424 37.6724 48.139Z" fill="#FFEEC0"/>
<path d="M51.9412 48.8553C51.9412 59.1927 48.7133 67.4545 53.2514 67.4545C57.7895 67.4545 65.0761 64.2457 68.372 53.8974C71.5591 43.895 70.0609 37.3548 67.1136 34.9686C63.8911 32.3591 51.9412 38.5207 51.9412 48.8553Z" fill="#FFEEC0"/>
<path d="M66.8186 45.8781C66.0668 33.4896 56.5466 18.5297 44.9098 18.5297C33.2731 18.5297 23.7529 33.4896 23.0011 45.8781C21.7045 48.4005 20.9854 51.0019 20.9854 53.4235C20.9854 62.7694 31.6987 70.3447 44.9125 70.3447C58.1264 70.3447 68.8397 62.7694 68.8397 53.4235C68.8343 51.0019 68.1125 48.4005 66.8186 45.8781Z" fill="#FFF8DC"/>
<path d="M50.2734 43.0398C51.4875 43.0398 52.4717 42.0556 52.4717 40.8415C52.4717 39.6275 51.4875 38.6433 50.2734 38.6433C49.0594 38.6433 48.0752 39.6275 48.0752 40.8415C48.0752 42.0556 49.0594 43.0398 50.2734 43.0398Z" fill="#443E3E"/>
<path d="M41.7392 43.0398C42.9533 43.0398 43.9375 42.0556 43.9375 40.8415C43.9375 39.6275 42.9533 38.6433 41.7392 38.6433C40.5252 38.6433 39.541 39.6275 39.541 40.8415C39.541 42.0556 40.5252 43.0398 41.7392 43.0398Z" fill="#443E3E"/>
<path d="M45.501 18.5296C45.501 20.2076 43.7222 21.5668 45.4002 21.5668C46.3835 21.5668 47.2933 20.2076 47.2933 18.5296C47.2933 16.8517 46.4026 15.4924 45.4002 15.4924C43.7222 15.4924 45.501 16.8517 45.501 18.5296Z" fill="#F7D857"/>
<path d="M50.4669 45.0635C49.1539 44.6468 47.4433 43.6907 45.8143 43.6907C44.1854 43.6907 42.4748 44.6495 41.1618 45.0635C38.506 45.9052 36.9043 47.1092 36.9043 48.1362C36.9043 49.1658 38.7566 48.1008 41.1264 48.9561C42.5483 49.4709 43.9702 50.7294 45.8143 50.7294C47.6585 50.7294 49.0804 49.4709 50.5023 48.9561C52.8721 48.1008 54.7244 49.1658 54.7244 48.1362C54.7217 47.1092 53.12 45.9052 50.4669 45.0635Z" fill="#FFB808"/>
<path d="M50.4669 44.5188C49.1539 44.102 47.4433 43.6907 45.8143 43.6907C44.1854 43.6907 42.4748 44.1047 41.1618 44.5188C38.506 45.3605 36.9043 47.1092 36.9043 48.1389C36.9043 49.1685 38.7566 47.3925 41.1264 48.2478C42.5483 48.7627 43.9702 50.0211 45.8143 50.0211C47.6585 50.0211 49.0804 48.7627 50.5023 48.2478C52.8721 47.3925 54.7244 49.1658 54.7244 48.1389C54.7217 47.1092 53.12 45.3605 50.4669 44.5188Z" fill="#FFCF06"/>
<path d="M44.1552 17.3393C44.1552 19.7363 46.6967 21.6785 44.2996 21.6785C42.8968 21.6785 41.5947 19.7363 41.5947 17.3393C41.5947 14.9422 42.8641 13 44.2996 13C46.694 13 44.1552 14.9422 44.1552 17.3393Z" fill="#FFDF57"/>
<path d="M41.0473 45.7093C41.0473 46.6926 40.2492 47.4907 39.2658 47.4907C38.2825 47.4907 37.4844 46.6926 37.4844 45.7093C37.4844 44.7259 39.2658 42.0101 39.2658 42.0101C39.2658 42.0101 41.0473 44.7232 41.0473 45.7093Z" fill="url(#paint0_linear_1192_7099)"/>
<path d="M36.2311 38.3899C35.7299 38.4498 36.844 35.922 38.334 34.9414C39.8267 33.9607 42.5398 33.6393 42.3437 34.1269C42.2483 34.3639 40.3988 34.8133 38.9224 35.7204C37.3697 36.6765 36.4872 38.3599 36.2311 38.3899Z" fill="#545454"/>
<path d="M55.3912 38.3899C55.8924 38.4498 54.7783 35.922 53.2883 34.9414C51.7956 33.9607 49.0825 33.6393 49.2786 34.1269C49.374 34.3639 51.2235 34.8133 52.6999 35.7204C54.2553 36.6765 55.1351 38.3599 55.3912 38.3899Z" fill="#545454"/>
<defs>
<linearGradient id="paint0_linear_1192_7099" x1="39.2633" y1="42.0097" x2="39.2633" y2="47.4915" gradientUnits="userSpaceOnUse">
<stop stop-color="#6ECBF9"/>
<stop offset="1" stop-color="#0B8EF9"/>
</linearGradient>
</defs>
</svg>
