<svg width="160" height="163" viewBox="0 0 160 163" fill="none" xmlns="http://www.w3.org/2000/svg">
<path d="M88.9578 147.046C89.8745 149.054 92.1569 150.014 94.2086 149.329C94.6638 150.994 96.1043 152.284 97.9315 152.459C99.6339 152.621 101.199 151.761 102.022 150.376C103.818 151.112 105.951 150.551 107.13 148.898C108.502 146.971 108.053 144.296 106.126 142.924L102.415 140.28C102.147 140.087 101.86 139.937 101.573 139.819C100.794 139.407 99.8148 139.12 98.7422 139.014C97.7943 138.927 96.8963 138.995 96.1168 139.182C96.0607 139.195 96.0045 139.207 95.9484 139.22C95.9297 139.226 95.911 139.232 95.8923 139.232C95.7676 139.264 95.6491 139.301 95.5306 139.345C95.5181 139.351 95.5056 139.357 95.4869 139.363C95.3996 139.394 95.3123 139.426 95.225 139.469L95.2063 139.476C95.1689 139.494 95.1315 139.513 95.0941 139.525L91.0843 141.359C88.9204 142.357 87.9725 144.895 88.9578 147.046Z" fill="#B59F43"/>
<path d="M106.119 141.677L102.409 139.033C102.247 138.914 102.072 138.815 101.897 138.727L101.604 130.957C101.698 129.71 100.769 128.619 99.5215 128.525C98.2743 128.431 97.183 129.361 97.0895 130.608L95.624 138.072C95.5928 138.085 95.5554 138.091 95.5242 138.104C95.5117 138.11 95.4993 138.116 95.4806 138.122C95.3933 138.153 95.306 138.185 95.2186 138.228L95.1999 138.235C95.1625 138.253 95.1251 138.272 95.0877 138.284L91.0779 140.118C88.9265 141.103 87.9786 143.641 88.9639 145.793C89.8806 147.801 92.163 148.761 94.2146 148.075C94.6699 149.74 96.1104 151.031 97.9376 151.206C99.64 151.368 101.205 150.507 102.028 149.123C103.824 149.859 105.957 149.297 107.136 147.645C108.495 145.724 108.046 143.049 106.119 141.677Z" fill="#FFDF57"/>
<path d="M73.0739 147.046C72.1572 149.054 69.8748 150.014 67.8231 149.329C67.3679 150.994 65.9274 152.284 64.1002 152.459C62.3978 152.621 60.8325 151.761 60.0094 150.376C58.2134 151.112 56.0807 150.551 54.902 148.898C53.5301 146.971 53.9791 144.296 55.906 142.924L59.6165 140.28C59.8846 140.087 60.1715 139.937 60.4584 139.819C61.2379 139.407 62.2169 139.12 63.2895 139.014C64.2374 138.927 65.1354 138.995 65.9149 139.182C65.971 139.195 66.0272 139.207 66.0833 139.22C66.102 139.226 66.1207 139.232 66.1394 139.232C66.2641 139.264 66.3826 139.301 66.5011 139.345C66.5136 139.351 66.526 139.357 66.5447 139.363C66.632 139.394 66.7193 139.426 66.8067 139.469L66.8254 139.476C66.8628 139.494 66.9002 139.513 66.9376 139.525L70.9474 141.359C73.1113 142.357 74.0529 144.895 73.0739 147.046Z" fill="#B59F43"/>
<path d="M70.9601 140.124L66.9503 138.291C66.9129 138.272 66.8755 138.253 66.8381 138.241L66.8194 138.235C66.732 138.197 66.6447 138.166 66.5574 138.128C66.545 138.122 66.5325 138.116 66.5138 138.11C66.4826 138.097 66.4452 138.091 66.414 138.079L64.9485 130.614C64.855 129.367 63.7637 128.431 62.5165 128.531C61.2693 128.625 60.3339 129.716 60.4336 130.963L60.1405 138.74C59.9659 138.827 59.7913 138.927 59.6292 139.045L55.9187 141.689C53.9918 143.061 53.5428 145.736 54.9147 147.663C56.0934 149.316 58.2198 149.877 60.0221 149.141C60.839 150.526 62.4042 151.386 64.1129 151.224C65.9338 151.05 67.3744 149.759 67.8358 148.094C69.8875 148.78 72.1636 147.819 73.0866 145.811C74.0532 143.647 73.1115 141.109 70.9601 140.124Z" fill="#FFDF57"/>
<path d="M64.0259 85.7517C66.09 109.324 75.1011 127.527 64.7492 128.431C54.3974 129.335 37.1423 123.474 27.5575 100.525C18.2907 78.3495 20.4047 63.1336 26.6532 57.1033C33.4817 50.518 61.9617 62.1795 64.0259 85.7517Z" fill="#FFEEC0"/>
<path d="M96.6907 87.3917C96.6907 111.058 89.301 129.971 99.6902 129.971C110.08 129.971 126.761 122.625 134.307 98.9347C141.603 76.0359 138.173 61.0631 131.425 55.6004C124.048 49.6262 96.6907 63.7322 96.6907 87.3917Z" fill="#FFEEC0"/>
<path d="M130.752 80.576C129.031 52.2144 107.236 17.9661 80.5954 17.9661C53.955 17.9661 32.16 52.2144 30.4389 80.576C27.4705 86.3506 25.8242 92.306 25.8242 97.8498C25.8242 119.246 50.3506 136.588 80.6017 136.588C110.853 136.588 135.379 119.246 135.379 97.8498C135.367 92.306 133.714 86.3506 130.752 80.576Z" fill="#FFF8DC"/>
<path d="M92.8743 74.0782C95.6536 74.0782 97.9068 71.825 97.9068 69.0457C97.9068 66.2663 95.6536 64.0132 92.8743 64.0132C90.0949 64.0132 87.8418 66.2663 87.8418 69.0457C87.8418 71.825 90.0949 74.0782 92.8743 74.0782Z" fill="#443E3E"/>
<path d="M73.3362 74.0782C76.1156 74.0782 78.3687 71.825 78.3687 69.0457C78.3687 66.2663 76.1156 64.0132 73.3362 64.0132C70.5568 64.0132 68.3037 66.2663 68.3037 69.0457C68.3037 71.825 70.5568 74.0782 73.3362 74.0782Z" fill="#443E3E"/>
<path d="M81.9486 17.9661C81.9486 21.8075 77.8764 24.9193 81.7178 24.9193C83.969 24.9193 86.0519 21.8075 86.0519 17.9661C86.0519 14.1247 84.0127 11.0129 81.7178 11.0129C77.8764 11.0129 81.9486 14.1247 81.9486 17.9661Z" fill="#F7D857"/>
<path d="M93.3169 78.7113C90.3111 77.7572 86.3948 75.5684 82.6657 75.5684C78.9365 75.5684 75.0203 77.7634 72.0145 78.7113C65.9344 80.6383 62.2676 83.3946 62.2676 85.7456C62.2676 88.1028 66.5081 85.6645 71.9335 87.6226C75.1887 88.8012 78.4439 91.6823 82.6657 91.6823C86.8875 91.6823 90.1427 88.8012 93.3979 87.6226C98.8233 85.6645 103.064 88.1028 103.064 85.7456C103.058 83.3946 99.3908 80.6383 93.3169 78.7113Z" fill="#FFB808"/>
<path d="M93.3169 77.4641C90.3111 76.51 86.3948 75.5684 82.6657 75.5684C78.9365 75.5684 75.0203 76.5162 72.0145 77.4641C65.9344 79.3911 62.2676 83.3946 62.2676 85.7518C62.2676 88.109 66.5081 84.0431 71.9335 86.0013C75.1887 87.1799 78.4439 90.0609 82.6657 90.0609C86.8875 90.0609 90.1427 87.1799 93.3979 86.0013C98.8233 84.0431 103.064 88.1028 103.064 85.7518C103.058 83.3946 99.3908 79.3911 93.3169 77.4641Z" fill="#FFCF06"/>
<path d="M78.8677 15.2409C78.8677 20.7286 84.686 25.1749 79.1983 25.1749C75.9867 25.1749 73.0059 20.7286 73.0059 15.2409C73.0059 9.75319 75.9119 5.30688 79.1983 5.30688C84.6797 5.30688 78.8677 9.75319 78.8677 15.2409Z" fill="#FFDF57"/>
<path d="M71.7524 80.1893C71.7524 82.4405 69.9253 84.2676 67.6741 84.2676C65.4229 84.2676 63.5957 82.4405 63.5957 80.1893C63.5957 77.938 67.6741 71.7207 67.6741 71.7207C67.6741 71.7207 71.7524 77.9318 71.7524 80.1893Z" fill="url(#paint0_linear_232_5859)"/>
<path d="M60.7269 63.433C59.5795 63.5702 62.1301 57.7831 65.5412 55.5381C68.9585 53.2932 75.1696 52.5573 74.7206 53.6736C74.5024 54.2161 70.2681 55.245 66.8882 57.3216C63.3336 59.5105 61.3131 63.3644 60.7269 63.433Z" fill="#545454"/>
<path d="M104.591 63.433C105.738 63.5702 103.188 57.7831 99.7768 55.5381C96.3594 53.2932 90.1483 52.5573 90.5973 53.6736C90.8156 54.2161 95.0498 55.245 98.4298 57.3216C101.991 59.5105 104.005 63.3644 104.591 63.433Z" fill="#545454"/>
<defs>
<linearGradient id="paint0_linear_232_5859" x1="67.6683" y1="71.7198" x2="67.6683" y2="84.2694" gradientUnits="userSpaceOnUse">
<stop stop-color="#6ECBF9"/>
<stop offset="1" stop-color="#0B8EF9"/>
</linearGradient>
</defs>
</svg>
