<svg width="17" height="17" viewBox="0 0 17 17" fill="none" xmlns="http://www.w3.org/2000/svg">
<rect width="17" height="17" fill="white" fill-opacity="0.34"/>
<rect x="0.5" y="0.5" width="16" height="16" stroke="#C3BFBF" stroke-opacity="0.5"/>
<path d="M14.1255 5.71442L7.04214 12.7978C7.00102 12.8389 6.9522 12.8716 6.89846 12.8939C6.84471 12.9161 6.7871 12.9276 6.72892 12.9276C6.67075 12.9276 6.61314 12.9161 6.55939 12.8939C6.50565 12.8716 6.45682 12.8389 6.41571 12.7978L3.31675 9.6988C3.23368 9.61573 3.18701 9.50306 3.18701 9.38558C3.18701 9.2681 3.23368 9.15544 3.31675 9.07236C3.39982 8.9893 3.51249 8.94263 3.62997 8.94263C3.74744 8.94263 3.86011 8.9893 3.94318 9.07236L6.72892 11.8587L13.499 5.08799C13.5821 5.00492 13.6948 4.95825 13.8123 4.95825C13.9297 4.95825 14.0424 5.00492 14.1255 5.08799C14.2085 5.17106 14.2552 5.28373 14.2552 5.40121C14.2552 5.51869 14.2085 5.63135 14.1255 5.71442Z" fill="#C3BFBF" fill-opacity="0.5"/>
</svg>
