<svg width="231" height="232" viewBox="0 0 231 232" fill="none" xmlns="http://www.w3.org/2000/svg">
<g clip-path="url(#clip0_77_3766)">
<path d="M192.595 231.58H37.8466C16.9202 231.58 -0.0534668 214.614 -0.0534668 193.68V38.9401C-0.0534668 18.0138 16.9121 1.04004 37.8466 1.04004H192.595C213.521 1.04004 230.495 18.0056 230.495 38.9401V193.688C230.487 214.614 213.521 231.58 192.595 231.58Z" fill="url(#paint0_linear_77_3766)"/>
<path d="M167.586 94.8648C167.586 123.501 131.012 190.266 115.73 190.266C100.448 190.266 63.8735 123.509 63.8735 94.8648C63.8735 66.2201 87.0934 43.0083 115.73 43.0083C144.367 43.0083 167.586 66.2282 167.586 94.8648Z" fill="white"/>
<path d="M137.38 72.4583C129.328 71.3929 121.903 78.9566 121.903 78.9566L120.838 87.049C124.075 87.4801 126.23 91.3596 125.807 94.5965C125.376 97.8335 122.245 101.355 119.008 100.924L117.601 111.554L128.564 113.002C128.231 115.547 130.036 117.711 132.582 118.052C135.127 118.394 137.177 116.735 137.51 114.189L141.121 114.669C144.911 106.983 147.677 98.8339 148.604 91.8232C149.816 82.6816 146.302 73.6295 137.38 72.4583Z" fill="#FFD00B"/>
<path d="M134.704 122.038C131.728 122.038 128.515 119.744 128.515 117.182H118.048V138.686C114.892 138.686 112.119 140.264 112.119 143.419C112.119 146.575 114.892 148.153 118.048 148.153V156.489C122.269 156.489 132.419 143.005 139.34 126.812C140.682 123.68 141.918 120.443 143.025 117.182H140.837C140.154 119.825 137.917 122.038 134.704 122.038Z" fill="url(#paint1_linear_77_3766)"/>
<path d="M113.786 89.7655V79.5504C111.964 75.3293 107.304 70.5552 98.675 70.5552C89.1186 70.5552 84.1575 79.5992 84.1575 89.3914C84.1575 96.8982 85.8898 105.812 88.8177 114.441H90.1678C90.1678 111.79 92.9493 109.13 96.4709 109.13C99.9519 109.13 102.872 111.578 102.872 114.441H113.786V101.192C116.69 101.192 119.959 98.6387 119.959 95.483C119.959 92.3274 116.942 89.7655 113.786 89.7655Z" fill="url(#paint2_linear_77_3766)"/>
<path d="M114.364 137.344L113.022 118.41L101.156 119.256C100.969 116.645 98.6832 114.376 96.0724 114.563C93.4617 114.75 91.5179 117.32 91.705 119.931L89.2976 120.102C90.5745 123.152 91.9978 126.242 93.4861 129.154C101.213 144.2 111.655 156.44 115.698 156.156L115.234 149.649C112.631 149.771 109.305 147.486 109.061 144.037C108.817 140.589 111.558 137.807 114.364 137.344Z" fill="url(#paint3_linear_77_3766)"/>
</g>
<defs>
<linearGradient id="paint0_linear_77_3766" x1="115.218" y1="231.583" x2="115.218" y2="1.03882" gradientUnits="userSpaceOnUse">
<stop stop-color="#FF9E12"/>
<stop offset="1" stop-color="#F4AD3B"/>
</linearGradient>
<linearGradient id="paint1_linear_77_3766" x1="127.567" y1="117.184" x2="127.567" y2="156.493" gradientUnits="userSpaceOnUse">
<stop stop-color="#FF9E12"/>
<stop offset="1" stop-color="#F4AD3B"/>
</linearGradient>
<linearGradient id="paint2_linear_77_3766" x1="102.058" y1="70.5523" x2="102.058" y2="114.435" gradientUnits="userSpaceOnUse">
<stop stop-color="#FF9E12"/>
<stop offset="1" stop-color="#F4AD3B"/>
</linearGradient>
<linearGradient id="paint3_linear_77_3766" x1="100.799" y1="114.224" x2="103.835" y2="156.987" gradientUnits="userSpaceOnUse">
<stop stop-color="#FF9E12"/>
<stop offset="1" stop-color="#F4AD3B"/>
</linearGradient>
<clipPath id="clip0_77_3766">
<rect width="230.54" height="230.857" fill="white" transform="translate(0.459961 0.496582)"/>
</clipPath>
</defs>
</svg>
