<svg width="304" height="304" viewBox="0 0 304 304" fill="none" xmlns="http://www.w3.org/2000/svg">
<g clip-path="url(#clip0_231_4475)">
<path d="M220.259 124.217C220.259 161.911 172.116 249.793 152 249.793C131.884 249.793 83.7412 161.922 83.7412 124.217C83.7412 86.5117 114.306 55.958 152 55.958C189.694 55.958 220.259 86.5224 220.259 124.217Z" fill="white"/>
<path d="M180.498 94.7228C169.9 93.3203 160.125 103.277 160.125 103.277L158.723 113.929C162.984 114.496 165.821 119.603 165.264 123.863C164.697 128.124 160.575 132.76 156.314 132.192L154.462 146.184L168.893 148.09C168.454 151.441 170.831 154.289 174.182 154.738C177.533 155.188 180.23 153.004 180.669 149.653L185.423 150.285C190.411 140.168 194.051 129.441 195.272 120.213C196.867 108.18 192.242 96.2644 180.498 94.7228Z" fill="#FFD00B"/>
<path d="M176.976 159.984C173.058 159.984 168.829 156.965 168.829 153.593H155.051V181.898C150.897 181.898 147.247 183.975 147.247 188.129C147.247 192.283 150.897 194.36 155.051 194.36V205.333C160.607 205.333 173.968 187.583 183.078 166.268C184.845 162.147 186.472 157.886 187.928 153.593H185.048C184.149 157.072 181.205 159.984 176.976 159.984Z" fill="url(#paint0_linear_231_4475)"/>
<path d="M149.441 117.504V104.058C147.043 98.5019 140.909 92.2178 129.55 92.2178C116.971 92.2178 110.441 104.122 110.441 117.012C110.441 126.893 112.721 138.626 116.575 149.985H118.352C118.352 146.495 122.014 142.994 126.649 142.994C131.231 142.994 135.074 146.217 135.074 149.985H149.441V132.546C153.263 132.546 157.567 129.184 157.567 125.03C157.567 120.877 153.595 117.504 149.441 117.504Z" fill="url(#paint1_linear_231_4475)"/>
<path d="M150.201 180.132L148.435 155.209L132.815 156.323C132.569 152.886 129.561 149.899 126.125 150.146C122.688 150.392 120.129 153.775 120.376 157.211L117.207 157.436C118.888 161.451 120.761 165.519 122.72 169.351C132.89 189.157 146.636 205.269 151.957 204.894L151.347 196.329C147.921 196.49 143.542 193.482 143.221 188.943C142.9 184.403 146.508 180.742 150.201 180.132Z" fill="url(#paint2_linear_231_4475)"/>
</g>
<defs>
<linearGradient id="paint0_linear_231_4475" x1="167.581" y1="153.595" x2="167.581" y2="205.337" gradientUnits="userSpaceOnUse">
<stop stop-color="#FF9E12"/>
<stop offset="1" stop-color="#F4AD3B"/>
</linearGradient>
<linearGradient id="paint1_linear_231_4475" x1="134.003" y1="92.214" x2="134.003" y2="149.977" gradientUnits="userSpaceOnUse">
<stop stop-color="#FF9E12"/>
<stop offset="1" stop-color="#F4AD3B"/>
</linearGradient>
<linearGradient id="paint2_linear_231_4475" x1="132.347" y1="149.699" x2="136.342" y2="205.988" gradientUnits="userSpaceOnUse">
<stop stop-color="#FF9E12"/>
<stop offset="1" stop-color="#F4AD3B"/>
</linearGradient>
<clipPath id="clip0_231_4475">
<rect width="303.46" height="303.878" fill="white" transform="translate(0.27002)"/>
</clipPath>
</defs>
</svg>
