<svg width="1852" height="540" viewBox="0 0 1852 540" fill="none" xmlns="http://www.w3.org/2000/svg">
<g clip-path="url(#clip0_1211_15652)">
<path d="M85.083 523.928C58.6494 523.928 37.9231 516.868 22.7539 502.823C7.58462 488.779 0 466.848 0 437.032V106.948C0 97.1849 5.33177 88.2475 15.9202 80.2113C26.5086 72.1752 40.4013 65.1905 57.523 59.3323C74.6447 53.4742 93.9442 48.8928 115.421 45.5882C136.899 42.2836 158.676 40.6313 180.679 40.6313C219.579 40.6313 255.024 45.3629 287.164 54.9012C319.305 64.4394 347.015 79.235 370.22 99.2878C393.424 119.341 411.447 144.876 424.288 175.969C437.13 206.987 443.513 244.164 443.513 287.424C443.513 325.352 437.355 358.923 424.964 388.289C412.649 417.655 394.926 442.364 371.797 462.567C348.667 482.77 320.732 498.017 287.99 508.381C255.249 518.745 218.452 524.003 177.6 524.003H84.8577L85.083 523.928ZM225.286 282.242C225.286 259.485 221.831 231.772 218.527 219.154C217.176 214.047 215.298 206.311 206.437 206.311C197.576 206.311 195.698 212.395 197.651 222.234C199.603 232.072 204.86 255.279 205.386 284.12C205.911 312.96 200.354 339.396 197.651 350.587C194.947 361.777 198.402 365.232 206.437 366.509C214.472 367.786 217.551 358.848 218.527 353.666C221.831 335.641 225.286 302.971 225.286 282.167V282.242Z" fill="#FCFCFC"/>
<path d="M676.14 516.38C672.761 519.76 667.279 521.187 661.647 523.14C656.015 525.093 649.406 526.745 641.822 528.097C634.237 529.449 625.451 530.125 615.388 530.125C604.424 530.125 593.01 529.148 581.295 527.195C569.58 525.243 558.165 521.863 546.976 517.132C535.862 512.4 525.274 505.941 515.286 497.905C505.298 489.869 496.512 479.73 489.078 467.638C481.643 455.546 475.711 441.201 471.28 424.753C466.85 408.305 464.672 389.004 464.672 366.998V275.296C464.672 275.296 464.672 274.845 464.522 274.62C459.49 265.682 454.985 255.318 451.455 243.602C438.989 201.468 442.894 156.556 457.688 141.084C480.968 116.826 526.625 108.264 587.528 127.716C599.393 131.471 609.756 136.202 618.317 143.337C626.878 150.397 633.561 159.41 638.292 170.3C643.023 181.19 645.426 194.183 645.426 209.354V328.169C645.426 341.838 646.703 351.226 649.256 356.258C651.809 361.29 655.038 363.768 658.943 363.768C661.421 363.768 663.299 363.393 664.651 362.642C666.002 361.891 667.279 361.065 668.48 360.088C667.279 355.958 666.303 350.926 665.702 345.068C665.101 339.209 664.801 331.624 664.801 322.311C664.801 322.311 656.991 171.577 663.299 149.571C669.006 129.668 692.811 127.565 700.396 125.387C707.981 123.209 716.466 121.332 725.853 119.905C735.24 118.403 746.054 117.727 758.294 117.727C779.546 117.727 797.87 120.581 813.264 126.364C818.521 128.316 823.252 130.419 827.607 132.673C840.298 139.282 848.033 152.575 848.033 166.845V338.834C848.033 355.732 849.836 370.152 853.515 382.319C856.144 390.956 860.424 398.166 866.432 403.874C871.388 408.606 876.044 418.069 876.044 431.137C876.044 444.205 872.214 458.175 867.258 471.618C862.226 485.062 855.318 496.102 846.531 504.814C837.745 513.527 827.307 519.91 815.217 524.041C803.126 528.172 789.985 530.275 775.792 530.275C757.694 530.275 740.872 526.144 725.403 517.807C712.411 510.823 702.123 500.909 694.463 487.916C690.033 480.405 677.942 483.184 677.867 491.896C677.867 491.972 677.867 492.047 677.867 492.122C677.867 494.826 684.401 508.044 675.84 516.531L676.14 516.38Z" fill="#FCFCFC"/>
<path d="M1087.61 488.554C1084.08 509.958 1068.16 514.314 1053.96 519.872C1036.77 526.707 1017.09 530.161 995.088 530.161C984.124 530.161 972.935 528.584 961.52 525.43C950.106 522.275 939.893 517.394 930.731 510.935C921.57 504.476 914.06 496.364 908.203 486.751C902.345 477.063 899.416 465.647 899.416 452.428C899.416 452.428 885.374 341.124 879.666 231.772C874.635 135.113 865.624 60.8345 899.416 24.4089C933.209 -12.0166 1016.94 2.25317 1029.03 4.95693C1041.12 7.66068 1051.86 11.8665 1061.32 17.5744C1070.71 23.3575 1078.29 30.7928 1084.08 39.9555C1089.78 49.1183 1092.71 60.1586 1092.71 73.1516V112.056C1092.71 130.381 1091.06 147.505 1087.76 163.427C1086.55 169.135 1082.8 178.598 1078.29 188.512C1070.26 206.312 1048.78 242.737 1045.4 248.896C1042.02 255.054 1047.43 264.818 1057.87 260.537C1068.31 256.256 1089.48 232.748 1105.1 196.773C1120.72 160.798 1113.89 127.602 1137.47 114.985C1161.05 102.367 1216.02 112.431 1230.81 116.712C1245.61 120.993 1258.15 127.377 1268.36 135.789C1278.57 144.2 1286.53 154.64 1292.16 166.957C1297.8 179.274 1300.58 193.544 1300.58 209.691C1300.58 224.862 1298.02 238.682 1292.84 251.149C1287.66 263.616 1280.68 274.807 1271.74 284.72C1262.8 294.634 1228.48 317.466 1222.03 320.545C1214.67 324 1214.37 334.515 1221.88 337.894C1222.18 338.045 1222.48 338.195 1222.78 338.27C1229.16 341.049 1261.08 345.104 1279.4 358.848C1297.72 372.593 1308.24 391.669 1308.24 429.747C1308.24 467.825 1291.04 491.558 1282.4 500.72C1273.69 509.883 1262.88 517.093 1249.74 522.351C1236.67 527.608 1221.43 530.236 1204.08 530.236C1186.73 530.236 1171.41 526.857 1157.29 520.172C1143.25 513.413 1130.94 503.875 1120.42 491.408C1109.91 478.94 1101.35 463.769 1094.74 445.969C1089.41 431.474 1085.5 415.627 1083.02 398.203C1082.12 392.045 1074.39 387.463 1069.81 390.918C1065.23 394.373 1066.2 407.441 1071.16 430.273C1076.12 453.104 1090.91 467.224 1087.46 488.629L1087.61 488.554Z" fill="#FCFCFC"/>
<path d="M1399.53 127.145L1399.53 127.145L1399.52 127.141C1398.8 126.84 1398.14 126.741 1397.49 126.817C1396.84 126.892 1396.25 127.135 1395.68 127.465C1395.1 127.794 1394.52 128.223 1393.91 128.687C1393.82 128.758 1393.73 128.83 1393.63 128.903C1393.1 129.311 1392.53 129.745 1391.89 130.186C1388.92 132.238 1384.41 134.456 1375.7 133.938C1366.96 133.417 1357.73 130.419 1350.04 126.812C1342.34 123.197 1336.25 119.009 1333.77 116.158C1328.71 110.352 1324.68 103.347 1321.7 95.2103C1320.97 93.2362 1320.07 88.7121 1320.27 83.0281C1320.47 77.353 1321.78 70.5559 1325.45 64.0174C1332.75 50.9793 1349.54 38.8032 1386.18 38.8032C1422.86 38.8032 1441.88 48.5063 1451.75 59.8576C1461.63 71.2182 1462.43 84.3391 1462.43 91.402C1462.43 110.664 1460.03 127.432 1455.32 141.791C1452.97 148.947 1447.99 158.985 1441.45 168.083C1434.91 177.192 1426.87 185.284 1418.44 188.648C1401.4 195.45 1385.21 197.086 1368.5 193.132C1360.15 191.155 1352.39 187.741 1346.21 183.918C1340.01 180.087 1335.46 175.879 1333.45 172.343C1331.43 168.772 1329.84 163.518 1330.21 158.336C1330.58 153.178 1332.87 148.103 1338.6 144.783C1344.28 141.489 1351.57 142.908 1358.52 145.357C1361.15 146.282 1363.69 147.341 1366.06 148.327C1366.82 148.64 1367.55 148.947 1368.27 149.239C1371.2 150.435 1373.81 151.411 1375.77 151.607C1383.35 152.366 1390.45 151.615 1396.68 145.148C1399.81 141.908 1401.41 137.86 1401.81 134.43C1402.01 132.715 1401.92 131.131 1401.55 129.865C1401.19 128.611 1400.53 127.587 1399.53 127.145Z" fill="#FCFCFC" stroke="white"/>
<path d="M1828.8 155.541C1840.36 176.57 1849.22 229.894 1831.72 265.043C1814.23 300.192 1789.3 329.032 1758.81 342.926C1730.27 355.919 1690.85 359.449 1676.43 364.331C1662.01 369.213 1652.55 377.099 1656.98 386.111C1661.78 395.95 1689.94 382.807 1740.71 374.245C1774.95 368.462 1808.22 374.019 1825.49 389.191C1837.36 399.63 1851.77 419.983 1852 454.456C1852.23 488.929 1820.08 539.85 1672.37 539.85C1524.66 539.85 1501.68 510.709 1485.99 479.241C1470.29 447.772 1470.07 379.652 1487.64 354.342C1505.21 329.032 1559.28 305.675 1576.7 289.828C1594.12 273.981 1614.02 250.323 1606.06 242.286C1598.1 234.25 1587.74 240.86 1580.08 251.975C1572.42 263.09 1563.71 284.42 1529.09 284.42C1494.47 284.42 1491.17 249.346 1487.86 236.579C1484.56 223.886 1482.91 211.268 1482.91 198.801C1482.91 180.25 1485.16 147.129 1505.36 128.353C1525.56 109.577 1560.4 82.6147 1675.15 85.3936C1789.9 88.1725 1817.23 134.287 1828.8 155.316V155.541Z" fill="#FCFCFC"/>
</g>
<defs>
<clipPath id="clip0_1211_15652">
<rect width="1852" height="540" fill="white"/>
</clipPath>
</defs>
</svg>
