<svg width="168" height="168" viewBox="0 0 168 168" fill="none" xmlns="http://www.w3.org/2000/svg">
<path d="M92.736 153.174C93.618 155.106 95.814 156.03 97.788 155.37C98.226 156.972 99.612 158.214 101.37 158.382C103.008 158.538 104.514 157.71 105.306 156.378C107.034 157.086 109.086 156.546 110.22 154.956C111.54 153.102 111.108 150.528 109.254 149.208L105.684 146.664C105.426 146.478 105.15 146.334 104.874 146.22C104.124 145.824 103.182 145.548 102.15 145.446C101.238 145.362 100.374 145.428 99.624 145.608C99.57 145.62 99.516 145.632 99.462 145.644C99.444 145.65 99.426 145.656 99.408 145.656C99.288 145.686 99.174 145.722 99.06 145.764C99.048 145.77 99.036 145.776 99.018 145.782C98.934 145.812 98.85 145.842 98.766 145.884L98.748 145.89C98.712 145.908 98.676 145.926 98.64 145.938L94.782 147.702C92.7 148.656 91.788 151.104 92.736 153.174Z" fill="#B59F43"/>
<path d="M109.248 148.008L105.678 145.464C105.522 145.35 105.354 145.254 105.186 145.17L104.904 137.688C104.994 136.488 104.1 135.438 102.9 135.348C101.7 135.258 100.65 136.152 100.56 137.352L99.1501 144.534C99.1201 144.546 99.0841 144.552 99.0541 144.564C99.0421 144.57 99.0301 144.576 99.0121 144.582C98.9281 144.612 98.8441 144.642 98.7601 144.684L98.7421 144.69C98.7061 144.708 98.6701 144.726 98.6341 144.738L94.7761 146.502C92.7061 147.45 91.7941 149.892 92.7421 151.962C93.6241 153.894 95.8201 154.818 97.7941 154.158C98.2321 155.76 99.6181 157.002 101.376 157.17C103.014 157.326 104.52 156.498 105.312 155.166C107.04 155.874 109.092 155.334 110.226 153.744C111.534 151.902 111.102 149.328 109.248 148.008Z" fill="#FFDF57"/>
<path d="M77.4541 153.174C76.5721 155.106 74.3761 156.03 72.4021 155.37C71.9641 156.972 70.5781 158.214 68.8201 158.382C67.1821 158.538 65.6761 157.71 64.8841 156.378C63.1561 157.086 61.1041 156.546 59.9701 154.956C58.6501 153.102 59.0821 150.528 60.9361 149.208L64.5061 146.664C64.7641 146.478 65.0401 146.334 65.3161 146.22C66.0661 145.824 67.0081 145.548 68.0401 145.446C68.9521 145.362 69.8161 145.428 70.5661 145.608C70.6201 145.62 70.6741 145.632 70.7281 145.644C70.7461 145.65 70.7641 145.656 70.7821 145.656C70.9021 145.686 71.0161 145.722 71.1301 145.764C71.1421 145.77 71.1541 145.776 71.1721 145.782C71.2561 145.812 71.3401 145.842 71.4241 145.884L71.4421 145.89C71.4781 145.908 71.5141 145.926 71.5501 145.938L75.4081 147.702C77.4901 148.656 78.3961 151.104 77.4541 153.174Z" fill="#B59F43"/>
<path d="M75.4203 146.514L71.5623 144.75C71.5263 144.732 71.4903 144.714 71.4543 144.702L71.4363 144.696C71.3523 144.66 71.2683 144.63 71.1843 144.594C71.1723 144.588 71.1603 144.582 71.1423 144.576C71.1123 144.564 71.0763 144.558 71.0463 144.546L69.6363 137.364C69.5463 136.164 68.4963 135.264 67.2963 135.36C66.0963 135.45 65.1963 136.5 65.2923 137.7L65.0103 145.182C64.8423 145.266 64.6743 145.362 64.5183 145.476L60.9483 148.02C59.0943 149.34 58.6623 151.914 59.9823 153.768C61.1163 155.358 63.1623 155.898 64.8963 155.19C65.6823 156.522 67.1883 157.35 68.8323 157.194C70.5843 157.026 71.9703 155.784 72.4143 154.182C74.3883 154.842 76.5783 153.918 77.4663 151.986C78.3963 149.904 77.4903 147.456 75.4203 146.514Z" fill="#FFDF57"/>
<path d="M68.7481 94.2C70.7341 116.88 79.4041 134.394 69.4441 135.264C59.4901 136.134 42.8821 130.494 33.6601 108.414C24.7441 87.078 26.7781 72.438 32.7901 66.636C39.3601 60.294 66.7621 71.514 68.7481 94.2Z" fill="#FFEEC0"/>
<path d="M100.176 95.778C100.176 118.548 93.0663 136.746 103.062 136.746C113.058 136.746 129.108 129.678 136.368 106.884C143.388 84.852 140.088 70.446 133.596 65.19C126.498 59.442 100.176 73.008 100.176 95.778Z" fill="#FFEEC0"/>
<path d="M132.942 89.22C131.286 61.932 110.316 28.98 84.6843 28.98C59.0523 28.98 38.0823 61.932 36.4263 89.22C33.5703 94.776 31.9863 100.506 31.9863 105.84C31.9863 126.426 55.5843 143.112 84.6903 143.112C113.796 143.112 137.394 126.426 137.394 105.84C137.388 100.5 135.798 94.776 132.942 89.22Z" fill="#FFF8DC"/>
<path d="M96.5041 82.968C99.1783 82.968 101.346 80.8002 101.346 78.126C101.346 75.4518 99.1783 73.284 96.5041 73.284C93.8299 73.284 91.6621 75.4518 91.6621 78.126C91.6621 80.8002 93.8299 82.968 96.5041 82.968Z" fill="#443E3E"/>
<path d="M77.7063 82.968C80.3804 82.968 82.5483 80.8002 82.5483 78.126C82.5483 75.4518 80.3804 73.284 77.7063 73.284C75.0321 73.284 72.8643 75.4518 72.8643 78.126C72.8643 80.8002 75.0321 82.968 77.7063 82.968Z" fill="#443E3E"/>
<path d="M85.9921 28.974C85.9921 32.67 82.0741 35.664 85.7701 35.664C87.9361 35.664 89.9401 32.67 89.9401 28.974C89.9401 25.278 87.9781 22.284 85.7701 22.284C82.0741 22.284 85.9921 25.284 85.9921 28.974Z" fill="#F7D857"/>
<path d="M96.9302 87.426C94.0382 86.508 90.2702 84.402 86.6822 84.402C83.0942 84.402 79.3262 86.514 76.4342 87.426C70.5842 89.28 67.0562 87.132 67.0562 89.394C67.0562 91.662 71.1362 94.116 76.3562 96C79.4882 97.134 82.6202 98.706 86.6822 98.706C90.7442 98.706 93.8762 97.134 97.0082 96C102.228 94.116 106.308 91.662 106.308 89.394C106.302 87.132 102.774 89.28 96.9302 87.426Z" fill="#FFB808"/>
<path d="M96.9302 86.226C94.0382 85.308 90.2702 84.402 86.6822 84.402C83.0942 84.402 79.3262 85.314 76.4342 86.226C70.5842 88.08 67.0562 87.132 67.0562 89.394C67.0562 91.662 71.1362 92.55 76.3562 94.434C79.4882 95.568 82.6202 97.14 86.6822 97.14C90.7442 97.14 93.8762 95.568 97.0082 94.434C102.228 92.55 106.308 91.656 106.308 89.394C106.302 87.132 102.774 88.08 96.9302 86.226Z" fill="#FFCF06"/>
<path d="M83.0223 26.352C83.0223 31.632 88.6203 35.91 83.3403 35.91C80.2503 35.91 77.3823 31.632 77.3823 26.352C77.3823 21.072 80.1843 16.794 83.3403 16.794C88.6203 16.794 83.0223 21.072 83.0223 26.352Z" fill="#FFDF57"/>
</svg>
