<svg width="46" height="46" viewBox="0 0 46 46" fill="none" xmlns="http://www.w3.org/2000/svg">
<g filter="url(#filter0_d_340_6239)">
<rect x="3" y="3" width="40" height="40" rx="20" fill="#FEEECE"/>
</g>
<path d="M26.9062 23.7812C26.9062 24.8173 26.4947 25.8108 25.7621 26.5434C25.0296 27.2759 24.036 27.6875 23 27.6875C21.964 27.6875 20.9704 27.2759 20.2379 26.5434C19.5053 25.8108 19.0938 24.8173 19.0938 23.7812C19.0938 22.7452 19.5053 21.7517 20.2379 21.0191C20.9704 20.2866 21.964 19.875 23 19.875C24.036 19.875 25.0296 20.2866 25.7621 21.0191C26.4947 21.7517 26.9062 22.7452 26.9062 23.7812Z" fill="#FBCD6D"/>
<path d="M13.625 16.75C12.7962 16.75 12.0013 17.0792 11.4153 17.6653C10.8292 18.2513 10.5 19.0462 10.5 19.875V29.25C10.5 30.0788 10.8292 30.8737 11.4153 31.4597C12.0013 32.0458 12.7962 32.375 13.625 32.375H32.375C33.2038 32.375 33.9987 32.0458 34.5847 31.4597C35.1708 30.8737 35.5 30.0788 35.5 29.25V19.875C35.5 19.0462 35.1708 18.2513 34.5847 17.6653C33.9987 17.0792 33.2038 16.75 32.375 16.75H30.5438C29.715 16.7498 28.9203 16.4205 28.3344 15.8344L27.0406 14.5406C26.4547 13.9545 25.66 13.6252 24.8313 13.625H21.1687C20.34 13.6252 19.5453 13.9545 18.9594 14.5406L17.6656 15.8344C17.0797 16.4205 16.285 16.7498 15.4562 16.75H13.625ZM14.4062 19.875C14.199 19.875 14.0003 19.7927 13.8538 19.6462C13.7073 19.4997 13.625 19.301 13.625 19.0938C13.625 18.8865 13.7073 18.6878 13.8538 18.5413C14.0003 18.3948 14.199 18.3125 14.4062 18.3125C14.6135 18.3125 14.8122 18.3948 14.9587 18.5413C15.1052 18.6878 15.1875 18.8865 15.1875 19.0938C15.1875 19.301 15.1052 19.4997 14.9587 19.6462C14.8122 19.7927 14.6135 19.875 14.4062 19.875ZM28.4688 23.7812C28.4688 25.2317 27.8926 26.6227 26.867 27.6482C25.8414 28.6738 24.4504 29.25 23 29.25C21.5496 29.25 20.1586 28.6738 19.133 27.6482C18.1074 26.6227 17.5312 25.2317 17.5312 23.7812C17.5312 22.3308 18.1074 20.9398 19.133 19.9143C20.1586 18.8887 21.5496 18.3125 23 18.3125C24.4504 18.3125 25.8414 18.8887 26.867 19.9143C27.8926 20.9398 28.4688 22.3308 28.4688 23.7812Z" fill="#FBCD6D"/>
<defs>
<filter id="filter0_d_340_6239" x="0" y="0" width="46" height="46" filterUnits="userSpaceOnUse" color-interpolation-filters="sRGB">
<feFlood flood-opacity="0" result="BackgroundImageFix"/>
<feColorMatrix in="SourceAlpha" type="matrix" values="0 0 0 0 0 0 0 0 0 0 0 0 0 0 0 0 0 0 127 0" result="hardAlpha"/>
<feOffset/>
<feGaussianBlur stdDeviation="1.5"/>
<feComposite in2="hardAlpha" operator="out"/>
<feColorMatrix type="matrix" values="0 0 0 0 0 0 0 0 0 0 0 0 0 0 0 0 0 0 0.1 0"/>
<feBlend mode="normal" in2="BackgroundImageFix" result="effect1_dropShadow_340_6239"/>
<feBlend mode="normal" in="SourceGraphic" in2="effect1_dropShadow_340_6239" result="shape"/>
</filter>
</defs>
</svg>
