<svg width="180" height="184" viewBox="0 0 180 184" fill="none" xmlns="http://www.w3.org/2000/svg">
<path d="M99.3063 163.165C100.338 165.424 102.906 166.505 105.214 165.733C105.727 167.606 107.347 169.059 109.403 169.255C111.319 169.437 113.08 168.469 114.006 166.911C116.027 167.739 118.427 167.108 119.753 165.249C121.296 163.08 120.791 160.07 118.623 158.527L114.448 155.552C114.147 155.334 113.824 155.166 113.501 155.032C112.624 154.569 111.522 154.246 110.315 154.127C109.249 154.029 108.239 154.106 107.361 154.317C107.298 154.331 107.235 154.345 107.172 154.359C107.151 154.366 107.13 154.373 107.109 154.373C106.968 154.408 106.835 154.45 106.702 154.499C106.688 154.506 106.674 154.513 106.653 154.52C106.555 154.555 106.456 154.59 106.358 154.639L106.337 154.646C106.295 154.667 106.253 154.689 106.211 154.703L101.699 156.765C99.2642 157.881 98.1977 160.744 99.3063 163.165Z" fill="#B59F43"/>
<path d="M118.616 157.123L114.441 154.148C114.259 154.015 114.062 153.903 113.866 153.804L113.536 145.055C113.641 143.651 112.596 142.423 111.193 142.318C109.789 142.213 108.561 143.258 108.456 144.662L106.807 153.061C106.772 153.075 106.73 153.082 106.695 153.096C106.681 153.103 106.667 153.11 106.646 153.117C106.548 153.152 106.449 153.187 106.351 153.236L106.33 153.243C106.288 153.264 106.246 153.285 106.204 153.299L101.692 155.362C99.2714 156.471 98.2048 159.327 99.3135 161.747C100.345 164.007 102.913 165.087 105.221 164.315C105.734 166.189 107.355 167.641 109.41 167.838C111.326 168.02 113.087 167.052 114.013 165.494C116.034 166.322 118.434 165.691 119.76 163.831C121.29 161.677 120.784 158.667 118.616 157.123Z" fill="#FFDF57"/>
<path d="M81.4353 163.165C80.4038 165.424 77.8357 166.505 75.5273 165.733C75.015 167.606 73.3942 169.059 71.3383 169.255C69.4228 169.437 67.6616 168.469 66.7354 166.911C64.7146 167.739 62.315 167.108 60.9888 165.249C59.4452 163.08 59.9504 160.07 62.1185 158.527L66.2934 155.552C66.5951 155.334 66.9179 155.166 67.2406 155.032C68.1177 154.569 69.2193 154.246 70.4262 154.127C71.4927 154.029 72.5031 154.106 73.3802 154.317C73.4433 154.331 73.5065 154.345 73.5696 154.359C73.5907 154.366 73.6117 154.373 73.6328 154.373C73.7731 154.408 73.9064 154.45 74.0397 154.499C74.0538 154.506 74.0678 154.513 74.0889 154.52C74.1871 154.555 74.2853 154.59 74.3836 154.639L74.4046 154.646C74.4467 154.667 74.4888 154.689 74.5309 154.703L79.0426 156.765C81.4774 157.881 82.5369 160.744 81.4353 163.165Z" fill="#B59F43"/>
<path d="M79.0567 155.369L74.5451 153.306C74.503 153.285 74.4609 153.264 74.4188 153.25L74.3977 153.243C74.2995 153.201 74.2012 153.166 74.103 153.124C74.089 153.117 74.0749 153.11 74.0539 153.103C74.0188 153.089 73.9767 153.082 73.9416 153.068L72.2927 144.669C72.1875 143.265 70.9596 142.213 69.5562 142.325C68.1529 142.43 67.1004 143.658 67.2127 145.062L66.8829 153.811C66.6864 153.91 66.49 154.022 66.3075 154.155L62.1327 157.13C59.9645 158.674 59.4593 161.684 61.003 163.852C62.3291 165.712 64.7218 166.343 66.7496 165.515C67.6688 167.073 69.4299 168.041 71.3525 167.859C73.4014 167.662 75.0222 166.21 75.5414 164.336C77.8499 165.108 80.411 164.028 81.4494 161.768C82.537 159.341 81.4775 156.478 79.0567 155.369Z" fill="#FFDF57"/>
<path d="M146.325 87.4622C144.388 55.5506 119.865 22.6918 89.8902 22.6918C59.9152 22.6918 35.3921 55.5506 33.4555 87.4622C30.1156 93.9596 28.2632 100.661 28.2632 106.898C28.2632 130.972 55.8596 150.486 89.8972 150.486C123.935 150.486 151.531 130.972 151.531 106.898C151.524 100.661 149.665 93.9596 146.325 87.4622Z" fill="#FFF8DC"/>
<path d="M91.4197 30.5153C91.4197 34.8376 86.8379 38.3388 91.1601 38.3388C93.6931 38.3388 96.0367 34.8376 96.0367 30.5153C96.0367 26.1931 93.7422 22.6918 91.1601 22.6918C86.8379 22.6918 91.4197 26.1931 91.4197 30.5153Z" fill="#F7D857"/>
<path d="M104.211 99.1941C100.829 98.1205 96.4227 95.6577 92.2268 95.6577C88.0308 95.6577 83.6244 98.1276 80.2424 99.1941C73.4012 101.362 69.2754 98.8503 69.2754 101.496C69.2754 104.148 74.0467 107.018 80.1512 109.221C83.8138 110.547 87.4765 112.385 92.2268 112.385C96.977 112.385 100.64 110.547 104.302 109.221C110.407 107.018 115.178 104.148 115.178 101.496C115.171 98.8503 111.045 101.362 104.211 99.1941Z" fill="#FFB808"/>
<path d="M104.211 97.7908C100.829 96.7172 96.4227 95.6577 92.2268 95.6577C88.0308 95.6577 83.6244 96.7242 80.2424 97.7908C73.4012 99.9589 69.2754 98.8503 69.2754 101.496C69.2754 104.148 74.0467 105.186 80.1512 107.39C83.8138 108.716 87.4765 110.554 92.2268 110.554C96.977 110.554 100.64 108.716 104.302 107.39C110.407 105.186 115.178 104.141 115.178 101.496C115.171 98.8503 111.045 99.9589 104.211 97.7908Z" fill="#FFCF06"/>
<path d="M87.9467 27.442C87.9467 33.6166 94.4932 38.6195 88.3186 38.6195C84.705 38.6195 81.3511 33.6166 81.3511 27.442C81.3511 21.2674 84.6278 16.2645 88.3186 16.2645C94.4932 16.2715 87.9467 21.2744 87.9467 27.442Z" fill="#FFDF57"/>
<path d="M116.715 105.299C109.796 120.16 99.6224 129.871 106.141 132.909C112.659 135.947 125.282 136.214 136.958 123.549C148.241 111.305 150.465 100.899 147.827 95.4963C144.936 89.5883 123.64 90.4373 116.715 105.299Z" fill="#FFEEC0"/>
<path d="M66.8195 105.299C73.7379 120.16 83.912 129.871 77.3936 132.909C70.8751 135.947 58.2522 136.214 46.5765 123.549C35.3008 111.298 33.0695 100.899 35.7148 95.4963C38.5986 89.5883 59.9011 90.4373 66.8195 105.299Z" fill="#FFEEC0"/>
<path d="M98.2959 88.3253C98.2959 88.3253 99.9167 83.7434 103.881 83.7434C107.846 83.7434 109.803 89.476 109.803 89.476" stroke="#443E3E" stroke-width="4" stroke-miterlimit="10" stroke-linecap="round" stroke-linejoin="round"/>
<path d="M86.1503 88.3253C86.1503 88.3253 84.5295 83.7434 80.5651 83.7434C76.6007 83.7434 74.6431 89.476 74.6431 89.476" stroke="#443E3E" stroke-width="4" stroke-miterlimit="10" stroke-linecap="round" stroke-linejoin="round"/>
</svg>
