<svg width="96" height="96" viewBox="0 0 96 96" fill="none" xmlns="http://www.w3.org/2000/svg">
<circle cx="48" cy="48" r="48" fill="#F2F2F2"/>
<path d="M36.1533 39.7005C30.7095 33.7021 25.8705 26.0434 24.7348 25.8654C23.5992 25.6905 23.0862 29.3464 22.2086 30.1441C21.7757 30.5354 21.6956 28.2968 20.8417 28.9106C19.9877 29.5244 19.7654 31.7185 19.2494 33.3196C18.9144 34.3604 17.8292 32.0387 17.8262 35.7896C17.8232 38.7428 18.0515 43.2882 19.9047 47.3445C24.468 57.3219 30.2202 61.3307 34.1756 61.1024C38.4987 60.8563 43.4148 47.6973 36.1533 39.7005Z" fill="#FFEEC0"/>
<path d="M61.4722 59.8928C66.8923 65.9149 71.6957 73.5974 72.8284 73.7783C73.964 73.9592 74.4948 70.3062 75.3754 69.5115C75.8083 69.1202 75.8795 71.3588 76.7393 70.7509C77.5963 70.1431 77.8275 67.949 78.3494 66.3478C78.6874 65.3071 79.7637 67.6347 79.7845 63.8838C79.7993 60.9306 79.5947 56.3822 77.7593 52.32C73.2435 42.3218 67.5061 38.2893 63.5507 38.4969C59.2217 38.7252 54.2463 51.8634 61.4722 59.8928Z" fill="#FFEEC0"/>
<path d="M51.7672 79.833C52.2031 80.7877 53.2883 81.2443 54.2638 80.9182C54.4802 81.7099 55.1652 82.3236 56.0339 82.4066C56.8464 82.4837 57.5876 82.0746 57.979 81.4163C58.833 81.7662 59.847 81.4993 60.4074 80.7136C61.0597 79.7974 60.8463 78.5254 59.9301 77.873L58.1658 76.6158C58.0383 76.5239 57.9019 76.4528 57.7655 76.3964C57.3949 76.2007 56.9294 76.0643 56.4194 76.0139C55.9687 75.9724 55.5417 76.005 55.1711 76.094C55.1444 76.0999 55.1177 76.1059 55.091 76.1118C55.0822 76.1148 55.0733 76.1177 55.0644 76.1177C55.0051 76.1325 54.9487 76.1503 54.8924 76.1711C54.8865 76.1741 54.8805 76.177 54.8716 76.18C54.8301 76.1948 54.7886 76.2096 54.7471 76.2304L54.7382 76.2334C54.7204 76.2423 54.7026 76.2511 54.6848 76.2571L52.7783 77.1288C51.7494 77.6032 51.2987 78.81 51.7672 79.833Z" fill="#B59F43"/>
<path d="M59.9242 77.2799L58.16 76.0227C58.0829 75.9664 57.9999 75.9189 57.9169 75.8774L57.7775 72.18C57.822 71.587 57.3802 71.0681 56.7872 71.0236C56.1942 70.9791 55.6753 71.4209 55.6308 72.0139L54.934 75.5631C54.9192 75.5691 54.9014 75.572 54.8866 75.5779C54.8806 75.5809 54.8747 75.5839 54.8658 75.5868C54.8243 75.6017 54.7828 75.6165 54.7413 75.6373L54.7324 75.6402C54.7146 75.6491 54.6968 75.658 54.679 75.6639L52.7725 76.5357C51.7495 77.0042 51.2988 78.2109 51.7673 79.2339C52.2032 80.1886 53.2884 80.6453 54.2639 80.3191C54.4804 81.1108 55.1653 81.7246 56.0341 81.8076C56.8435 81.8847 57.5878 81.4755 57.9791 80.8172C58.8331 81.1671 59.8471 80.9003 60.4075 80.1145C61.0539 79.2042 60.8404 77.9322 59.9242 77.2799Z" fill="#FFDF57"/>
<path d="M44.2124 79.833C43.7765 80.7877 42.6913 81.2443 41.7158 80.9182C41.4993 81.7099 40.8144 82.3236 39.9456 82.4066C39.1362 82.4837 38.3919 82.0746 38.0006 81.4163C37.1466 81.7662 36.1326 81.4993 35.5722 80.7136C34.9198 79.7974 35.1333 78.5254 36.0495 77.873L37.8138 76.6158C37.9413 76.5239 38.0776 76.4528 38.214 76.3964C38.5847 76.2007 39.0502 76.0643 39.5602 76.0139C40.0109 75.9724 40.4378 76.005 40.8085 76.094C40.8352 76.0999 40.8619 76.1059 40.8885 76.1118C40.8974 76.1148 40.9063 76.1177 40.9152 76.1177C40.9745 76.1325 41.0309 76.1503 41.0872 76.1711C41.0931 76.1741 41.0991 76.177 41.108 76.18C41.1495 76.1948 41.191 76.2096 41.2325 76.2304L41.2414 76.2334C41.2592 76.2423 41.277 76.2511 41.2948 76.2571L43.2013 77.1288C44.2302 77.6032 44.6809 78.81 44.2124 79.833Z" fill="#B59F43"/>
<path d="M43.2072 76.5419L41.3006 75.6702C41.2828 75.6613 41.265 75.6524 41.2472 75.6465L41.2383 75.6435C41.1968 75.6257 41.1553 75.6109 41.1138 75.5931C41.1079 75.5901 41.102 75.5872 41.0931 75.5842C41.0782 75.5783 41.0604 75.5753 41.0456 75.5694L40.3488 72.0202C40.3043 71.4272 39.7855 70.9824 39.1924 71.0298C38.5994 71.0743 38.1547 71.5932 38.2021 72.1862L38.0628 75.8837C37.9797 75.9252 37.8967 75.9726 37.8196 76.029L36.0554 77.2861C35.1392 77.9385 34.9257 79.2105 35.578 80.1267C36.1384 80.9124 37.1495 81.1793 38.0064 80.8294C38.3948 81.4877 39.1391 81.8968 39.9515 81.8197C40.8173 81.7367 41.5022 81.123 41.7217 80.3313C42.6972 80.6574 43.7794 80.2008 44.2182 79.2461C44.6808 78.2172 44.2301 77.0104 43.2072 76.5419Z" fill="#FFDF57"/>
<path d="M71.6365 48.2283C70.8181 34.7432 60.4552 18.459 47.7884 18.459C35.1216 18.459 24.7586 34.7432 23.9403 48.2283C22.5289 50.974 21.7461 53.8057 21.7461 56.4416C21.7461 66.6148 33.4077 74.8607 47.7913 74.8607C62.1749 74.8607 73.8366 66.6148 73.8366 56.4416C73.8306 53.8057 73.0478 50.974 71.6365 48.2283Z" fill="#FFF8DC"/>
<path d="M53.6301 45.1382C54.9516 45.1382 56.0229 44.0669 56.0229 42.7454C56.0229 41.4238 54.9516 40.3525 53.6301 40.3525C52.3086 40.3525 51.2373 41.4238 51.2373 42.7454C51.2373 44.0669 52.3086 45.1382 53.6301 45.1382Z" fill="#443E3E"/>
<path d="M44.3401 45.1382C45.6616 45.1382 46.7329 44.0669 46.7329 42.7454C46.7329 41.4238 45.6616 40.3525 44.3401 40.3525C43.0186 40.3525 41.9473 41.4238 41.9473 42.7454C41.9473 44.0669 43.0186 45.1382 44.3401 45.1382Z" fill="#443E3E"/>
<path d="M48.4321 18.4584C48.4321 20.2849 46.4959 21.7645 48.3224 21.7645C49.3928 21.7645 50.3831 20.2849 50.3831 18.4584C50.3831 16.6319 49.4135 15.1523 48.3224 15.1523C46.4959 15.1523 48.4321 16.6319 48.4321 18.4584Z" fill="#F7D857"/>
<path d="M46.9669 17.1628C46.9669 19.7721 49.7333 21.8862 47.124 21.8862C45.597 21.8862 44.1797 19.7721 44.1797 17.1628C44.1797 14.5536 45.5644 12.4395 47.124 12.4395C49.7333 12.4395 46.9669 14.5536 46.9669 17.1628Z" fill="#FFDF57"/>
<path d="M48.835 55.8306C48.835 58.2679 53.9794 59.7207 54.9163 59.3412C55.8533 58.9617 55.8414 52.8981 54.9163 52.3199C53.9912 51.7417 48.835 53.3933 48.835 55.8306Z" fill="#ED9B5F"/>
<path d="M48.835 55.5337C48.835 57.971 53.9794 59.4239 54.9163 59.0443C55.8533 58.6648 55.8414 52.6012 54.9163 52.023C53.9912 51.4448 48.835 53.0964 48.835 55.5337Z" fill="#FFBB83"/>
<path d="M48.8353 55.8306C48.8353 58.2679 43.6909 59.7207 42.7539 59.3412C41.817 58.9617 41.8288 52.8981 42.7539 52.3199C43.682 51.7417 48.8353 53.3933 48.8353 55.8306Z" fill="#ED9B5F"/>
<path d="M48.8353 55.5337C48.8353 57.971 43.6909 59.4239 42.7539 59.0443C41.817 58.6648 41.8288 52.6012 42.7539 52.023C43.682 51.4448 48.8353 53.0964 48.8353 55.5337Z" fill="#FFBB83"/>
<path d="M49.998 55.2403C49.998 55.2403 52.9335 55.6347 53.2033 55.0061C53.4375 54.6977 53.3634 54.3123 52.803 54.1848C52.2426 54.0602 49.998 55.1425 49.998 55.2403Z" fill="#ED9B5F"/>
<path d="M49.9355 55.7795C49.9355 55.7795 51.682 57.6148 52.1979 57.3391C52.5181 57.259 52.6753 56.9625 52.3699 56.5771C52.0645 56.1916 49.986 55.7142 49.9355 55.7795Z" fill="#ED9B5F"/>
<path d="M47.676 55.2403C47.676 55.2403 44.7405 55.6347 44.4707 55.0061C44.2365 54.6977 44.3106 54.3123 44.871 54.1848C45.4314 54.0602 47.676 55.1425 47.676 55.2403Z" fill="#ED9B5F"/>
<path d="M47.7382 55.7795C47.7382 55.7795 45.9918 57.6148 45.4759 57.3391C45.1556 57.259 44.9985 56.9625 45.3039 56.5771C45.6093 56.1916 47.6848 55.7142 47.7382 55.7795Z" fill="#ED9B5F"/>
<path d="M49.7071 57.2471H47.9696C47.5693 57.2471 47.2432 56.9209 47.2432 56.5206V54.7831C47.2432 54.3828 47.5693 54.0566 47.9696 54.0566H49.7071C50.1074 54.0566 50.4336 54.3828 50.4336 54.7831V56.5206C50.4306 56.9239 50.1074 57.2471 49.7071 57.2471Z" fill="#FFAB66"/>
<path d="M53.8373 47.3411C52.4082 46.8874 50.5461 45.8467 48.773 45.8467C46.9999 45.8467 45.1378 46.8904 43.7086 47.3411C40.8177 48.2573 39.0742 47.1958 39.0742 48.3136C39.0742 49.4344 41.0905 50.6471 43.6701 51.5782C45.2179 52.1386 46.7656 52.9154 48.773 52.9154C50.7803 52.9154 52.3281 52.1386 53.8759 51.5782C56.4555 50.6471 58.4718 49.4344 58.4718 48.3136C58.4718 47.1958 56.7283 48.2573 53.8373 47.3411Z" fill="#FFB808"/>
<path d="M53.8373 46.7481C52.4082 46.2944 50.5461 45.8467 48.773 45.8467C46.9999 45.8467 45.1378 46.2974 43.7086 46.7481C40.8177 47.6643 39.0742 47.1958 39.0742 48.3136C39.0742 49.4344 41.0905 49.8733 43.6701 50.8043C45.2179 51.3647 46.7656 52.1415 48.773 52.1415C50.7803 52.1415 52.3281 51.3647 53.8759 50.8043C56.4555 49.8733 58.4718 49.4315 58.4718 48.3136C58.4718 47.1958 56.7283 47.6643 53.8373 46.7481Z" fill="#FFCF06"/>
</svg>
