<svg width="96" height="96" viewBox="0 0 96 96" fill="none" xmlns="http://www.w3.org/2000/svg">
<circle cx="48" cy="48" r="48" fill="#F2F2F2"/>
<path d="M52.2283 80.7783C52.6782 81.7639 53.7985 82.2353 54.8056 81.8986C55.029 82.7159 55.7361 83.3495 56.633 83.4352C57.4686 83.5148 58.2369 83.0924 58.6409 82.4128C59.5225 82.774 60.5693 82.4986 61.1479 81.6874C61.8213 80.7416 61.6009 79.4284 60.655 78.755L58.8338 77.4572C58.7022 77.3623 58.5614 77.2888 58.4206 77.2307C58.0379 77.0286 57.5574 76.8878 57.0309 76.8358C56.5656 76.793 56.1248 76.8266 55.7422 76.9184C55.7147 76.9246 55.6871 76.9307 55.6596 76.9368C55.6504 76.9399 55.6412 76.9429 55.632 76.9429C55.5708 76.9582 55.5127 76.9766 55.4545 76.998C55.4484 77.0011 55.4423 77.0042 55.4331 77.0072C55.3902 77.0225 55.3474 77.0378 55.3045 77.0593L55.2953 77.0623C55.277 77.0715 55.2586 77.0807 55.2402 77.0868L53.272 77.9867C52.2099 78.4734 51.7446 79.7223 52.2283 80.7783Z" fill="#B59F43"/>
<path d="M60.649 78.1424L58.8278 76.8446C58.7482 76.7864 58.6625 76.7375 58.5768 76.6946L58.4329 72.8776C58.4788 72.2654 58.0228 71.7298 57.4106 71.6838C56.7984 71.6379 56.2627 72.094 56.2168 72.7062L55.4975 76.3702C55.4822 76.3763 55.4638 76.3793 55.4485 76.3855C55.4424 76.3885 55.4363 76.3916 55.4271 76.3946C55.3842 76.4099 55.3414 76.4253 55.2985 76.4467L55.2893 76.4497C55.271 76.4589 55.2526 76.4681 55.2342 76.4742L53.266 77.3741C52.21 77.8578 51.7448 79.1036 52.2284 80.1596C52.6783 81.1452 53.7986 81.6166 54.8057 81.2799C55.0291 82.0972 55.7362 82.7308 56.6331 82.8165C57.4687 82.8961 58.237 82.4737 58.6411 81.7941C59.5226 82.1553 60.5695 81.8799 61.148 81.0687C61.8153 80.129 61.5949 78.8158 60.649 78.1424Z" fill="#FFDF57"/>
<path d="M44.4288 80.7783C43.9788 81.7639 42.8585 82.2353 41.8515 81.8986C41.628 82.7159 40.9209 83.3495 40.0241 83.4352C39.1884 83.5148 38.4201 83.0924 38.0161 82.4128C37.1345 82.774 36.0877 82.4986 35.5092 81.6874C34.8358 80.7416 35.0562 79.4284 36.002 78.755L37.8233 77.4572C37.9549 77.3623 38.0957 77.2888 38.2365 77.2307C38.6191 77.0286 39.0997 76.8878 39.6261 76.8358C40.0914 76.793 40.5322 76.8266 40.9148 76.9184C40.9424 76.9246 40.9699 76.9307 40.9975 76.9368C41.0066 76.9399 41.0158 76.9429 41.025 76.9429C41.0862 76.9582 41.1444 76.9766 41.2025 76.998C41.2087 77.0011 41.2148 77.0042 41.224 77.0072C41.2668 77.0225 41.3097 77.0378 41.3525 77.0593L41.3617 77.0623C41.3801 77.0715 41.3984 77.0807 41.4168 77.0868L43.385 77.9867C44.4471 78.4734 44.9124 79.7223 44.4288 80.7783Z" fill="#B59F43"/>
<path d="M43.3908 77.3804L41.4227 76.4805C41.4043 76.4713 41.3859 76.4621 41.3676 76.456L41.3584 76.4529C41.3155 76.4346 41.2727 76.4193 41.2298 76.4009C41.2237 76.3978 41.2176 76.3948 41.2084 76.3917C41.1931 76.3856 41.1747 76.3825 41.1594 76.3764L40.4401 72.7125C40.3942 72.1003 39.8585 71.6411 39.2463 71.6901C38.6341 71.736 38.175 72.2717 38.224 72.8839L38.0801 76.7009C37.9944 76.7437 37.9087 76.7927 37.8291 76.8509L36.0078 78.1487C35.062 78.8221 34.8416 80.1353 35.515 81.0811C36.0936 81.8922 37.1373 82.1677 38.022 81.8065C38.4229 82.4861 39.1912 82.9085 40.0299 82.8289C40.9237 82.7432 41.6308 82.1096 41.8573 81.2923C42.8644 81.629 43.9816 81.1576 44.4346 80.172C44.9121 79.1098 44.4469 77.861 43.3908 77.3804Z" fill="#FFDF57"/>
<path d="M42.7178 52.4465C43.731 64.0169 48.1541 72.9518 43.0729 73.3956C37.9948 73.8394 29.5221 70.9621 24.8174 59.6979C20.2689 48.8131 21.3065 41.3444 24.3736 38.3845C27.7284 35.1491 41.7077 40.8761 42.7178 52.4465Z" fill="#FFEEC0"/>
<path d="M72.7398 48.1518C71.895 34.2306 61.197 17.4199 48.1206 17.4199C35.0443 17.4199 24.3462 34.2306 23.5014 48.1518C22.0444 50.9862 21.2363 53.9094 21.2363 56.6306C21.2363 67.1327 33.275 75.6452 48.1237 75.6452C62.9723 75.6452 75.011 67.1327 75.011 56.6306C75.0079 53.9064 74.1968 50.9862 72.7398 48.1518Z" fill="#FFF8DC"/>
<path d="M48.7852 17.4169C48.7852 19.3024 46.7864 20.8298 48.6719 20.8298C49.7769 20.8298 50.7993 19.3024 50.7993 17.4169C50.7993 15.5313 49.7984 14.0039 48.6719 14.0039C46.7864 14.0039 48.7852 15.5344 48.7852 17.4169Z" fill="#F7D857"/>
<path d="M54.3645 47.2361C52.8891 46.7678 50.9668 45.6934 49.1364 45.6934C47.3059 45.6934 45.3837 46.7708 43.9083 47.2361C40.9239 48.1819 39.124 47.0861 39.124 48.2401C39.124 49.3971 41.2055 50.649 43.8685 51.6102C45.4663 52.1887 47.0641 52.9907 49.1364 52.9907C51.2086 52.9907 52.8064 52.1887 54.4043 51.6102C57.0673 50.649 59.1487 49.3971 59.1487 48.2401C59.1487 47.0861 57.3489 48.1819 54.3645 47.2361Z" fill="#FFB808"/>
<path d="M54.3645 46.6239C52.8891 46.1556 50.9668 45.6934 49.1364 45.6934C47.3059 45.6934 45.3837 46.1586 43.9083 46.6239C40.9239 47.5697 39.124 47.0861 39.124 48.2401C39.124 49.3971 41.2055 49.8501 43.8685 50.8113C45.4663 51.3898 47.0641 52.1917 49.1364 52.1917C51.2086 52.1917 52.8064 51.3898 54.4043 50.8113C57.0673 49.8501 59.1487 49.394 59.1487 48.2401C59.1487 47.0861 57.3489 47.5697 54.3645 46.6239Z" fill="#FFCF06"/>
<path d="M47.2728 16.0792C47.2728 18.7728 50.1287 20.9553 47.435 20.9553C45.8586 20.9553 44.3955 18.7728 44.3955 16.0792C44.3955 13.3856 45.825 11.2031 47.435 11.2031C50.1287 11.2031 47.2728 13.3856 47.2728 16.0792Z" fill="#FFDF57"/>
<path d="M60.0212 43.3463H52.4698C52.2311 43.3463 52.0352 43.1535 52.0352 42.9117V41.5343C52.0352 41.2955 52.228 41.0996 52.4698 41.0996H60.0212C60.2599 41.0996 60.4558 41.2924 60.4558 41.5343V42.9117C60.4558 43.1504 60.2599 43.3463 60.0212 43.3463Z" fill="#443E3E"/>
<path d="M46.11 43.3463H38.5587C38.3199 43.3463 38.124 43.1535 38.124 42.9117V41.5343C38.124 41.2955 38.3169 41.0996 38.5587 41.0996H46.11C46.3488 41.0996 46.5447 41.2924 46.5447 41.5343V42.9117C46.5447 43.1504 46.3488 43.3463 46.11 43.3463Z" fill="#443E3E"/>
<g filter="url(#filter0_d_300_7316)">
<path d="M72.568 41.234C72.568 41.234 78.9807 45.1306 79.7888 54.7144C80.5418 63.6279 66.792 54.7144 66.792 54.7144C66.792 54.7144 70.5325 46.7682 71.4538 41.0136C71.5242 40.5637 72.4456 41.1697 72.568 41.234Z" fill="#FFF8DC"/>
</g>
<g filter="url(#filter1_d_300_7316)">
<path d="M79.7796 52.2875C79.7 50.2704 79.0388 47.6288 78.1297 47.6288C77.2696 47.6288 76.4921 50.6315 76.3268 52.2875H71.3007C71.1936 52.1712 71.0865 52.0549 70.9793 51.9478C71.0069 51.608 71.0222 51.2713 71.0222 50.9407C71.0222 48.3818 70.1223 44.626 68.9469 44.626C67.7715 44.626 66.8807 48.3052 67.0338 51.158C67.043 51.3294 67.0552 51.5131 67.0736 51.7029C67.1287 52.7834 67.2389 53.9221 67.0246 53.9741C66.8624 54.0108 66.8287 54.1853 66.5104 53.6037C65.2523 51.1427 63.7678 49.5847 62.8556 49.9367C61.7169 50.3744 61.9067 53.616 63.2749 57.1758C64.3218 59.9001 65.7176 61.6663 66.8256 62.1499C67.5297 62.5509 68.3377 62.7804 69.1948 62.7957V62.8019H73.7434C77.0798 62.8019 79.7826 60.096 79.7826 56.7626V52.2936H79.7796V52.2875Z" fill="#FFE5A4"/>
</g>
<path d="M74.187 53.6156C74.187 51.3291 73.7554 50.6924 72.3351 50.6924C70.9148 50.6924 70.624 51.8647 70.624 53.4197C70.624 54.9777 71.2852 58.9355 72.3351 58.9355C73.385 58.9355 74.187 55.8991 74.187 53.6156Z" fill="#FFD983"/>
<path d="M76.6023 53.6735C76.6023 51.488 76.189 50.8789 74.83 50.8789C73.4709 50.8789 73.1924 51.9992 73.1924 53.4899C73.1924 54.9806 73.826 58.7547 74.83 58.7547C75.834 58.7517 76.6023 55.8591 76.6023 53.6735Z" fill="#FFD983"/>
<defs>
<filter id="filter0_d_300_7316" x="62.792" y="40.8486" width="21.0264" height="25.8271" filterUnits="userSpaceOnUse" color-interpolation-filters="sRGB">
<feFlood flood-opacity="0" result="BackgroundImageFix"/>
<feColorMatrix in="SourceAlpha" type="matrix" values="0 0 0 0 0 0 0 0 0 0 0 0 0 0 0 0 0 0 127 0" result="hardAlpha"/>
<feOffset dy="4"/>
<feGaussianBlur stdDeviation="2"/>
<feComposite in2="hardAlpha" operator="out"/>
<feColorMatrix type="matrix" values="0 0 0 0 0 0 0 0 0 0 0 0 0 0 0 0 0 0 0.25 0"/>
<feBlend mode="normal" in2="BackgroundImageFix" result="effect1_dropShadow_300_7316"/>
<feBlend mode="normal" in="SourceGraphic" in2="effect1_dropShadow_300_7316" result="shape"/>
</filter>
<filter id="filter1_d_300_7316" x="58.1113" y="42.626" width="25.6709" height="26.1758" filterUnits="userSpaceOnUse" color-interpolation-filters="sRGB">
<feFlood flood-opacity="0" result="BackgroundImageFix"/>
<feColorMatrix in="SourceAlpha" type="matrix" values="0 0 0 0 0 0 0 0 0 0 0 0 0 0 0 0 0 0 127 0" result="hardAlpha"/>
<feOffset dy="2"/>
<feGaussianBlur stdDeviation="2"/>
<feComposite in2="hardAlpha" operator="out"/>
<feColorMatrix type="matrix" values="0 0 0 0 0 0 0 0 0 0 0 0 0 0 0 0 0 0 0.15 0"/>
<feBlend mode="normal" in2="BackgroundImageFix" result="effect1_dropShadow_300_7316"/>
<feBlend mode="normal" in="SourceGraphic" in2="effect1_dropShadow_300_7316" result="shape"/>
</filter>
</defs>
</svg>
