<svg width="96" height="96" viewBox="0 0 96 96" fill="none" xmlns="http://www.w3.org/2000/svg">
<circle cx="48" cy="48" r="48" fill="#F2F2F2"/>
<path d="M52.9707 82.6045C53.4221 83.5933 54.546 84.0662 55.5563 83.7284C55.7805 84.5483 56.4898 85.1839 57.3895 85.2699C58.2279 85.3497 58.9986 84.926 59.404 84.2443C60.2883 84.6066 61.3385 84.3303 61.9189 83.5165C62.5945 82.5676 62.3734 81.2503 61.4245 80.5747L59.5974 79.2727C59.4654 79.1775 59.3241 79.1038 59.1829 79.0455C58.799 78.8428 58.3169 78.7015 57.7887 78.6493C57.322 78.6064 56.8798 78.6401 56.4959 78.7322C56.4683 78.7384 56.4407 78.7445 56.413 78.7507C56.4038 78.7537 56.3946 78.7568 56.3854 78.7568C56.324 78.7722 56.2656 78.7906 56.2073 78.8121C56.2012 78.8152 56.195 78.8182 56.1858 78.8213C56.1428 78.8367 56.0998 78.852 56.0568 78.8735L56.0476 78.8766C56.0292 78.8858 56.0108 78.895 55.9923 78.9011L54.0178 79.804C52.9523 80.2922 52.4886 81.5451 52.9707 82.6045Z" fill="#B59F43"/>
<path d="M61.4218 79.961L59.5947 78.659C59.5148 78.6007 59.4289 78.5515 59.3429 78.5085L59.1985 74.6793C59.2446 74.0652 58.7871 73.5278 58.1729 73.4817C57.5588 73.4356 57.0214 73.8932 56.9753 74.5073L56.2537 78.183C56.2383 78.1892 56.2199 78.1923 56.2046 78.1984C56.1984 78.2015 56.1923 78.2045 56.1831 78.2076C56.1401 78.223 56.0971 78.2383 56.0541 78.2598L56.0449 78.2629C56.0264 78.2721 56.008 78.2813 55.9896 78.2874L54.0151 79.1903C52.9557 79.6754 52.4889 80.9252 52.9741 81.9846C53.4255 82.9734 54.5494 83.4463 55.5597 83.1085C55.7839 83.9284 56.4932 84.5641 57.3929 84.6501C58.2313 84.7299 59.002 84.3061 59.4074 83.6244C60.2917 83.9868 61.3419 83.7104 61.9223 82.8967C62.5917 81.9539 62.3706 80.6366 61.4218 79.961Z" fill="#FFDF57"/>
<path d="M45.15 82.6045C44.6986 83.5933 43.5747 84.0662 42.5645 83.7284C42.3403 84.5483 41.6309 85.1839 40.7312 85.2699C39.8929 85.3497 39.1221 84.926 38.7168 84.2443C37.8324 84.6066 36.7822 84.3303 36.2018 83.5165C35.5263 82.5676 35.7474 81.2503 36.6962 80.5747L38.5233 79.2727C38.6554 79.1775 38.7966 79.1038 38.9379 79.0455C39.3217 78.8428 39.8038 78.7015 40.332 78.6493C40.7988 78.6064 41.241 78.6401 41.6248 78.7322C41.6524 78.7384 41.6801 78.7445 41.7077 78.7507C41.7169 78.7537 41.7261 78.7568 41.7353 78.7568C41.7968 78.7722 41.8551 78.7906 41.9134 78.8121C41.9196 78.8152 41.9257 78.8182 41.9349 78.8213C41.9779 78.8367 42.0209 78.852 42.0639 78.8735L42.0731 78.8766C42.0916 78.8858 42.11 78.895 42.1284 78.9011L44.1029 79.804C45.1685 80.2922 45.6352 81.5451 45.15 82.6045Z" fill="#B59F43"/>
<path d="M44.1088 79.1955L42.1343 78.2927C42.1158 78.2835 42.0974 78.2743 42.079 78.2682L42.0698 78.2651C42.0268 78.2467 41.9838 78.2313 41.9408 78.2129C41.9347 78.2098 41.9285 78.2067 41.9193 78.2037C41.904 78.1975 41.8855 78.1945 41.8702 78.1883L41.1485 74.5126C41.1025 73.8985 40.5651 73.4379 39.9509 73.487C39.3368 73.5331 38.8762 74.0704 38.9253 74.6846L38.781 78.5138C38.695 78.5568 38.609 78.6059 38.5292 78.6643L36.7021 79.9663C35.7532 80.6419 35.5321 81.9592 36.2077 82.9081C36.7881 83.7218 37.8352 83.9982 38.7226 83.6358C39.1249 84.3176 39.8957 84.7413 40.7371 84.6615C41.6337 84.5755 42.3431 83.9399 42.5703 83.12C43.5806 83.4577 44.7014 82.9848 45.1559 81.9961C45.6349 80.9305 45.1682 79.6776 44.1088 79.1955Z" fill="#FFDF57"/>
<path d="M40.6943 52.4224C41.7107 64.0299 46.148 72.9935 41.0505 73.4387C35.9561 73.884 27.4563 70.9975 22.7365 59.6971C18.1734 48.7775 19.2143 41.2848 22.2912 38.3154C25.6537 35.0696 39.6779 40.8119 40.6943 52.4224Z" fill="#FFEEC0"/>
<path d="M56.7792 53.2299C56.7792 64.8834 53.1403 74.197 58.2562 74.197C63.3721 74.197 71.5864 70.5797 75.302 58.9139C78.8948 47.638 77.2059 40.2651 73.8833 37.5751C70.2506 34.6334 56.7792 41.5763 56.7792 53.2299Z" fill="#FFEEC0"/>
<path d="M73.5514 49.8734C72.7039 35.9076 61.9716 19.043 48.8533 19.043C35.735 19.043 25.0027 35.9076 24.1552 49.8734C22.6935 52.7169 21.8828 55.6495 21.8828 58.3794C21.8828 68.9152 33.9601 77.455 48.8564 77.455C63.7526 77.455 75.8299 68.9152 75.8299 58.3794C75.8238 55.6464 75.01 52.7169 73.5514 49.8734Z" fill="#FFF8DC"/>
<path d="M55.1174 48.9549C53.6373 48.4851 51.7089 47.4072 49.8726 47.4072C48.0363 47.4072 46.1078 48.4881 44.6277 48.9549C41.6337 49.9038 39.8281 48.8044 39.8281 49.9621C39.8281 51.1228 41.9162 52.3788 44.5878 53.343C46.1907 53.9234 47.7937 54.7279 49.8726 54.7279C51.9515 54.7279 53.5544 53.9234 55.1574 53.343C57.8289 52.3788 59.917 51.1228 59.917 49.9621C59.914 48.8044 58.1114 49.9038 55.1174 48.9549Z" fill="#FFB808"/>
<path d="M55.1174 48.3407C53.6373 47.8709 51.7089 47.4072 49.8726 47.4072C48.0363 47.4072 46.1078 47.874 44.6277 48.3407C41.6337 49.2896 39.8281 48.8044 39.8281 49.9621C39.8281 51.1228 41.9162 51.5773 44.5878 52.5415C46.1907 53.1219 47.7937 53.9264 49.8726 53.9264C51.9515 53.9264 53.5544 53.1219 55.1574 52.5415C57.8289 51.5773 59.917 51.1198 59.917 49.9621C59.914 48.8044 58.1114 49.2896 55.1174 48.3407Z" fill="#FFCF06"/>
<path d="M61.8548 36.4946C57.7185 36.0954 54.5095 36.295 54.5095 36.295C52.6026 36.5008 50.886 38.2664 50.7571 40.0598C50.5022 41.2389 51.0396 42.9033 51.6844 44.2913C53.7265 48.3692 55.3417 49.7542 58.9529 50.2271C63.4608 50.8412 67.0843 47.838 67.2133 43.714C67.2133 39.6145 65.9788 36.8907 61.8548 36.4946Z" fill="#443E3E"/>
<path d="M36.4991 36.4946C40.6354 36.0954 43.8444 36.295 43.8444 36.295C45.7513 36.5008 47.4679 38.2664 47.5968 40.0598C47.8517 41.2389 47.3143 42.9033 46.6695 44.2913C44.6274 48.3692 43.0122 49.7542 39.401 50.2271C34.8931 50.8412 31.2696 47.838 31.1406 43.714C31.1406 39.6145 32.3781 36.8907 36.4991 36.4946Z" fill="#443E3E"/>
<path d="M57.9304 38.3066H40.7188V36.2799L55.7102 36.2461L57.9304 36.2891V38.3066Z" fill="#443E3E"/>
<path d="M47.7568 39.9585C46.722 40.3147 47.1335 43.1736 47.1335 43.1736C47.1335 43.1736 48.5122 41.5737 49.194 41.6474C49.8757 41.7211 50.9965 42.6362 51.2544 43.2749C51.5124 43.9137 51.1992 40.4007 50.7539 40.0599C50.2134 39.6115 48.7917 39.6023 47.7568 39.9585Z" fill="#443E3E"/>
<path d="M30.3119 41.4606H34.2701C34.7921 41.4606 35.2128 41.0369 35.2128 40.5179C35.2128 39.9959 34.789 39.5752 34.2701 39.5752H30.3119C29.7898 39.5752 29.3691 39.999 29.3691 40.5179C29.3691 41.0369 29.7898 41.4606 30.3119 41.4606Z" fill="#443E3E"/>
<path d="M64.3792 41.4606H68.3375C68.8595 41.4606 69.2802 41.0369 69.2802 40.5179C69.2802 39.9959 68.8564 39.5752 68.3375 39.5752H64.3792C63.8572 39.5752 63.4365 39.999 63.4365 40.5179C63.4365 41.0369 63.8572 41.4606 64.3792 41.4606Z" fill="#443E3E"/>
<path d="M57.2238 18.7233L55.6116 12.2317C55.6116 12.2255 55.6116 12.2378 55.6116 12.2317C55.2462 10.8775 54.5614 9.86719 53.2655 9.86719C53.0966 9.86719 52.9339 9.88561 52.7773 9.91939L52.7681 9.92246C52.6176 9.95624 52.4702 10.0023 52.332 10.0606L52.3259 10.0637C52.3259 10.0637 52.3197 10.0668 52.3105 10.0729C52.1969 10.1251 52.0864 10.1835 51.982 10.251C51.291 10.6195 49.728 11.4056 48.988 11.4056C48.1404 11.4056 46.3993 10.4476 45.9418 10.1896C45.9111 10.1712 45.8804 10.1528 45.8497 10.1374C45.8404 10.1313 45.8312 10.1282 45.8312 10.1282C45.5119 9.96238 45.1465 9.87026 44.7626 9.87026C43.4667 9.87026 42.7298 10.988 42.3674 12.2194L40.7583 18.6956C34.9485 19.362 30.9688 20.7254 30.9688 22.2976C30.9688 24.527 38.9742 26.3357 48.8529 26.3357C58.7315 26.3357 66.737 24.527 66.737 22.2976C66.7339 20.7438 62.8801 19.4019 57.2238 18.7233Z" fill="#3BC3E2"/>
</svg>
