<svg width="96" height="96" viewBox="0 0 96 96" fill="none" xmlns="http://www.w3.org/2000/svg">
<circle cx="48" cy="48" r="48" fill="#F2F2F2"/>
<path d="M32.3605 36.0915C23.8051 35.2353 14.5446 32.6353 13.5248 33.3026C12.5049 33.9731 14.6989 37.2184 14.5729 38.4711C14.51 39.0881 12.8543 37.382 12.6182 38.4711C12.379 39.5602 13.764 41.4488 14.4974 43.0793C14.9727 44.137 12.4671 43.0793 15.1301 46.0382C17.2264 48.3674 20.6385 51.7921 24.9823 53.6713C35.6719 58.2952 43.0563 57.3635 46.0152 54.3732C49.251 51.1028 43.7709 37.2341 32.3605 36.0915Z" fill="#FFEEC0"/>
<path d="M54.9862 81.8681C55.4489 82.8816 56.601 83.3664 57.6366 83.0201C57.8664 83.8606 58.5935 84.5121 59.5157 84.6003C60.3751 84.6821 61.1651 84.2477 61.5806 83.5489C62.4872 83.9204 63.5637 83.6371 64.1586 82.8029C64.8511 81.8303 64.6244 80.48 63.6518 79.7875L61.7789 78.4528C61.6436 78.3553 61.4988 78.2797 61.354 78.2199C60.9605 78.0122 60.4663 77.8674 59.9249 77.8139C59.4465 77.7698 58.9932 77.8044 58.5998 77.8989C58.5714 77.9052 58.5431 77.9114 58.5148 77.9177C58.5053 77.9209 58.4959 77.924 58.4865 77.924C58.4235 77.9398 58.3637 77.9587 58.3039 77.9807C58.2976 77.9838 58.2913 77.987 58.2819 77.9901C58.2378 78.0059 58.1937 78.0216 58.1496 78.0436L58.1402 78.0468C58.1213 78.0562 58.1024 78.0657 58.0835 78.072L56.0596 78.9974C54.9673 79.4979 54.492 80.7821 54.9862 81.8681Z" fill="#B59F43"/>
<path d="M63.6489 79.1576L61.7761 77.823C61.6942 77.7632 61.6061 77.7128 61.518 77.6687L61.37 73.7436C61.4172 73.114 60.9482 72.5632 60.3187 72.516C59.6891 72.4688 59.1383 72.9378 59.0911 73.5673L58.3514 77.3351C58.3356 77.3414 58.3168 77.3445 58.301 77.3508C58.2947 77.354 58.2884 77.3571 58.279 77.3603C58.2349 77.376 58.1909 77.3917 58.1468 77.4138L58.1373 77.4169C58.1185 77.4264 58.0996 77.4358 58.0807 77.4421L56.0567 78.3675C54.9708 78.8648 54.4923 80.146 54.9897 81.2319C55.4524 82.2455 56.6044 82.7302 57.64 82.384C57.8698 83.2244 58.5969 83.876 59.5192 83.9641C60.3785 84.0459 61.1686 83.6116 61.5841 82.9128C62.4906 83.2842 63.5671 83.0009 64.162 82.1668C64.8482 81.2004 64.6216 79.8501 63.6489 79.1576Z" fill="#FFDF57"/>
<path d="M46.9689 81.8681C46.5062 82.8816 45.3542 83.3664 44.3186 83.0201C44.0888 83.8606 43.3617 84.5121 42.4394 84.6003C41.5801 84.6821 40.79 84.2477 40.3746 83.5489C39.468 83.9204 38.3915 83.6371 37.7966 82.8029C37.1041 81.8303 37.3307 80.48 38.3034 79.7875L40.1762 78.4528C40.3116 78.3553 40.4564 78.2797 40.6012 78.2199C40.9946 78.0122 41.4888 77.8674 42.0302 77.8139C42.5087 77.7698 42.9619 77.8044 43.3554 77.8989C43.3837 77.9052 43.4121 77.9114 43.4404 77.9177C43.4498 77.9209 43.4593 77.924 43.4687 77.924C43.5317 77.9398 43.5915 77.9587 43.6513 77.9807C43.6576 77.9838 43.6639 77.987 43.6733 77.9901C43.7174 78.0059 43.7615 78.0216 43.8055 78.0436L43.815 78.0468C43.8339 78.0562 43.8527 78.0657 43.8716 78.072L45.8956 78.9974C46.9878 79.4979 47.4663 80.7821 46.9689 81.8681Z" fill="#B59F43"/>
<path d="M45.9014 78.3738L43.8775 77.4484C43.8586 77.4389 43.8397 77.4295 43.8208 77.4232L43.8114 77.42C43.7673 77.4011 43.7232 77.3854 43.6792 77.3665C43.6729 77.3634 43.6666 77.3602 43.6571 77.3571C43.6414 77.3508 43.6225 77.3476 43.6068 77.3413L42.8671 73.5736C42.8199 72.944 42.269 72.4719 41.6395 72.5222C41.0099 72.5695 40.5378 73.1203 40.5882 73.7498L40.4402 77.675C40.3521 77.7191 40.2639 77.7694 40.1821 77.8292L38.3092 79.1638C37.3366 79.8563 37.11 81.2067 37.8025 82.1793C38.3974 83.0135 39.4707 83.2968 40.3804 82.9253C40.7928 83.6241 41.5828 84.0585 42.4453 83.9767C43.3644 83.8885 44.0915 83.2369 44.3245 82.3965C45.36 82.7428 46.5089 82.258 46.9748 81.2445C47.4658 80.1522 46.9874 78.868 45.9014 78.3738Z" fill="#FFDF57"/>
<path d="M76.0313 48.6916C75.1625 34.3759 64.1614 17.0889 50.7145 17.0889C37.2676 17.0889 26.2664 34.3759 25.3976 48.6916C23.8993 51.6064 23.0684 54.6124 23.0684 57.4107C23.0684 68.2104 35.4482 76.9641 50.7176 76.9641C65.987 76.9641 78.3669 68.2104 78.3669 57.4107C78.3606 54.6124 77.5264 51.6064 76.0313 48.6916Z" fill="#FFF8DC"/>
<path d="M50.173 45.0374C51.5759 45.0374 52.7132 43.9001 52.7132 42.4972C52.7132 41.0943 51.5759 39.957 50.173 39.957C48.7701 39.957 47.6328 41.0943 47.6328 42.4972C47.6328 43.9001 48.7701 45.0374 50.173 45.0374Z" fill="#443E3E"/>
<path d="M39.2287 44.4329C40.6316 44.4329 41.7688 43.2956 41.7688 41.8927C41.7688 40.4898 40.6316 39.3525 39.2287 39.3525C37.8258 39.3525 36.6885 40.4898 36.6885 41.8927C36.6885 43.2956 37.8258 44.4329 39.2287 44.4329Z" fill="#443E3E"/>
<path d="M51.4481 16.7108C51.4481 18.6498 49.3926 20.2205 51.3316 20.2205C52.4679 20.2205 53.5192 18.6498 53.5192 16.7108C53.5192 14.7719 52.4899 13.2012 51.3316 13.2012C49.3926 13.2012 51.4481 14.775 51.4481 16.7108Z" fill="#F7D857"/>
<path d="M49.8934 15.3355C49.8934 18.1055 52.8302 20.3498 50.0602 20.3498C48.4392 20.3498 46.9346 18.1055 46.9346 15.3355C46.9346 12.5656 48.4045 10.3213 50.0602 10.3213C52.827 10.3213 49.8934 12.5687 49.8934 15.3355Z" fill="#FFDF57"/>
<path d="M50.1731 47.1277C50.1731 48.8684 49.8552 51.7485 41.8506 51.7485C36.7325 51.7485 34.4756 50.7381 34.4756 49.0006C34.4756 47.263 35.785 45.4594 40.9032 45.4594C46.0213 45.4594 50.1731 45.387 50.1731 47.1277Z" fill="#FFB808"/>
<path d="M50.173 47.1275C50.173 44.9179 48.0389 43.1709 44.0886 43.1709C42.0709 43.1709 39.6409 43.9641 37.7302 45.0375C36.3232 45.8275 35.2341 46.775 34.7651 47.6595C34.507 48.1033 34.4346 48.7234 34.4755 49.0036C34.6424 50.1399 36.7293 51.1219 41.8506 51.1219C41.8915 51.1219 44.3939 51.0747 45.036 50.9709C49.9432 50.4358 50.173 48.0152 50.173 47.1275Z" fill="#FFCF06"/>
<path d="M44.6526 57.4732C46.2432 57.4732 47.5327 56.1837 47.5327 54.593C47.5327 53.0024 46.2432 51.7129 44.6526 51.7129C43.0619 51.7129 41.7725 53.0024 41.7725 54.593C41.7725 56.1837 43.0619 57.4732 44.6526 57.4732Z" fill="#D1D1D1"/>
<path d="M48.8984 62.3048C48.3067 62.6322 47.5607 62.4496 47.1829 61.8894L44.0762 57.2654L47.2176 55.5342L49.4619 60.6303C49.7357 61.2535 49.4902 61.9775 48.8984 62.3048Z" fill="#D1D1D1"/>
<path d="M47.8541 56.9824C47.8541 56.9824 47.3725 57.7064 46.5982 58.1313C45.8238 58.5563 44.9551 58.5752 44.9551 58.5752L46.2614 60.5204C46.2614 60.5204 46.7618 60.4669 47.6212 59.9948C48.4805 59.5195 48.7512 59.0284 48.7512 59.0284L47.8541 56.9824Z" fill="#ADADAD"/>
<path d="M55.1498 51.2443C49.9467 57.0077 43.9819 61.2886 43.708 62.5287C43.8087 63.8193 47.4726 63.4164 47.7906 63.643C48.4327 64.0994 45.7383 64.3324 46.1223 64.8486C46.5063 65.368 48.7569 65.7079 49.1881 66.0164C49.9247 66.5452 48.4358 66.4885 48.9174 66.8159C49.4525 67.1779 58.1653 67.8767 63.3023 64.8832C71.6878 59.9949 74.7127 54.5808 74.1681 51.1152C73.5701 47.3317 61.5554 44.1526 55.1498 51.2443Z" fill="#FFEEC0"/>
</svg>
