<svg width="96" height="96" viewBox="0 0 96 96" fill="none" xmlns="http://www.w3.org/2000/svg">
<circle cx="48" cy="48" r="48" fill="#F2F2F2"/>
<path d="M35.5289 79.4041L36.9813 75.5199C35.8821 75.1084 35.3232 73.8833 35.7347 72.7841L19.1784 66.5908C18.767 67.6901 17.5418 68.2489 16.4426 67.8375L14.9902 71.7217C16.0895 72.1331 16.6483 73.3582 16.2369 74.4575L32.7931 80.6507C33.2046 79.5515 34.4297 78.9926 35.5289 79.4041Z" fill="#D6D6D6"/>
<path d="M33.6188 78.2465L34.7826 75.1391C33.9013 74.8106 33.4561 73.8311 33.7846 72.9498L20.5415 67.9971C20.2129 68.8783 19.2334 69.3235 18.3522 68.995L17.1885 72.1024C18.0697 72.4309 18.5149 73.4104 18.1864 74.2916L31.4295 79.2444C31.7612 78.3631 32.7407 77.9179 33.6188 78.2465Z" fill="#B2B2B2"/>
<path d="M25.9855 75.8577C27.2217 75.8577 28.2239 74.8555 28.2239 73.6193C28.2239 72.383 27.2217 71.3809 25.9855 71.3809C24.7492 71.3809 23.7471 72.383 23.7471 73.6193C23.7471 74.8555 24.7492 75.8577 25.9855 75.8577Z" fill="white"/>
<path d="M23.7411 71.045L20.7617 69.9307L20.4874 70.664L23.4668 71.7783L23.7411 71.045Z" fill="white"/>
<path d="M22.8729 73.3702L19.8936 72.2559L19.6193 72.9892L22.5987 74.1035L22.8729 73.3702Z" fill="white"/>
<path d="M32.3876 74.2784L29.4082 73.1641L29.1339 73.8974L32.1133 75.0117L32.3876 74.2784Z" fill="white"/>
<path d="M31.5194 76.6036L28.54 75.4893L28.2658 76.2226L31.2451 77.3369L31.5194 76.6036Z" fill="white"/>
<path d="M54.2748 81.6091C54.7261 82.5978 55.8499 83.0706 56.8601 82.7329C57.0843 83.5527 57.7936 84.1883 58.6932 84.2743C59.5315 84.3541 60.3022 83.9304 60.7075 83.2487C61.5918 83.611 62.6419 83.3347 63.2223 82.521C63.8978 81.5722 63.6767 80.255 62.7279 79.5794L60.9009 78.2775C60.7689 78.1824 60.6277 78.1087 60.4864 78.0503C60.1026 77.8477 59.6205 77.7064 59.0924 77.6542C58.6257 77.6112 58.1835 77.645 57.7997 77.7371C57.7721 77.7433 57.7444 77.7494 57.7168 77.7555C57.7076 77.7586 57.6984 77.7617 57.6892 77.7617C57.6278 77.777 57.5694 77.7955 57.5111 77.817C57.5049 77.82 57.4988 77.8231 57.4896 77.8262C57.4466 77.8415 57.4036 77.8569 57.3606 77.8784L57.3514 77.8814C57.333 77.8907 57.3146 77.8999 57.2962 77.906L55.3218 78.8087C54.2563 79.3 53.7896 80.5497 54.2748 81.6091Z" fill="#B59F43"/>
<path d="M62.7219 78.9654L60.8949 77.6635C60.8151 77.6051 60.7291 77.556 60.6431 77.513L60.4988 73.6841C60.5449 73.07 60.0874 72.5326 59.4733 72.4866C58.8592 72.4405 58.3218 72.898 58.2758 73.5121L57.5542 77.1876C57.5388 77.1937 57.5204 77.1968 57.5051 77.2029C57.4989 77.206 57.4928 77.2091 57.4836 77.2121C57.4406 77.2275 57.3976 77.2428 57.3546 77.2643L57.3454 77.2674C57.327 77.2766 57.3086 77.2858 57.2901 77.292L55.3158 78.1947C54.2565 78.6798 53.7897 79.9295 54.2749 80.9889C54.7262 81.9776 55.8501 82.4504 56.8603 82.1127C57.0844 82.9325 57.7937 83.5681 58.6934 83.6541C59.5316 83.7339 60.3023 83.3102 60.7076 82.6285C61.5919 82.9908 62.642 82.7145 63.2224 81.9008C63.8918 80.9582 63.6707 79.6409 62.7219 78.9654Z" fill="#FFDF57"/>
<path d="M46.4511 81.6091C45.9997 82.5978 44.8759 83.0706 43.8657 82.7329C43.6415 83.5527 42.9322 84.1883 42.0326 84.2743C41.1943 84.3541 40.4236 83.9304 40.0183 83.2487C39.134 83.611 38.0839 83.3347 37.5036 82.521C36.828 81.5722 37.0491 80.255 37.9979 79.5794L39.8249 78.2775C39.9569 78.1824 40.0982 78.1087 40.2394 78.0503C40.6232 77.8477 41.1053 77.7064 41.6334 77.6542C42.1001 77.6112 42.5423 77.645 42.9261 77.7371C42.9537 77.7433 42.9814 77.7494 43.009 77.7555C43.0182 77.7586 43.0274 77.7617 43.0366 77.7617C43.0981 77.777 43.1564 77.7955 43.2147 77.817C43.2209 77.82 43.227 77.8231 43.2362 77.8262C43.2792 77.8415 43.3222 77.8569 43.3652 77.8784L43.3744 77.8814C43.3928 77.8907 43.4112 77.8999 43.4297 77.906L45.404 78.8087C46.4695 79.3 46.9362 80.5497 46.4511 81.6091Z" fill="#B59F43"/>
<path d="M45.4099 78.201L43.4355 77.2982C43.4171 77.289 43.3987 77.2798 43.3803 77.2737L43.371 77.2706C43.3281 77.2522 43.2851 77.2368 43.2421 77.2184C43.2359 77.2153 43.2298 77.2122 43.2206 77.2092C43.2052 77.203 43.1868 77.2 43.1715 77.1938L42.4499 73.5184C42.4038 72.9043 41.8665 72.4437 41.2524 72.4929C40.6383 72.5389 40.1777 73.0763 40.2268 73.6904L40.0825 77.5193C39.9965 77.5623 39.9106 77.6114 39.8307 77.6697L38.0038 78.9716C37.055 79.6472 36.8339 80.9644 37.5094 81.9132C38.0898 82.7269 39.1368 83.0032 40.0242 82.6409C40.4264 83.3226 41.1971 83.7463 42.0384 83.6665C42.935 83.5805 43.6443 82.9449 43.8715 82.1251C44.8817 82.4628 46.0025 81.99 46.4569 81.0013C46.9359 79.9358 46.4692 78.6861 45.4099 78.201Z" fill="#FFDF57"/>
<path d="M39.8061 58.1597C32.3171 67.0857 29.1176 76.5583 25.1996 73.2728C21.2817 69.9843 17.3145 61.9365 21.9664 50.6093C26.4616 39.6598 32.4952 35.097 36.7694 35.1738C41.4427 35.2567 47.2982 49.2337 39.8061 58.1597Z" fill="#FFEEC0"/>
<path d="M74.8501 48.8808C74.0027 34.916 63.2712 18.0527 50.1539 18.0527C37.0367 18.0527 26.3052 34.916 25.4577 48.8808C23.9962 51.7241 23.1855 54.6564 23.1855 57.3861C23.1855 67.9211 35.2619 76.4602 50.157 76.4602C65.0521 76.4602 77.1284 67.9211 77.1284 57.3861C77.1223 54.6564 76.3117 51.7241 74.8501 48.8808Z" fill="#FFF8DC"/>
<path d="M56.2025 45.6814C57.571 45.6814 58.6804 44.572 58.6804 43.2035C58.6804 41.835 57.571 40.7256 56.2025 40.7256C54.834 40.7256 53.7246 41.835 53.7246 43.2035C53.7246 44.572 54.834 45.6814 56.2025 45.6814Z" fill="#443E3E"/>
<path d="M46.5824 45.6814C47.9509 45.6814 49.0603 44.572 49.0603 43.2035C49.0603 41.835 47.9509 40.7256 46.5824 40.7256C45.2139 40.7256 44.1045 41.835 44.1045 43.2035C44.1045 44.572 45.2139 45.6814 46.5824 45.6814Z" fill="#443E3E"/>
<path d="M50.8203 18.0525C50.8203 19.944 48.8153 21.4762 50.7067 21.4762C51.8152 21.4762 52.8407 19.944 52.8407 18.0525C52.8407 16.1611 51.8366 14.6289 50.7067 14.6289C48.8153 14.6289 50.8203 16.1611 50.8203 18.0525Z" fill="#F7D857"/>
<path d="M56.418 47.9626C54.938 47.4928 53.0097 46.415 51.1736 46.415C49.3374 46.415 47.4091 47.4959 45.9291 47.9626C42.9353 48.9114 41.1299 47.8121 41.1299 48.9697C41.1299 50.1304 43.2178 51.3862 45.8892 52.3504C47.492 52.9307 49.0948 53.7352 51.1736 53.7352C53.2523 53.7352 54.8551 52.9307 56.4579 52.3504C59.1293 51.3862 61.2172 50.1304 61.2172 48.9697C61.2172 47.8121 59.4118 48.9114 56.418 47.9626Z" fill="#FFB808"/>
<path d="M56.418 47.3485C54.938 46.8787 53.0097 46.415 51.1736 46.415C49.3374 46.415 47.4091 46.8818 45.9291 47.3485C42.9353 48.2973 41.1299 47.8121 41.1299 48.9697C41.1299 50.1304 43.2178 50.5848 45.8892 51.5489C47.492 52.1293 49.0948 52.9338 51.1736 52.9338C53.2523 52.9338 54.8551 52.1293 56.4579 51.5489C59.1293 50.5848 61.2172 50.1273 61.2172 48.9697C61.2172 47.8121 59.4118 48.2973 56.418 47.3485Z" fill="#FFCF06"/>
<path d="M49.3033 16.7107C49.3033 19.4127 52.1681 21.602 49.466 21.602C47.8847 21.602 46.417 19.4127 46.417 16.7107C46.417 14.0086 47.8509 11.8193 49.466 11.8193C52.1681 11.8193 49.3033 14.0086 49.3033 16.7107Z" fill="#FFDF57"/>
<path d="M66.3288 59.2464C67.1835 59.2464 67.8763 58.5536 67.8763 57.6989C67.8763 56.8442 67.1835 56.1514 66.3288 56.1514C65.4741 56.1514 64.7812 56.8442 64.7812 57.6989C64.7812 58.5536 65.4741 59.2464 66.3288 59.2464Z" fill="#E5BB0A"/>
<path d="M62.8932 57.0023C63.7479 57.0023 64.4408 56.3095 64.4408 55.4548C64.4408 54.6001 63.7479 53.9072 62.8932 53.9072C62.0386 53.9072 61.3457 54.6001 61.3457 55.4548C61.3457 56.3095 62.0386 57.0023 62.8932 57.0023Z" fill="#EFC90A"/>
<path d="M60.3102 59.5082C61.1649 59.5082 61.8578 58.8153 61.8578 57.9606C61.8578 57.1059 61.1649 56.4131 60.3102 56.4131C59.4556 56.4131 58.7627 57.1059 58.7627 57.9606C58.7627 58.8153 59.4556 59.5082 60.3102 59.5082Z" fill="#EFC90A"/>
<path d="M59.1066 56.9223C59.7086 56.9223 60.1967 56.4342 60.1967 55.8322C60.1967 55.2302 59.7086 54.7422 59.1066 54.7422C58.5046 54.7422 58.0166 55.2302 58.0166 55.8322C58.0166 56.4342 58.5046 56.9223 59.1066 56.9223Z" fill="#E5BB0A"/>
<path d="M62.5275 58.6976C63.1295 58.6976 63.6176 58.2096 63.6176 57.6076C63.6176 57.0056 63.1295 56.5176 62.5275 56.5176C61.9255 56.5176 61.4375 57.0056 61.4375 57.6076C61.4375 58.2096 61.9255 58.6976 62.5275 58.6976Z" fill="#EFC90A"/>
<path d="M65.0637 56.7748C65.6657 56.7748 66.1537 56.2868 66.1537 55.6848C66.1537 55.0828 65.6657 54.5947 65.0637 54.5947C64.4617 54.5947 63.9736 55.0828 63.9736 55.6848C63.9736 56.2868 64.4617 56.7748 65.0637 56.7748Z" fill="#E5BB0A"/>
<path d="M63.9738 59.3695C64.5758 59.3695 65.0639 58.8815 65.0639 58.2795C65.0639 57.6775 64.5758 57.1895 63.9738 57.1895C63.3718 57.1895 62.8838 57.6775 62.8838 58.2795C62.8838 58.8815 63.3718 59.3695 63.9738 59.3695Z" fill="#EFC90A"/>
<path d="M61.0261 55.682C61.3635 55.682 61.6371 55.4085 61.6371 55.071C61.6371 54.7335 61.3635 54.46 61.0261 54.46C60.6886 54.46 60.415 54.7335 60.415 55.071C60.415 55.4085 60.6886 55.682 61.0261 55.682Z" fill="#E5BB0A"/>
<path d="M60.7649 56.9253C61.2499 56.9253 61.6431 56.5321 61.6431 56.0471C61.6431 55.5621 61.2499 55.1689 60.7649 55.1689C60.2799 55.1689 59.8867 55.5621 59.8867 56.0471C59.8867 56.5321 60.2799 56.9253 60.7649 56.9253Z" fill="#EFC90A"/>
<path d="M61.7444 57.8804C62.2294 57.8804 62.6225 57.4872 62.6225 57.0022C62.6225 56.5172 62.2294 56.124 61.7444 56.124C61.2594 56.124 60.8662 56.5172 60.8662 57.0022C60.8662 57.4872 61.2594 57.8804 61.7444 57.8804Z" fill="#E5BB0A"/>
<path d="M64.4407 57.9077C64.9257 57.9077 65.3188 57.5145 65.3188 57.0295C65.3188 56.5445 64.9257 56.1514 64.4407 56.1514C63.9557 56.1514 63.5625 56.5445 63.5625 57.0295C63.5625 57.5145 63.9557 57.9077 64.4407 57.9077Z" fill="#E5BB0A"/>
<path d="M63.2639 58.2739C63.7489 58.2739 64.1421 57.8807 64.1421 57.3957C64.1421 56.9107 63.7489 56.5176 63.2639 56.5176C62.7789 56.5176 62.3857 56.9107 62.3857 57.3957C62.3857 57.8807 62.7789 58.2739 63.2639 58.2739Z" fill="#EFC90A"/>
<path d="M63.3411 58.2739C63.8261 58.2739 64.2192 57.8807 64.2192 57.3957C64.2192 56.9107 63.8261 56.5176 63.3411 56.5176C62.8561 56.5176 62.4629 56.9107 62.4629 57.3957C62.4629 57.8807 62.8561 58.2739 63.3411 58.2739Z" fill="#EFC90A"/>
<path d="M58.6213 58.0679C59.1063 58.0679 59.4995 57.6747 59.4995 57.1897C59.4995 56.7047 59.1063 56.3115 58.6213 56.3115C58.1363 56.3115 57.7432 56.7047 57.7432 57.1897C57.7432 57.6747 58.1363 58.0679 58.6213 58.0679Z" fill="#EFC90A"/>
<path d="M58.0168 59.1518C58.5018 59.1518 58.895 58.7587 58.895 58.2737C58.895 57.7887 58.5018 57.3955 58.0168 57.3955C57.5318 57.3955 57.1387 57.7887 57.1387 58.2737C57.1387 58.7587 57.5318 59.1518 58.0168 59.1518Z" fill="#E5BB0A"/>
<path d="M66.3724 69.3243H58.647C58.5088 69.3243 58.3921 69.2199 58.3768 69.0848L57.1885 58.6973H67.834L66.6457 69.0848C66.6273 69.223 66.5106 69.3243 66.3724 69.3243Z" fill="white"/>
<path d="M59.6295 69.3243H58.647C58.5088 69.3243 58.3921 69.2199 58.3768 69.0848L57.1885 58.6973H59.6295V69.3243Z" fill="#EA3939"/>
<path d="M62.7518 58.6973H60.7314V69.3243H62.7518V58.6973Z" fill="#EA3939"/>
<path d="M65.7919 58.6973H63.7715V69.3243H65.7919V58.6973Z" fill="#EA3939"/>
<path d="M67.324 63.125L66.9678 66.1955V58.6973H67.8306L67.324 63.125Z" fill="#EA3939"/>
<path d="M68.0761 58.6976H56.9424C56.881 58.6976 56.835 58.6485 56.835 58.5902V58.2647C56.835 58.2033 56.8841 58.1572 56.9424 58.1572H68.0761C68.1375 58.1572 68.1836 58.2064 68.1836 58.2647V58.5902C68.1836 58.6485 68.1375 58.6976 68.0761 58.6976Z" fill="black"/>
<path d="M70.0935 57.315C66.0343 61.8103 61.0539 63.5236 60.6025 65.7252C60.6793 66.7323 63.541 66.4161 63.7867 66.5942C64.2872 66.9503 62.1839 67.1315 62.4848 67.5368C62.7857 67.9421 64.5389 68.2093 64.8767 68.4488C65.4509 68.8602 64.2902 68.8172 64.6679 69.0721C65.0855 69.3546 71.8499 69.8397 75.8937 67.5644C81.35 64.4909 83.5455 62.3077 83.2292 57.2321C83.0204 53.8914 75.2796 47.0135 71.9604 48.9172C68.6412 50.8178 71.8775 55.3407 70.0935 57.315Z" fill="#FFEEC0"/>
</svg>
