<svg width="96" height="96" viewBox="0 0 96 96" fill="none" xmlns="http://www.w3.org/2000/svg">
<circle cx="48" cy="48" r="48" fill="#F2F2F2"/>
<path d="M58.6302 56.9271C58.6302 67.4653 55.3376 75.8897 59.9633 75.8897C64.589 75.8897 72.0197 72.6187 75.3802 62.065C78.6297 51.8663 77.1022 45.1977 74.0965 42.7661C70.8101 40.106 58.6302 46.3889 58.6302 56.9271Z" fill="#FFEEC0"/>
<path d="M39.4772 56.9271C39.4772 67.4653 42.7698 75.8897 38.1441 75.8897C33.5184 75.8897 26.0876 72.6187 22.7271 62.065C19.4777 51.8663 21.0052 45.1977 24.0108 42.7661C27.2942 40.106 39.4772 46.3889 39.4772 56.9271Z" fill="#FFEEC0"/>
<path d="M53.0667 81.6934C53.5204 82.687 54.6498 83.1622 55.665 82.8228C55.8903 83.6467 56.6031 84.2855 57.5073 84.3719C58.3497 84.4521 59.1243 84.0263 59.5316 83.3412C60.4203 83.7053 61.4757 83.4276 62.0589 82.6099C62.7378 81.6563 62.5156 80.3325 61.5621 79.6536L59.726 78.3452C59.5933 78.2495 59.4514 78.1755 59.3094 78.1168C58.9237 77.9132 58.4392 77.7712 57.9084 77.7188C57.4394 77.6756 56.995 77.7095 56.6093 77.8021C56.5815 77.8083 56.5538 77.8144 56.526 77.8206C56.5167 77.8237 56.5075 77.8268 56.4982 77.8268C56.4365 77.8422 56.3779 77.8607 56.3192 77.8823C56.3131 77.8854 56.3069 77.8885 56.2976 77.8916C56.2544 77.907 56.2112 77.9224 56.168 77.944L56.1588 77.9471C56.1402 77.9564 56.1217 77.9656 56.1032 77.9718L54.119 78.8791C53.0482 79.3728 52.5792 80.6287 53.0667 81.6934Z" fill="#B59F43"/>
<path d="M61.5561 79.0368L59.72 77.7284C59.6397 77.6698 59.5533 77.6204 59.4669 77.5772L59.3219 73.7292C59.3682 73.112 58.9084 72.572 58.2912 72.5257C57.674 72.4794 57.134 72.9392 57.0877 73.5563L56.3625 77.2501C56.3471 77.2563 56.3286 77.2594 56.3132 77.2656C56.307 77.2686 56.3008 77.2717 56.2916 77.2748C56.2484 77.2902 56.2052 77.3057 56.162 77.3273L56.1527 77.3304C56.1342 77.3396 56.1157 77.3489 56.0972 77.355L54.113 78.2623C53.0483 78.7499 52.5793 80.0058 53.0669 81.0704C53.5205 82.0641 54.6499 82.5393 55.6651 82.1998C55.8904 83.0238 56.6032 83.6625 57.5074 83.7489C58.3498 83.8292 59.1244 83.4033 59.5317 82.7183C60.4205 83.0824 61.4758 82.8047 62.059 81.9869C62.7318 81.0396 62.5096 79.7157 61.5561 79.0368Z" fill="#FFDF57"/>
<path d="M45.2038 81.6934C44.7501 82.687 43.6207 83.1622 42.6055 82.8228C42.3802 83.6467 41.6674 84.2855 40.7632 84.3719C39.9208 84.4521 39.1462 84.0263 38.7389 83.3412C37.8502 83.7053 36.7948 83.4276 36.2116 82.6099C35.5327 81.6563 35.7549 80.3325 36.7084 79.6536L38.5445 78.3452C38.6772 78.2495 38.8191 78.1755 38.9611 78.1168C39.3468 77.9132 39.8313 77.7712 40.3621 77.7188C40.8311 77.6756 41.2755 77.7095 41.6612 77.8021C41.689 77.8083 41.7167 77.8144 41.7445 77.8206C41.7538 77.8237 41.763 77.8268 41.7723 77.8268C41.834 77.8422 41.8926 77.8607 41.9513 77.8823C41.9574 77.8854 41.9636 77.8885 41.9729 77.8916C42.0161 77.907 42.0593 77.9224 42.1025 77.944L42.1117 77.9471C42.1303 77.9564 42.1488 77.9656 42.1673 77.9718L44.1515 78.8791C45.2223 79.3728 45.6913 80.6287 45.2038 81.6934Z" fill="#B59F43"/>
<path d="M44.1573 78.2685L42.1731 77.3613C42.1546 77.352 42.1361 77.3428 42.1176 77.3366L42.1083 77.3335C42.0651 77.315 42.0219 77.2996 41.9787 77.2811C41.9726 77.278 41.9664 77.2749 41.9571 77.2718C41.9417 77.2656 41.9232 77.2626 41.9078 77.2564L41.1826 73.5626C41.1363 72.9454 40.5963 72.4826 39.9791 72.5319C39.3619 72.5782 38.899 73.1182 38.9484 73.7354L38.8034 77.5835C38.717 77.6267 38.6306 77.6761 38.5503 77.7347L36.7143 79.0431C35.7607 79.722 35.5385 81.0458 36.2174 81.9994C36.8007 82.8171 37.8529 83.0948 38.7448 82.7307C39.149 83.4158 39.9235 83.8416 40.7691 83.7614C41.6701 83.675 42.383 83.0362 42.6113 82.2123C43.6266 82.5517 44.7529 82.0765 45.2096 81.0829C45.691 80.0121 45.222 78.7561 44.1573 78.2685Z" fill="#FFDF57"/>
<path d="M73.7449 48.8024C72.8933 34.7679 62.1082 17.8203 48.9254 17.8203C35.7426 17.8203 24.9575 34.7679 24.1058 48.8024C22.6369 51.6599 21.8223 54.6069 21.8223 57.3502C21.8223 67.9378 33.959 76.5196 48.9285 76.5196C63.898 76.5196 76.0347 67.9378 76.0347 57.3502C76.0285 54.6069 75.2138 51.6599 73.7449 48.8024Z" fill="#FFF8DC"/>
<path d="M55.0049 45.586C56.3803 45.586 57.4952 44.4711 57.4952 43.0958C57.4952 41.7204 56.3803 40.6055 55.0049 40.6055C53.6296 40.6055 52.5146 41.7204 52.5146 43.0958C52.5146 44.4711 53.6296 45.586 55.0049 45.586Z" fill="#443E3E"/>
<path d="M45.337 45.586C46.7123 45.586 47.8273 44.4711 47.8273 43.0958C47.8273 41.7204 46.7123 40.6055 45.337 40.6055C43.9616 40.6055 42.8467 41.7204 42.8467 43.0958C42.8467 44.4711 43.9616 45.586 45.337 45.586Z" fill="#443E3E"/>
<path d="M49.5954 17.8196C49.5954 19.7205 47.5804 21.2604 49.4813 21.2604C50.5953 21.2604 51.6259 19.7205 51.6259 17.8196C51.6259 15.9188 50.6169 14.3789 49.4813 14.3789C47.5804 14.3789 49.5954 15.9188 49.5954 17.8196Z" fill="#F7D857"/>
<path d="M55.2209 47.8824C53.7336 47.4103 51.7956 46.3271 49.9503 46.3271C48.105 46.3271 46.167 47.4134 44.6796 47.8824C41.6709 48.836 39.8564 47.7312 39.8564 48.8946C39.8564 50.061 41.9548 51.3232 44.6395 52.2921C46.2503 52.8753 47.8612 53.6838 49.9503 53.6838C52.0394 53.6838 53.6502 52.8753 55.2611 52.2921C57.9458 51.3232 60.0441 50.061 60.0441 48.8946C60.0441 47.7281 58.2297 48.8329 55.2209 47.8824Z" fill="#FFB808"/>
<path d="M55.2209 47.2652C53.7336 46.7931 51.7956 46.3271 49.9503 46.3271C48.105 46.3271 46.167 46.7962 44.6796 47.2652C41.6709 48.2188 39.8564 47.7312 39.8564 48.8946C39.8564 50.061 41.9548 50.5177 44.6395 51.4867C46.2503 52.0699 47.8612 52.8784 49.9503 52.8784C52.0394 52.8784 53.6502 52.0699 55.2611 51.4867C57.9458 50.5177 60.0441 50.058 60.0441 48.8946C60.0441 47.7281 58.2297 48.2157 55.2209 47.2652Z" fill="#FFCF06"/>
<path d="M48.0706 16.4714C48.0706 19.187 50.9497 21.3872 48.2342 21.3872C46.645 21.3872 45.1699 19.187 45.1699 16.4714C45.1699 13.7559 46.611 11.5557 48.2342 11.5557C50.9497 11.5557 48.0706 13.7559 48.0706 16.4714Z" fill="#FFDF57"/>
<path d="M75.6582 44.6396L75.3712 44.7168C73.0383 45.3432 70.6406 43.9576 70.0142 41.6247L68.3293 35.3357C67.7028 33.0028 69.0884 30.6051 71.4213 29.9787L71.7083 29.9015C74.0412 29.2751 76.4389 30.6607 77.0653 32.9936L78.7502 39.2826C79.3736 41.6155 77.9911 44.0132 75.6582 44.6396Z" fill="#FFE5A4"/>
<path d="M74.0936 46.96L72.5538 47.3735C71.5077 47.6543 70.4307 47.034 70.1499 45.9848L66.2648 31.4875C65.984 30.4414 66.6043 29.3644 67.6534 29.0836L69.1933 28.6701C70.2394 28.3893 71.3164 29.0095 71.5972 30.0587L75.4823 44.5561C75.7631 45.6022 75.1397 46.6792 74.0936 46.96Z" fill="#FFE5A4"/>
<path d="M22.4428 44.0752L22.7298 44.1523C25.0627 44.7787 27.4604 43.3932 28.0868 41.0603L29.7717 34.7713C30.3981 32.4384 29.0126 30.0407 26.6797 29.4142L26.3927 29.3371C24.0598 28.7107 21.6621 30.0962 21.0356 32.4291L19.3508 38.7181C18.7243 41.051 20.1099 43.4518 22.4428 44.0752Z" fill="#FFE5A4"/>
<path d="M24.007 46.3985L25.5468 46.812C26.5929 47.0928 27.6699 46.4725 27.9507 45.4233L31.8358 30.9259C32.1166 29.8798 31.4963 28.8029 30.4472 28.5221L28.9073 28.1086C27.8612 27.8277 26.7842 28.448 26.5034 29.4972L22.6183 43.9946C22.3375 45.0407 22.9578 46.1176 24.007 46.3985Z" fill="#FFE5A4"/>
<path d="M26.8449 24.6624C27.676 24.3357 28.1631 23.5963 27.933 23.0111C27.7029 22.4259 26.8427 22.2163 26.0116 22.5431C25.1805 22.8699 24.6934 23.6092 24.9235 24.1944C25.1536 24.7797 26.0138 24.9892 26.8449 24.6624Z" fill="#FFA300"/>
<path d="M32.2052 23.7855C33.0363 23.4587 33.5235 22.7194 33.2934 22.1342C33.0633 21.5489 32.203 21.3394 31.372 21.6662C30.5409 21.9929 30.0537 22.7322 30.2838 23.3175C30.5139 23.9027 31.3742 24.1122 32.2052 23.7855Z" fill="#FFA300"/>
<path d="M27.9141 23.3771H27.2568V16.0112L27.9141 15.9062V17.6251V23.3771Z" fill="#FFA300"/>
<path d="M33.3487 22.3403H32.6914V14.9127L33.3487 14.709V17.3844V22.3403Z" fill="#FFA300"/>
<path d="M27.9147 15.9058L32.6916 14.9121V16.6618L27.5166 17.7634L27.5876 15.9582L27.9147 15.9058Z" fill="#FFA300"/>
<path d="M27.9147 18.1558L32.6916 17.1621V17.5756L27.5166 18.6742L27.5876 18.2082L27.9147 18.1558Z" fill="#FFA300"/>
<path d="M82.4968 49.9161C81.8055 49.2094 81.4291 48.3423 81.4291 48.3423H81.426C81.3828 48.1387 81.1822 48.009 80.9785 48.0522C80.7749 48.0955 80.6453 48.296 80.6885 48.4997H80.6854L82.3579 56.3162C81.9043 56.2545 81.3612 56.3841 80.8674 56.7112C80.0065 57.2821 79.6331 58.2387 80.0343 58.8435C80.4354 59.4514 81.4599 59.4792 82.324 58.9052C83.0152 58.4485 83.3886 57.7449 83.3053 57.171L83.3176 57.1679L82.3178 52.5021L82.2931 52.3848C82.2499 52.1256 82.2129 51.5208 82.8455 51.4837C83.6509 51.4344 84.3143 52.9032 84.5766 53.3445C84.8389 53.7858 85.058 55.5169 85.0179 55.7885C84.9778 56.0601 85.2833 56.0601 85.3358 55.9088C85.3882 55.7546 85.5703 55.1898 85.2524 53.6963C84.7741 51.6812 83.1849 50.6228 82.4968 49.9161Z" fill="#FF7300"/>
</svg>
